<svg width="30" height="30" viewBox="0 0 30 30" fill="none" xmlns="http://www.w3.org/2000/svg">
<g clip-path="url(#clip0_1916_81906)">
<path d="M11.6593 7.56381L11.1417 5.63196C6.18646 6.9597 3.4517 11.7021 4.78125 16.6641L6.7131 16.1464C5.66178 12.2228 7.7415 8.61358 11.6593 7.56381Z" fill="#01796F"/>
<path d="M10.5702 15.1017C10.0259 13.0703 10.6602 11.9717 12.6915 11.4274L12.1739 9.49557C9.05876 10.3303 7.80364 12.5042 8.63833 15.6193L10.5702 15.1017ZM14.942 10.3875C14.8231 10.6183 14.7985 10.8863 14.8734 11.1349C14.9483 11.3836 15.1169 11.5933 15.3436 11.72L18.3401 13.3945C18.3829 13.9793 18.3339 15.1913 17.494 16.6504C16.6501 18.1106 15.6221 18.7598 15.0973 19.0112L12.1484 17.2556C11.9255 17.1223 11.6594 17.0811 11.4066 17.1405C11.1537 17.1999 10.9339 17.3554 10.7937 17.5741L7.82548 22.1947C7.68469 22.4136 7.63475 22.6787 7.68628 22.9338C7.73781 23.1889 7.88675 23.4138 8.10146 23.5609L10.4607 25.1752C10.673 25.2973 10.9228 25.3372 11.1626 25.2874C11.408 25.2372 17.2022 23.9807 20.4512 18.3562C23.2829 13.4501 22.2672 8.52724 21.9095 7.19233C21.8572 6.99721 21.8193 6.87899 21.8088 6.84763C21.7323 6.61499 21.5725 6.41887 21.36 6.29703L18.7816 5.0623C18.547 4.94972 18.2778 4.93303 18.031 5.01576C17.7843 5.09849 17.5796 5.27413 17.4603 5.50539L14.942 10.3875Z" fill="#01796F"/>
</g>
<defs>
<clipPath id="clip0_1916_81906">
<rect width="24" height="24" fill="white" transform="translate(6.21094 29.729) rotate(-105)"/>
</clipPath>
</defs>
</svg>
