<svg width="32" height="32" viewBox="0 0 32 32" fill="none" xmlns="http://www.w3.org/2000/svg">
<path d="M6.99707 24.0005V28.5005L8.68406 27.6693L15.0334 23.979H21.3307C22.8014 23.979 23.9974 22.8204 23.9974 21.3957V11.0623C23.9974 9.63763 22.9677 9.00049 21.4971 9.00049H13.4971H5.49707C4.0264 9.00049 2.66406 9.63763 2.66406 11.0623V21.3957C2.66406 22.8204 3.86006 23.979 5.33073 23.979L6.99707 24.0005ZM4.49707 11.0623H21.9971V21.8293H14.9307L11.9971 23.5005L8.99707 25.0005V22.0005L6.99707 21.9237H4.49707V11.0623Z" fill="#01796F"/>
<path d="M23.9463 6.00049H8.44629C6.97562 6.00049 6 6.57708 6 8.00179H22C23.4707 8.00179 24.6667 7.85447 24.6667 9.27918V20.9185C26.1373 20.9185 26.5 19.9252 26.5 18.5005V13.0005V8.00049C26.5 6.57578 25.417 6.00049 23.9463 6.00049Z" fill="#01796F"/>
<path d="M8.25977 18.729H7.5625V14.4458H9.98242V15.0376H8.25977V16.3735H9.87109V16.9624H8.25977V18.729ZM13.416 18.729L12.9971 17.5396H11.3594L10.9404 18.729H10.1992L11.793 14.4282H12.5723L14.1631 18.729H13.416ZM12.8154 16.936L12.4082 15.7642C12.3926 15.7134 12.3701 15.6421 12.3408 15.5503C12.3115 15.4565 12.2822 15.3618 12.2529 15.2661C12.2236 15.1685 12.1992 15.0864 12.1797 15.02C12.1602 15.1001 12.1357 15.1899 12.1064 15.2896C12.0791 15.3872 12.0518 15.479 12.0244 15.5649C11.999 15.6509 11.9795 15.7173 11.9658 15.7642L11.5557 16.936H12.8154ZM18.5312 16.5815C18.5312 16.9155 18.4883 17.2202 18.4023 17.4956C18.3164 17.771 18.1875 18.0063 18.0156 18.2017C17.8438 18.397 17.627 18.5444 17.3652 18.644L18.3848 19.7485H17.4473L16.6416 18.7847C16.6221 18.7847 16.6025 18.7847 16.583 18.7847C16.5654 18.7866 16.5479 18.7876 16.5303 18.7876C16.1885 18.7876 15.8916 18.7349 15.6396 18.6294C15.3896 18.5239 15.1816 18.3735 15.0156 18.1782C14.8516 17.9829 14.7285 17.7495 14.6465 17.478C14.5645 17.2065 14.5234 16.9058 14.5234 16.5757C14.5234 16.1343 14.5957 15.7495 14.7402 15.4214C14.8867 15.0913 15.1084 14.8354 15.4053 14.6538C15.7041 14.4702 16.0811 14.3784 16.5361 14.3784C16.9814 14.3784 17.3516 14.4692 17.6465 14.6509C17.9414 14.8325 18.1621 15.0884 18.3086 15.4185C18.457 15.7466 18.5312 16.1343 18.5312 16.5815ZM15.2617 16.5815C15.2617 16.9116 15.3066 17.1978 15.3965 17.4399C15.4863 17.6802 15.624 17.8657 15.8096 17.9966C15.9971 18.1255 16.2373 18.1899 16.5303 18.1899C16.8252 18.1899 17.0654 18.1255 17.251 17.9966C17.4365 17.8657 17.5732 17.6802 17.6611 17.4399C17.749 17.1978 17.793 16.9116 17.793 16.5815C17.793 16.0796 17.6924 15.687 17.4912 15.4038C17.292 15.1187 16.9736 14.9761 16.5361 14.9761C16.2432 14.9761 16.002 15.0405 15.8125 15.1694C15.625 15.2983 15.4863 15.4829 15.3965 15.7231C15.3066 15.9614 15.2617 16.2476 15.2617 16.5815Z" fill="#01796F"/>
</svg>
