<svg width="26" height="27" viewBox="0 0 26 27" fill="none" xmlns="http://www.w3.org/2000/svg">
<path d="M14.0833 18.0625V19.1458C14.0833 20.0078 13.7409 20.8344 13.1314 21.4439C12.5219 22.0534 11.6953 22.3958 10.8333 22.3958H6.5C5.63805 22.3958 4.8114 22.0534 4.2019 21.4439C3.59241 20.8344 3.25 20.0078 3.25 19.1458V8.3125C3.25 7.45055 3.59241 6.6239 4.2019 6.0144C4.8114 5.40491 5.63805 5.0625 6.5 5.0625H10.8333C11.6953 5.0625 12.5219 5.40491 13.1314 6.0144C13.7409 6.6239 14.0833 7.45055 14.0833 8.3125V9.39583M18.4167 18.0625L22.75 13.7292L18.4167 18.0625ZM22.75 13.7292L18.4167 9.39583L22.75 13.7292ZM22.75 13.7292H7.58333H22.75Z" stroke="#003A91" stroke-width="2" stroke-linecap="round" stroke-linejoin="round"/>
</svg>
