<svg width="19" height="19" viewBox="0 0 19 19" fill="none" xmlns="http://www.w3.org/2000/svg">
<path d="M0 8.729H8V0.729004H0V8.729ZM2 2.729H6V6.729H2V2.729ZM0 18.729H8V10.729H0V18.729ZM2 12.729H6V16.729H2V12.729ZM10 0.729004V8.729H18V0.729004H10ZM16 6.729H12V2.729H16V6.729ZM10.01 10.729H12.01V12.729H10.01V10.729ZM12.01 12.729H14.01V14.729H12.01V12.729ZM10.01 14.729H12.01V16.729H10.01V14.729ZM14.01 14.729H16.01V16.729H14.01V14.729ZM16.01 16.729H18.01V18.729H16.01V16.729ZM12.01 16.729H14.01V18.729H12.01V16.729ZM14.01 10.729H16.01V12.729H14.01V10.729ZM16.01 12.729H18.01V14.729H16.01V12.729Z" fill="#003A91"/>
</svg>
