<svg width="17" height="17" viewBox="0 0 17 17" fill="none" xmlns="http://www.w3.org/2000/svg">
<path d="M14.1946 4.83053L10.1146 1.97595C9.00251 1.19678 7.29543 1.23928 6.22585 2.06803L2.6771 4.83762C1.96876 5.39012 1.40918 6.52345 1.40918 7.41595V12.3035C1.40918 14.1097 2.87543 15.583 4.68168 15.583H12.3175C14.1238 15.583 15.59 14.1168 15.59 12.3105V7.50804C15.59 6.55179 14.9738 5.37595 14.1946 4.83053ZM9.03085 12.7497C9.03085 13.0401 8.79001 13.281 8.4996 13.281C8.20918 13.281 7.96835 13.0401 7.96835 12.7497V10.6247C7.96835 10.3343 8.20918 10.0935 8.4996 10.0935C8.79001 10.0935 9.03085 10.3343 9.03085 10.6247V12.7497Z" fill="#01796F"/>
</svg>
