<svg width="15" height="21" viewBox="0 0 15 21" fill="none" xmlns="http://www.w3.org/2000/svg">
<path fill-rule="evenodd" clip-rule="evenodd" d="M5.90454 19.2113C6.57056 20.0952 7.8249 20.27 8.70607 19.6019C8.85319 19.4904 8.98422 19.3589 9.09543 19.2114C13.0242 13.9987 15 10.1923 15 7.62126C15 3.41955 11.6453 0.0078125 7.5 0.0078125C3.35474 0.0078125 0 3.41955 0 7.62126C0 10.1923 1.97584 13.9987 5.90454 19.2113ZM10 7.53034C10 8.9152 8.88071 10.0379 7.5 10.0379C6.11929 10.0379 5 8.9152 5 7.53034C5 6.14548 6.11929 5.02283 7.5 5.02283C8.88071 5.02283 10 6.14548 10 7.53034Z" fill="#003A91"/>
</svg>
