<svg width="22" height="27" viewBox="0 0 22 27" fill="none" xmlns="http://www.w3.org/2000/svg">
<path d="M21.2499 10.9997C21.2498 5.34804 16.6517 0.75 11 0.75C5.34852 0.75 0.750407 5.34777 0.750102 10.9932C0.731772 15.1169 3.18961 18.8605 5.65872 21.5846C8.05695 24.2305 10.5034 25.9557 10.8302 26.1861C10.8408 26.1936 10.8491 26.1995 10.8552 26.2038L10.9982 26.3054L11.1423 26.2055L11 26C11.1423 26.2055 11.1424 26.2055 11.1426 26.2054L11.143 26.2051L11.1446 26.204L11.1505 26.1998L11.1729 26.1841C11.1925 26.1703 11.2213 26.1498 11.2587 26.1229C11.3335 26.0691 11.4426 25.9896 11.5812 25.8856C11.8583 25.6778 12.2533 25.3724 12.7269 24.981C13.6736 24.1983 14.9361 23.07 16.1982 21.6873C18.7129 18.9324 21.2681 15.1223 21.2499 10.9997ZM21.2499 10.9997C21.2499 10.9998 21.2499 10.9999 21.2499 11H20.9999L21.2499 10.9989C21.2499 10.9992 21.2499 10.9994 21.2499 10.9997ZM11 15.75C8.3756 15.75 6.25005 13.6244 6.25005 11C6.25005 8.37557 8.3756 6.25 11 6.25C13.6244 6.25 15.75 8.37557 15.75 11C15.75 13.6244 13.6244 15.75 11 15.75Z" fill="#386BF6" stroke="#386BF6" stroke-width="0.5"/>
</svg>
