<svg width="24" height="29" viewBox="0 0 24 29" fill="none" xmlns="http://www.w3.org/2000/svg">
<path d="M22.7499 11.4983C22.749 5.57113 17.9274 0.75 12 0.75C6.07295 0.75 1.25102 5.57082 1.2501 11.4921C1.23136 15.807 3.7949 19.6695 6.28826 22.4204C8.72309 25.1067 11.205 26.8571 11.5398 27.0932C11.5507 27.1009 11.5593 27.1069 11.5656 27.1114L11.9945 27.4161L12.427 27.1166L12 26.5C12.427 27.1166 12.4272 27.1164 12.4274 27.1163L12.4281 27.1158L12.4301 27.1144L12.4369 27.1097L12.4611 27.0927C12.482 27.078 12.512 27.0566 12.5507 27.0288C12.628 26.9732 12.7398 26.8917 12.8812 26.7857C13.1638 26.5736 13.5651 26.2634 14.0454 25.8663C15.0049 25.0731 16.2856 23.9287 17.5675 22.5244C20.1028 19.7469 22.7686 15.8163 22.7499 11.4983ZM22.7499 11.4983C22.7499 11.4989 22.7499 11.4994 22.7499 11.5H21.9999L22.7499 11.4966C22.7499 11.4972 22.7499 11.4978 22.7499 11.4983ZM12 15.75C9.65175 15.75 7.75005 13.8483 7.75005 11.5C7.75005 9.15171 9.65175 7.25 12 7.25C14.3483 7.25 16.25 9.15171 16.25 11.5C16.25 13.8483 14.3483 15.75 12 15.75Z" stroke="#79A3DC" stroke-width="1.5"/>
</svg>
