<svg width="25" height="25" viewBox="0 0 25 25" fill="none" xmlns="http://www.w3.org/2000/svg">
<path d="M15.5198 21.75H5.4375C3.77121 21.75 2.41667 20.3955 2.41667 18.7292C2.41667 17.0629 3.77121 15.7083 5.4375 15.7083H13.8958C16.2279 15.7083 18.125 13.8112 18.125 11.4792C18.125 9.14708 16.2279 7.25 13.8958 7.25H8.02213C7.57837 8.11986 7.02884 8.93156 6.38604 9.66667H13.8958C14.8951 9.66667 15.7083 10.4799 15.7083 11.4792C15.7083 12.4785 14.8951 13.2917 13.8958 13.2917H5.4375C2.43963 13.2917 0 15.7313 0 18.7292C0 21.727 2.43963 24.1667 5.4375 24.1667H17.029C16.4361 23.4208 15.9298 22.6101 15.5198 21.75V21.75ZM3.625 0C1.62642 0 0 1.62642 0 3.625C0 7.47717 3.625 9.66667 3.625 9.66667C3.625 9.66667 7.25 7.47596 7.25 3.625C7.25 1.62642 5.62358 0 3.625 0ZM3.625 5.4375C3.3869 5.43742 3.15115 5.39044 2.9312 5.29925C2.71126 5.20806 2.51142 5.07444 2.34312 4.90603C2.17481 4.73761 2.04133 4.53769 1.95028 4.31768C1.85924 4.09768 1.81242 3.86189 1.8125 3.62379C1.81258 3.38569 1.85956 3.14994 1.95075 2.92999C2.04194 2.71005 2.17555 2.51022 2.34397 2.34191C2.51239 2.1736 2.71231 2.04012 2.93232 1.94907C3.15232 1.85803 3.38811 1.81121 3.62621 1.81129C4.10707 1.81145 4.56818 2.00263 4.90809 2.34276C5.248 2.6829 5.43887 3.14413 5.43871 3.625C5.43855 4.10586 5.24737 4.56697 4.90724 4.90688C4.5671 5.24679 4.10587 5.43766 3.625 5.4375V5.4375Z" fill="#386BF6"/>
<path d="M20.5415 14.5C18.5429 14.5 16.9165 16.1264 16.9165 18.125C16.9165 21.9772 20.5415 24.1667 20.5415 24.1667C20.5415 24.1667 24.1665 21.976 24.1665 18.125C24.1665 16.1264 22.5401 14.5 20.5415 14.5ZM20.5415 19.9375C20.3034 19.9374 20.0677 19.8904 19.8477 19.7993C19.6278 19.7081 19.4279 19.5744 19.2596 19.406C19.0913 19.2376 18.9578 19.0377 18.8668 18.8177C18.7757 18.5977 18.7289 18.3619 18.729 18.1238C18.7291 17.8857 18.7761 17.6499 18.8672 17.43C18.9584 17.21 19.0921 17.0102 19.2605 16.8419C19.4289 16.6736 19.6288 16.5401 19.8488 16.4491C20.0688 16.358 20.3046 16.3112 20.5427 16.3113C21.0236 16.3115 21.4847 16.5026 21.8246 16.8428C22.1645 17.1829 22.3554 17.6441 22.3552 18.125C22.3551 18.6059 22.1639 19.067 21.8237 19.4069C21.4836 19.7468 21.0224 19.9377 20.5415 19.9375V19.9375Z" fill="#386BF6"/>
</svg>
