<svg width="30" height="30" viewBox="0 0 30 30" fill="none" xmlns="http://www.w3.org/2000/svg">
<path d="M18.4368 24.667H8.35449C6.6882 24.667 5.33366 23.3124 5.33366 21.6462C5.33366 19.9799 6.6882 18.6253 8.35449 18.6253H16.8128C19.1449 18.6253 21.042 16.7282 21.042 14.3962C21.042 12.0641 19.1449 10.167 16.8128 10.167H10.9391C10.4954 11.0368 9.94584 11.8486 9.30303 12.5837H16.8128C17.8121 12.5837 18.6253 13.3969 18.6253 14.3962C18.6253 15.3954 17.8121 16.2087 16.8128 16.2087H8.35449C5.35662 16.2087 2.91699 18.6483 2.91699 21.6462C2.91699 24.644 5.35662 27.0837 8.35449 27.0837H19.946C19.3531 26.3378 18.8468 25.5271 18.4368 24.667V24.667ZM6.54199 2.91699C4.54341 2.91699 2.91699 4.54341 2.91699 6.54199C2.91699 10.3942 6.54199 12.5837 6.54199 12.5837C6.54199 12.5837 10.167 10.393 10.167 6.54199C10.167 4.54341 8.54058 2.91699 6.54199 2.91699ZM6.54199 8.35449C6.30389 8.35441 6.06814 8.30744 5.84819 8.21625C5.62825 8.12506 5.42842 7.99144 5.26011 7.82302C5.0918 7.6546 4.95832 7.45468 4.86728 7.23467C4.77623 7.01467 4.72941 6.77888 4.72949 6.54078C4.72957 6.30268 4.77655 6.06693 4.86774 5.84698C4.95893 5.62704 5.09255 5.42721 5.26097 5.2589C5.42938 5.0906 5.6293 4.95711 5.84931 4.86607C6.06932 4.77502 6.3051 4.7282 6.5432 4.72828C7.02407 4.72844 7.48517 4.91962 7.82508 5.25976C8.16499 5.59989 8.35586 6.06113 8.3557 6.54199C8.35554 7.02286 8.16436 7.48396 7.82423 7.82387C7.48409 8.16378 7.02286 8.35465 6.54199 8.35449V8.35449Z" fill="#386BF6"/>
<path d="M23.458 17.417C21.4594 17.417 19.833 19.0434 19.833 21.042C19.833 24.8942 23.458 27.0837 23.458 27.0837C23.458 27.0837 27.083 24.893 27.083 21.042C27.083 19.0434 25.4566 17.417 23.458 17.417ZM23.458 22.8545C23.2199 22.8544 22.9842 22.8074 22.7642 22.7162C22.5443 22.6251 22.3444 22.4914 22.1761 22.323C22.0078 22.1546 21.8743 21.9547 21.7833 21.7347C21.6922 21.5147 21.6454 21.2789 21.6455 21.0408C21.6456 20.8027 21.6926 20.5669 21.7838 20.347C21.8749 20.127 22.0086 19.9272 22.177 19.7589C22.3454 19.5906 22.5453 19.4571 22.7653 19.3661C22.9853 19.275 23.2211 19.2282 23.4592 19.2283C23.9401 19.2284 24.4012 19.4196 24.7411 19.7598C25.081 20.0999 25.2719 20.5611 25.2717 21.042C25.2716 21.5229 25.0804 21.984 24.7402 22.3239C24.4001 22.6638 23.9389 22.8547 23.458 22.8545V22.8545Z" fill="#386BF6"/>
</svg>
