<svg width="43" height="56" viewBox="0 0 43 56" fill="none" xmlns="http://www.w3.org/2000/svg">
<path d="M31.2658 48.7695C31.1693 48.5951 30.787 48.206 30.1187 47.6023C29.4505 46.9986 28.676 46.3191 27.7952 45.5637C26.9145 44.8084 26.4149 44.3702 26.2966 44.2493C26.2418 44.1968 26.0764 44.0139 25.8003 43.7007C25.5242 43.3874 25.2827 43.1483 25.0756 42.9833C24.8686 42.8182 24.6413 42.7213 24.3938 42.6925C23.9755 42.6339 23.4117 42.8007 22.7023 43.1929C22.2491 43.4435 21.5835 43.8684 20.7056 44.4677C19.8277 45.0669 19.1523 45.4973 18.6794 45.7588C18.0095 46.1292 17.4982 46.298 17.1456 46.2652C16.9835 46.2513 16.8072 46.1883 16.6166 46.0763C16.426 45.9642 16.2644 45.8465 16.1319 45.7231C15.9993 45.5997 15.8301 45.4448 15.6241 45.2584C15.4182 45.0721 15.2878 44.9526 15.233 44.9001C13.3817 43.2734 11.8993 41.4531 10.7857 39.4391C9.67224 37.4252 8.91888 35.2018 8.52568 32.7688C8.51031 32.6945 8.47847 32.5206 8.43016 32.2471C8.38184 31.9736 8.34067 31.7479 8.30664 31.57C8.27261 31.3921 8.25882 31.1927 8.26528 30.9717C8.27174 30.7507 8.31217 30.5679 8.38656 30.4232C8.54627 30.1072 8.96111 29.7639 9.63107 29.3935C10.104 29.132 10.8276 28.7889 11.802 28.364C12.7763 27.9392 13.4901 27.6015 13.9433 27.3509C14.6526 26.9587 15.0937 26.5699 15.2666 26.1845C15.3738 25.9595 15.4125 25.7155 15.3828 25.4524C15.3531 25.1893 15.2791 24.8576 15.1606 24.4572C15.0421 24.0568 14.9752 23.8195 14.9599 23.7451C14.9204 23.5806 14.8149 22.9246 14.6435 21.777C14.4722 20.6294 14.3085 19.6122 14.1526 18.7252C13.9967 17.8383 13.8705 17.3076 13.774 17.1331C13.5811 16.7843 12.9224 16.605 11.7978 16.5952C10.6733 16.5855 9.74309 16.6598 9.00732 16.8181C8.54309 16.9091 8.06466 17.0908 7.57204 17.3632C6.90208 17.7336 6.01546 18.4102 4.91219 19.3929C3.93807 20.2835 3.16487 21.1303 2.59257 21.9333C2.02028 22.7363 1.6101 23.6463 1.36204 24.6635C1.11397 25.6806 0.967634 26.4862 0.923031 27.0803C0.878427 27.6743 0.844423 28.6715 0.82102 30.0717C0.808005 30.3274 0.802628 30.527 0.804889 30.6707C0.777512 32.9013 1.05447 34.9844 1.63577 36.9199C2.21707 38.8554 3.09955 40.8936 4.2832 43.0344C5.46685 45.1752 6.72372 47.0063 8.0538 48.5279C9.38388 50.0494 11.0008 51.3916 12.9044 52.5545C15.0776 53.8791 16.6011 54.7035 17.4751 55.0278C19.5144 55.7845 21.8347 55.8164 24.4361 55.1235L24.6397 55.073C26.0586 54.6612 27.1031 54.2701 27.773 53.8996C28.2656 53.6273 28.6739 53.3187 28.9979 52.974C29.5232 52.435 30.0808 51.6868 30.6705 50.7292C31.2602 49.7716 31.4587 49.1184 31.2658 48.7695ZM23.9578 24.4538C23.4455 24.7371 22.9189 24.8316 22.3779 24.7373C21.8369 24.643 21.4503 24.3857 21.2179 23.9655C20.9856 23.5452 20.9733 23.081 21.1811 22.5727C21.5858 21.5828 21.5557 20.6677 21.091 19.8272C20.6351 19.0026 19.8717 18.4826 18.8006 18.2673C18.2597 18.173 17.8752 17.9197 17.6472 17.5074C17.4193 17.0951 17.4092 16.6348 17.617 16.1265C17.8248 15.6182 18.1848 15.2224 18.6972 14.9391C19.2095 14.6559 19.7361 14.5614 20.2771 14.6557C22.4126 15.0279 23.945 16.0545 24.8743 17.7354C25.8037 19.4164 25.8583 21.26 25.038 23.2665C24.7908 23.7966 24.4308 24.1923 23.9578 24.4538ZM31.6881 25.8013C31.1561 26.0955 30.6294 26.1899 30.1082 26.0848C29.5672 25.9905 29.1827 25.7372 28.9548 25.3248C28.7268 24.9125 28.7167 24.4522 28.9245 23.9439C30.1319 20.9159 30.043 18.1492 28.6576 15.6436C27.2723 13.1381 24.9765 11.5915 21.77 11.004C21.229 10.9097 20.8446 10.6564 20.6166 10.244C20.3886 9.83174 20.3786 9.37144 20.5864 8.86315C20.7942 8.35485 21.1542 7.95907 21.6665 7.6758C22.1789 7.39254 22.7055 7.29806 23.2465 7.39236C27.5174 8.13683 30.5822 10.19 32.441 13.5519C34.2997 16.9137 34.4088 20.6011 32.7683 24.614C32.5802 25.1114 32.2201 25.5071 31.6881 25.8013ZM39.4184 27.1488C38.8864 27.443 38.3597 27.5374 37.8385 27.4322C37.2975 27.3379 36.913 27.0846 36.685 26.6723C36.4571 26.26 36.447 25.7997 36.6548 25.2914C37.6303 22.8678 38.0831 20.4642 38.0129 18.0804C37.9427 15.6967 37.3465 13.4899 36.2242 11.4601C35.102 9.43026 33.5501 7.75188 31.5686 6.4249C29.5871 5.09793 27.3107 4.20318 24.7394 3.74064C24.1984 3.64634 23.8139 3.39304 23.586 2.98073C23.358 2.56843 23.3479 2.10813 23.5557 1.59983C23.7635 1.09153 24.1236 0.69575 24.6359 0.412486C25.1482 0.129224 25.6749 0.0347437 26.2159 0.129041C29.3194 0.670021 32.0563 1.73461 34.4266 3.32282C36.797 4.91102 38.6573 6.92617 40.0076 9.36828C41.3578 11.8104 42.0752 14.4574 42.1598 17.3094C42.2445 20.1614 41.6907 23.0454 40.4986 25.9615C40.3105 26.4589 39.9504 26.8546 39.4184 27.1488Z" fill="#B81F1F"/>
</svg>
