<svg width="53" height="53" viewBox="0 0 53 53" fill="none" xmlns="http://www.w3.org/2000/svg">
<path fill-rule="evenodd" clip-rule="evenodd" d="M38.6432 31.76C37.9819 31.431 34.74 29.8454 34.1365 29.6246C33.5329 29.406 33.0936 29.2978 32.652 29.9558C32.2127 30.6095 30.9501 32.0891 30.5662 32.5263C30.1801 32.9658 29.7962 33.0188 29.1372 32.692C28.4781 32.3607 26.3524 31.6695 23.8339 29.4347C21.8745 27.6945 20.5498 25.5458 20.1659 24.8877C19.782 24.2318 20.1238 23.8763 20.4544 23.5495C20.7517 23.2558 21.1134 22.7832 21.444 22.4011C21.7747 22.0169 21.8834 21.7431 22.1031 21.3036C22.325 20.8664 22.214 20.4843 22.0476 20.1553C21.8834 19.8262 20.5653 16.5954 20.015 15.2815C19.4803 14.0029 18.9366 14.1773 18.5328 14.1552C18.1467 14.1376 17.7073 14.1332 17.268 14.1332C16.8286 14.1332 16.1141 14.2966 15.5105 14.9547C14.9048 15.6105 13.2028 17.1983 13.2028 20.4291C13.2028 23.6577 15.5638 26.7781 15.8944 27.2175C16.225 27.6548 20.5431 34.2842 27.1579 37.1263C28.7333 37.802 29.9604 38.2062 30.9168 38.5065C32.4967 39.0078 33.9346 38.9371 35.0707 38.7671C36.3355 38.5794 38.9716 37.1793 39.5219 35.6467C40.07 34.1141 40.07 32.8002 39.9058 32.5263C39.7416 32.2525 39.3022 32.0891 38.641 31.76H38.6432ZM26.612 48.1083H26.6031C22.6743 48.109 18.8176 47.0579 15.4373 45.0652L14.6385 44.5926L6.33513 46.7612L8.55187 38.7052L8.03042 37.8793C5.83395 34.3998 4.67157 30.3727 4.67757 26.2635C4.68201 14.2281 14.5209 4.43638 26.6209 4.43638C32.4789 4.43638 37.9864 6.71096 42.127 10.8361C44.1692 12.8602 45.788 15.2673 46.8895 17.918C47.991 20.5687 48.5534 23.4105 48.5442 26.279C48.5398 38.3144 38.7009 48.1083 26.612 48.1083V48.1083ZM45.2779 7.7025C42.833 5.25329 39.9241 3.31132 36.7196 1.98911C33.5151 0.666903 30.0788 -0.00924584 26.6098 -0.000153649C12.0667 -0.000153649 0.226334 11.7813 0.221896 26.2613C0.215157 30.8695 1.42984 35.398 3.74339 39.3898L0 52.9998L13.9883 49.3472C17.8579 51.4454 22.1942 52.5448 26.6009 52.5448H26.612C41.1551 52.5448 52.9954 40.7634 52.9999 26.2812C53.0106 22.8302 52.3337 19.4113 51.0082 16.2223C49.6827 13.0333 47.7351 10.1376 45.2779 7.7025" fill="#234FA2"/>
</svg>
