<svg width="92" height="92" viewBox="0 0 92 92" fill="none" xmlns="http://www.w3.org/2000/svg">
<g filter="url(#filter0_d_2236_123576)">
<path d="M6 21C6 12.7157 12.7157 6 21 6H63C71.2843 6 78 12.7157 78 21V63C78 71.2843 71.2843 78 63 78H21C12.7157 78 6 71.2843 6 63V21Z" fill="url(#paint0_linear_2236_123576)"/>
</g>
<path d="M43 19C33.6267 19 26.0002 27.0753 26.0002 36.9888C25.9385 51.49 42.354 63.514 43 64C43 64 60.0615 51.49 59.9998 37C59.9998 27.0753 52.3733 19 43 19ZM43 46C38.3038 46 34.5001 41.9725 34.5001 37C34.5001 32.0275 38.3038 28 43 28C47.6962 28 51.4999 32.0275 51.4999 37C51.4999 41.9725 47.6962 46 43 46Z" fill="white"/>
<defs>
<filter id="filter0_d_2236_123576" x="0" y="0" width="92" height="92" filterUnits="userSpaceOnUse" color-interpolation-filters="sRGB">
<feFlood flood-opacity="0" result="BackgroundImageFix"/>
<feColorMatrix in="SourceAlpha" type="matrix" values="0 0 0 0 0 0 0 0 0 0 0 0 0 0 0 0 0 0 127 0" result="hardAlpha"/>
<feOffset dx="4" dy="4"/>
<feGaussianBlur stdDeviation="5"/>
<feComposite in2="hardAlpha" operator="out"/>
<feColorMatrix type="matrix" values="0 0 0 0 0 0 0 0 0 0 0 0 0 0 0 0 0 0 0.47 0"/>
<feBlend mode="normal" in2="BackgroundImageFix" result="effect1_dropShadow_2236_123576"/>
<feBlend mode="normal" in="SourceGraphic" in2="effect1_dropShadow_2236_123576" result="shape"/>
</filter>
<linearGradient id="paint0_linear_2236_123576" x1="6" y1="42" x2="78" y2="42" gradientUnits="userSpaceOnUse">
<stop stop-color="#910000"/>
<stop offset="1" stop-color="#E25858"/>
</linearGradient>
</defs>
</svg>
