<svg width="21" height="23" viewBox="0 0 21 23" fill="none" xmlns="http://www.w3.org/2000/svg">
<path fill-rule="evenodd" clip-rule="evenodd" d="M12.6363 14.4179C15.6185 12.4196 16.4162 8.38206 14.4179 5.39979C12.4197 2.41753 8.38214 1.61985 5.39987 3.61813C2.4176 5.6164 1.61992 9.65393 3.6182 12.6362C5.61648 15.6185 9.65401 16.4161 12.6363 14.4179ZM12.0796 13.5871C14.6031 11.8963 15.278 8.4799 13.5872 5.95644C11.8963 3.43298 8.47997 2.75802 5.95652 4.44887C3.43306 6.13973 2.7581 9.5561 4.44895 12.0796C6.1398 14.603 9.55617 15.278 12.0796 13.5871Z" fill="#C5C5C5"/>
<rect x="11.6641" y="13.8652" width="1" height="6" transform="rotate(-33.8242 11.6641 13.8652)" fill="#C5C5C5"/>
</svg>
