<svg width="36" height="51" viewBox="0 0 36 51" fill="none" xmlns="http://www.w3.org/2000/svg">
<circle cx="18" cy="43" r="7.5" fill="white" stroke="black"/>
<circle cx="18" cy="43" r="3" fill="black"/>
<path fill-rule="evenodd" clip-rule="evenodd" d="M30.7693 5.22969C27.4234 1.91128 22.8493 0.0210445 18.0634 4.19076e-05C8.13172 -0.0209607 0.0423527 7.85502 0 17.6212C0.169411 22.3048 1.79999 26.7994 4.6588 30.5378C7.91996 34.8434 11.9435 38.5398 16.4964 41.4802C17.3223 42.1733 18.5293 42.1733 19.3552 41.4802C22.4258 39.5479 25.2422 37.2587 27.7834 34.6753C32.2728 30.0968 35.8728 24.237 35.9998 17.8733V17.7682C36.021 13.0847 34.1363 8.56911 30.7693 5.22969Z" fill="#EA4335"/>
<circle cx="18.5" cy="18.5" r="6.5" fill="#A60D0D"/>
</svg>
