<svg width="17" height="23" viewBox="0 0 17 23" fill="none" xmlns="http://www.w3.org/2000/svg">
<path fill-rule="evenodd" clip-rule="evenodd" d="M6.13333 6.89917H4C1.79086 6.89917 0 8.69003 0 10.8992V18.9992C0 21.2083 1.79086 22.9992 4 22.9992H12.1C14.3091 22.9992 16.1 21.2083 16.1 18.9992V10.8992C16.1 8.69003 14.3091 6.89917 12.1 6.89917H10.7333V8.4325H12.5667C13.6712 8.4325 14.5667 9.32793 14.5667 10.4325V19.4658C14.5667 20.5704 13.6712 21.4658 12.5667 21.4658H3.53333C2.42876 21.4658 1.53333 20.5704 1.53333 19.4658V10.4325C1.53333 9.32793 2.42876 8.4325 3.53333 8.4325H6.13333V6.89917Z" fill="white"/>
<path d="M9.17082 11.5034C9.1714 11.9268 8.82863 12.2705 8.40521 12.2711C7.98179 12.2717 7.63807 11.9289 7.63749 11.5055L7.62711 3.93785C7.62673 3.66171 7.85028 3.43755 8.12642 3.43717L8.65975 3.43643C8.93589 3.43606 9.16006 3.65961 9.16044 3.93575L9.17082 11.5034Z" fill="white"/>
<path d="M7.56685 1.5C7.95175 0.833335 8.914 0.833333 9.2989 1.5L10.2227 3.1C10.6076 3.76666 10.1264 4.6 9.35664 4.6H7.50912C6.73932 4.6 6.25819 3.76667 6.64309 3.1L7.56685 1.5Z" fill="white"/>
</svg>
