<svg width="38" height="42" viewBox="0 0 38 42" fill="none" xmlns="http://www.w3.org/2000/svg">
<path fill-rule="evenodd" clip-rule="evenodd" d="M13.6786 27.9453C13.6439 28.1915 13.626 28.4431 13.626 28.6989C13.626 31.6481 16.0114 34.0389 18.954 34.0389C21.8966 34.0389 24.282 31.6481 24.282 28.6989C24.282 28.4431 24.2641 28.1915 24.2294 27.9453H37.158V39.8239C37.158 40.5612 36.5616 41.1589 35.826 41.1589H2.082C1.34636 41.1589 0.75 40.5612 0.75 39.8239V27.9453H13.6786Z" fill="white"/>
<path fill-rule="evenodd" clip-rule="evenodd" d="M24.726 27.8106C24.726 31.0056 22.1418 33.5956 18.954 33.5956C15.7662 33.5956 13.182 31.0056 13.182 27.8106C13.182 27.7071 13.1847 27.6042 13.1901 27.5021H0.75L4.99484 14.9229C5.17783 14.3806 5.68544 14.0156 6.25662 14.0156H31.6514C32.2226 14.0156 32.7302 14.3806 32.9132 14.9229L37.158 27.5021H24.7179C24.7233 27.6042 24.726 27.7071 24.726 27.8106Z" fill="white"/>
<path fill-rule="evenodd" clip-rule="evenodd" d="M23.8775 28.2343C23.8775 30.7031 21.6715 33.1495 18.9502 33.1495C16.2289 33.1495 14.0229 30.7031 14.0229 28.2343C14.0229 28.1543 14.0252 27.6298 14.0298 27.5509H4.74219L8.36583 18.7206C8.52205 18.3016 8.95537 18.0195 9.44296 18.0195H28.4574C28.945 18.0195 29.3783 18.3016 29.5345 18.7206L33.1582 27.5509H23.8706C23.8752 27.6298 23.8775 28.1543 23.8775 28.2343Z" fill="#E8F0FE"/>
<path fill-rule="evenodd" clip-rule="evenodd" d="M1.30469 27.592V39.3791C1.30469 39.8092 1.65256 40.1578 2.08169 40.1578H35.8257C36.2548 40.1578 36.6027 39.8092 36.6027 39.3791V27.592L32.3871 15.0996C32.2804 14.7832 31.9843 14.5703 31.6511 14.5703H6.25631C5.92312 14.5703 5.62702 14.7832 5.52027 15.0996L1.30469 27.592Z" stroke="url(#paint0_linear_2951_126903)" stroke-width="2.5"/>
<path d="M6.96914 27.3633C8.71698 27.3633 10.6032 27.3633 12.6279 27.3633C13.4609 27.3633 13.4609 27.95 13.4609 28.2533C13.4609 31.2025 15.9013 33.5933 18.9115 33.5933C21.9218 33.5933 24.3621 31.2025 24.3621 28.2533C24.3621 27.95 24.3621 27.3633 25.1952 27.3633H36.2731M3.67188 27.3633H4.74914H3.67188Z" stroke="url(#paint1_linear_2951_126903)" stroke-width="2.5" stroke-linecap="round" stroke-linejoin="round"/>
<path d="M30.101 3.91472L25.1728 9.45636M18.557 2V9.45636V2ZM6.96875 3.91472L11.897 9.45636L6.96875 3.91472Z" stroke="#01796F" stroke-width="2.5" stroke-linecap="round" stroke-linejoin="round"/>
<defs>
<linearGradient id="paint0_linear_2951_126903" x1="1.30469" y1="27.3641" x2="36.6027" y2="27.3641" gradientUnits="userSpaceOnUse">
<stop stop-color="#01796F"/>
<stop offset="1" stop-color="#F8C92C"/>
</linearGradient>
<linearGradient id="paint1_linear_2951_126903" x1="3.67187" y1="30.4783" x2="36.2731" y2="30.4783" gradientUnits="userSpaceOnUse">
<stop stop-color="#01796F"/>
<stop offset="1" stop-color="#F8C92C"/>
</linearGradient>
</defs>
</svg>
