<?xml version="1.0" encoding="UTF-8"?>
<!DOCTYPE svg PUBLIC "-//W3C//DTD SVG 1.1//EN" "http://www.w3.org/Graphics/SVG/1.1/DTD/svg11.dtd">
<!-- Creator: CorelDRAW -->
<svg xmlns="http://www.w3.org/2000/svg" xml:space="preserve" width="135.479mm" height="135.509mm" version="1.1" style="shape-rendering:geometricPrecision; text-rendering:geometricPrecision; image-rendering:optimizeQuality; fill-rule:evenodd; clip-rule:evenodd"
viewBox="0 0 13116.02 13118.91"
 xmlns:xlink="http://www.w3.org/1999/xlink"
 xmlns:xodm="http://www.corel.com/coreldraw/odm/2003">
 <defs>
  <style type="text/css">
   <![CDATA[
    .fil0 {fill:#424242}
   ]]>
  </style>
 </defs>
 <g id="Layer_x0020_1">
  <metadata id="CorelCorpID_0Corel-Layer"/>
  <path class="fil0" d="M2219.95 3624.32l4337.46 -2136.14c81.84,0 1906.18,937.59 2163.04,1066.01 193.23,96.62 2022.08,1034.64 2174.42,1070.13 -94.68,129.22 -1956.08,1012.19 -2140.27,1104.29 -248.86,124.42 -2108.41,1081.52 -2197.19,1081.52 -78.29,0 -2809.75,-1387.8 -3267.32,-1616.59 -181.07,-90.53 -990.98,-461.17 -1070.13,-569.22zm-2219.95 -68.3c0,536.3 191.64,575 603.54,796.74l830.89 432.78c575.67,287.83 1112.61,573.38 1696.28,865.21l2515.51 1275.5c1128.29,631.54 967.16,426.94 2641.63,-410.29l3369.78 -1719.04c559.11,-279.55 1457.2,-579.55 1457.2,-1104.29 0,-469.99 -223.12,-573.26 -603.36,-762.76 -294.48,-146.78 -547.59,-275.01 -842.59,-421.08 -1348.58,-667.76 -2792.01,-1447.43 -4155.17,-2129.02 -1003.33,-501.66 -898.21,-507.17 -1889.81,-11.39l-5391.5 2771.11c-83.68,68.95 -232.39,276.35 -232.39,416.52z"/>
  <path class="fil0" d="M-0 6459.04c0,559.21 382.39,656.81 1024.15,990.88 143.87,74.89 277.69,138.18 433.05,215.86l4177.82 2174.67c1191.71,591.04 881.98,457.16 2242.85,-216.69 1529.57,-757.39 3134.42,-1660.91 4633.53,-2402.03 137.3,-67.88 308.99,-143.8 407.19,-241.71 401.18,-400 156.76,-1121.13 -425.11,-1161.54 -292.42,-20.3 -2899.64,1427.85 -3374.58,1665.15 -287.76,143.78 -538.81,286.72 -831.06,432.62 -2046.35,1021.52 -1402.62,1024.63 -3028.23,216.27l-830.68 -432.99c-156.22,-78.05 -286.49,-142.98 -433.04,-215.86l-2493.16 -1297.85c-179.52,-89.69 -669.2,-382.05 -881.4,-367.32 -299.09,20.77 -621.34,299.87 -621.34,640.56z"/>
  <path class="fil0" d="M-0 9362.45c0,559.21 382.39,656.81 1024.15,990.88 143.87,74.89 277.69,138.18 433.05,215.86l4177.82 2174.67c1191.71,591.04 881.98,457.16 2242.85,-216.69 1529.57,-757.39 3134.42,-1660.91 4633.53,-2402.03 137.3,-67.88 308.99,-143.8 407.19,-241.71 401.18,-400 156.76,-1121.13 -425.11,-1161.54 -292.42,-20.3 -2899.64,1427.85 -3374.58,1665.15 -287.76,143.78 -538.81,286.72 -831.06,432.62 -2046.35,1021.52 -1402.62,1024.63 -3028.23,216.27l-830.68 -432.99c-156.22,-78.05 -286.49,-142.98 -433.04,-215.86l-2493.16 -1297.85c-179.52,-89.69 -669.2,-382.05 -881.4,-367.32 -299.09,20.77 -621.34,299.87 -621.34,640.56z"/>
 </g>
</svg>
