<?xml version="1.0" encoding="UTF-8"?>
<!DOCTYPE svg PUBLIC "-//W3C//DTD SVG 1.1//EN" "http://www.w3.org/Graphics/SVG/1.1/DTD/svg11.dtd">
<!-- Creator: CorelDRAW -->
<svg xmlns="http://www.w3.org/2000/svg" xml:space="preserve" width="119.239mm" height="119.239mm" version="1.1" style="shape-rendering:geometricPrecision; text-rendering:geometricPrecision; image-rendering:optimizeQuality; fill-rule:evenodd; clip-rule:evenodd"
viewBox="0 0 11923.88 11923.88"
 xmlns:xlink="http://www.w3.org/1999/xlink"
 xmlns:xodm="http://www.corel.com/coreldraw/odm/2003">
 <defs>
  <style type="text/css">
   <![CDATA[
    .fil0 {fill:#464646}
   ]]>
  </style>
 </defs>
 <g id="Layer_x0020_1">
  <metadata id="CorelCorpID_0Corel-Layer"/>
  <g id="_105553448254176">
   <path class="fil0" d="M2681.11 6138.33c0,-852.75 121.26,-1405.19 599.8,-2081.31 281.88,-398.25 805.39,-863.7 1260.04,-1069.27 1217.22,-550.37 2476.49,-364.56 3529.42,445.41 12.21,9.39 64.78,55.85 76.14,67.04l223.07 235.49c282.17,266.51 510.36,635.07 652.25,1005.98l120.01 374.13c202.71,683.94 121.05,1437.96 -125.25,2066.59 -71.06,181.34 -106.33,235.2 -196.82,402.52l-162.27 265.66c-139.16,207.1 -496.94,568.66 -687.36,717.28l-362.07 239.76c-179.29,97.84 -228.38,128.65 -400,198.65 -490.57,200.08 -975.34,278.88 -1556.76,234.89 -638.75,-48.32 -1296.01,-348.51 -1776.45,-728.42l-38.24 -32.22c-656.15,-597.9 -1155.51,-1419.29 -1155.51,-2342.18zm2786.94 -4409.72c-864.45,0 -1955.31,632.09 -2531.33,1208.11 -576.02,576.02 -1208.11,1666.88 -1208.11,2531.33l-1728.61 0 0 987.78 1763.71 0c-145.8,377.46 326.5,1335.6 540.13,1719.62l385.12 535.46c193.09,217.34 230.95,284.17 476.44,476.35l436.54 337.88c473.61,325.09 1287.42,670.13 1865.93,670.13l0.19 1728.61 987.77 0 0 -1728.61c861,0 1949.91,-626.69 2531.33,-1208.11 581.42,-581.42 1208.11,-1670.33 1208.11,-2531.33l1728.61 0 0 -987.78c-2648.27,0 -1264.59,291.16 -2092.72,-1327.41l-94.23 -187.99c-138.16,-284.7 -338.4,-532.97 -534.38,-767.93 -281.69,-337.74 -176.13,-214.95 -491.87,-495.76 -464.16,-412.81 -1062.75,-708.72 -1676.1,-863.71 -226.29,-57.19 -306.42,-96.64 -578.75,-96.64l0 -1728.61 -987.78 0 0 1728.61z"/>
   <path class="fil0" d="M3492.5 5961.94c0,106.29 14.18,197.28 23.99,258 103.46,639.87 222.1,974.82 707.83,1481.13 1721.29,1794.22 4903.38,15.2 4071.1,-2515.75 -32.81,-99.76 -43.15,-137.83 -87.01,-230.2 -157.37,-331.39 -347.71,-602.08 -650.17,-866.49 -50.3,-43.97 -34.74,-30.8 -78.76,-62.27 -8.45,-6.04 -33.5,-22.3 -42.18,-28.19l-64.11 -43.13c-142.48,-98.88 -224.4,-161.16 -394.01,-239.63l-512.17 -157.35c-493.37,-85 -777.73,-104.36 -1283.04,70.4l-233.59 86.95c-597.8,271.21 -1089.63,797.47 -1304.14,1417.72l-81.43 265.77c-32.8,149.5 -72.31,392.22 -72.31,563.04z"/>
  </g>
 </g>
</svg>
