<svg width="39" height="47" viewBox="0 0 39 47" fill="none" xmlns="http://www.w3.org/2000/svg">
<path d="M32.9354 32.8801L19.5 46.2935L6.0646 32.8801C3.40749 30.2273 1.59808 26.8476 0.865041 23.1683C0.132004 19.489 0.508241 15.6753 1.94621 12.2095C3.38418 8.74365 5.81934 5.78121 8.94388 3.69688C12.0684 1.61256 15.742 0.5 19.5 0.5C23.258 0.5 26.9316 1.61256 30.0561 3.69688C33.1807 5.78121 35.6158 8.74365 37.0538 12.2095C38.4918 15.6753 38.868 19.489 38.135 23.1683C37.4019 26.8476 35.5925 30.2273 32.9354 32.8801ZM19.5 28.6203C21.9309 28.6203 24.2624 27.6563 25.9815 25.9399C27.7007 24.2236 28.6667 21.8955 28.6667 19.4679C28.6667 17.0402 27.7007 14.7122 25.9815 12.9958C24.2624 11.2795 21.9309 10.3154 19.5 10.3154C17.0691 10.3154 14.7376 11.2795 13.0185 12.9958C11.2993 14.7122 10.3333 17.0402 10.3333 19.4679C10.3333 21.8955 11.2993 24.2236 13.0185 25.9399C14.7376 27.6563 17.0691 28.6203 19.5 28.6203ZM19.5 23.2941C18.4831 23.2941 17.508 22.8908 16.7891 22.1731C16.0703 21.4555 15.6667 20.4824 15.6667 19.4679C15.6667 18.4534 16.0703 17.4802 16.7891 16.7626C17.508 16.045 18.4831 15.6416 19.5 15.6416C20.5169 15.6416 21.492 16.045 22.2109 16.7626C22.9297 17.4802 23.3333 18.4534 23.3333 19.4679C23.3333 20.4824 22.9297 21.4555 22.2109 22.1731C21.492 22.8908 20.5169 23.2941 19.5 23.2941Z" fill="white" stroke="#B9EFFF"/>
<circle cx="19" cy="19" r="6" fill="#F5F5F5"/>
<path d="M31.1673 31.2842L19.5 43L7.83267 31.2842C5.52513 28.967 3.95367 26.0148 3.31704 22.8008C2.6804 19.5869 3.00716 16.2555 4.25601 13.228C5.50487 10.2005 7.61971 7.61285 10.3331 5.79229C13.0465 3.97172 16.2366 3 19.5 3C22.7634 3 25.9535 3.97172 28.6669 5.79229C31.3803 7.61285 33.4951 10.2005 34.744 13.228C35.9928 16.2555 36.3196 19.5869 35.683 22.8008C35.0463 26.0148 33.4749 28.967 31.1673 31.2842V31.2842ZM19.5 26.9322C21.4449 26.9322 23.3102 26.1564 24.6854 24.7754C26.0607 23.3944 26.8333 21.5214 26.8333 19.5684C26.8333 17.6154 26.0607 15.7424 24.6854 14.3614C23.3102 12.9804 21.4449 12.2046 19.5 12.2046C17.5551 12.2046 15.6898 12.9804 14.3146 14.3614C12.9393 15.7424 12.1667 17.6154 12.1667 19.5684C12.1667 21.5214 12.9393 23.3944 14.3146 24.7754C15.6898 26.1564 17.5551 26.9322 19.5 26.9322V26.9322ZM19.5 23.2503C18.5275 23.2503 17.5949 22.8624 16.9073 22.1719C16.2196 21.4814 15.8333 20.5449 15.8333 19.5684C15.8333 18.5919 16.2196 17.6554 16.9073 16.9649C17.5949 16.2744 18.5275 15.8865 19.5 15.8865C20.4725 15.8865 21.4051 16.2744 22.0927 16.9649C22.7804 17.6554 23.1667 18.5919 23.1667 19.5684C23.1667 20.5449 22.7804 21.4814 22.0927 22.1719C21.4051 22.8624 20.4725 23.2503 19.5 23.2503Z" fill="#00BDFF"/>
</svg>
