<svg width="51" height="50" viewBox="0 0 51 50" fill="none" xmlns="http://www.w3.org/2000/svg">
<path d="M39.5415 38H11.4529C9.74747 38 8.44336 36.7 8.44336 35V17C8.44336 15.3 9.74747 14 11.4529 14H17.4718C17.6725 14 17.9734 13.8 18.0737 13.7L19.1772 11.5C19.5785 10.7 20.5816 10.1 21.4845 10.1H29.5098C30.4127 10.1 31.4158 10.7 31.8171 11.5L32.9206 13.7C33.0209 13.9 33.3218 14 33.5225 14H39.5415C41.2468 14 42.551 15.3 42.551 17V35C42.551 36.7 41.2468 38 39.5415 38ZM11.4529 16C10.851 16 10.4497 16.4 10.4497 17V35C10.4497 35.6 10.851 36 11.4529 36H39.5415C40.1434 36 40.5446 35.6 40.5446 35V17C40.5446 16.4 40.1434 16 39.5415 16H33.5225C32.6196 16 31.6165 15.4 31.2152 14.6L30.1117 12.4C30.0114 12.2 29.7104 12 29.5098 12H21.4845C21.2839 12 20.9829 12.2 20.8826 12.3L19.7791 14.5C19.3779 15.4 18.3747 16 17.4718 16H11.4529Z" fill="#929292"/>
<path d="M25.4972 34C20.4814 34 16.4688 30 16.4688 25C16.4688 20 20.4814 16 25.4972 16C30.5131 16 34.5257 20 34.5257 25C34.5257 30 30.5131 34 25.4972 34ZM25.4972 18C21.5849 18 18.4751 21.1 18.4751 25C18.4751 28.9 21.5849 32 25.4972 32C29.4096 32 32.5194 28.9 32.5194 25C32.5194 21.1 29.4096 18 25.4972 18Z" fill="#929292"/>
<path d="M35.5286 19C36.0826 19 36.5317 18.5523 36.5317 18C36.5317 17.4477 36.0826 17 35.5286 17C34.9745 17 34.5254 17.4477 34.5254 18C34.5254 18.5523 34.9745 19 35.5286 19Z" fill="#929292"/>
<path d="M12.4551 12H16.4677V13H12.4551V12ZM25.4962 21V20C22.6874 20 20.4804 22.2 20.4804 25H21.4836C21.4836 22.8 23.2893 21 25.4962 21Z" fill="#929292"/>
</svg>
