<svg width="28" height="28" viewBox="0 0 28 28" fill="none" xmlns="http://www.w3.org/2000/svg">
<path d="M11.8371 3.78937C12.0114 3.35853 12.3104 2.98957 12.6957 2.72977C13.0811 2.46997 13.5353 2.33118 14.0001 2.33118C14.4648 2.33118 14.919 2.46997 15.3044 2.72977C15.6897 2.98957 15.9887 3.35853 16.1631 3.78937C17.8883 4.26383 19.41 5.29152 20.4946 6.71459C21.5792 8.13767 22.1666 9.87743 22.1667 11.6667V17.1465L24.3041 20.3525C24.4213 20.5282 24.4886 20.7325 24.4989 20.9434C24.5091 21.1544 24.4619 21.3642 24.3622 21.5504C24.2626 21.7367 24.1143 21.8923 23.9331 22.0009C23.7519 22.1094 23.5446 22.1667 23.3334 22.1667H18.0426C17.9021 23.1387 17.4161 24.0275 16.6737 24.6703C15.9313 25.3131 14.9821 25.667 14.0001 25.667C13.018 25.667 12.0688 25.3131 11.3264 24.6703C10.584 24.0275 10.098 23.1387 9.95755 22.1667H4.66672C4.4555 22.1667 4.24824 22.1094 4.06704 22.0009C3.88584 21.8923 3.73751 21.7367 3.63787 21.5504C3.53822 21.3642 3.491 21.1544 3.50125 20.9434C3.5115 20.7325 3.57883 20.5282 3.69605 20.3525L5.83339 17.1465V11.6667C5.83339 7.90537 8.37672 4.7367 11.8371 3.78937ZM12.3504 22.1667C12.4709 22.5081 12.6943 22.8038 12.9899 23.0129C13.2854 23.222 13.6386 23.3343 14.0006 23.3343C14.3627 23.3343 14.7158 23.222 15.0114 23.0129C15.307 22.8038 15.5304 22.5081 15.6509 22.1667H12.3492H12.3504ZM14.0001 5.83337C12.453 5.83337 10.9692 6.44795 9.87526 7.54191C8.7813 8.63587 8.16672 10.1196 8.16672 11.6667V17.5C8.16677 17.7305 8.09857 17.9558 7.97072 18.1475L6.84722 19.8334H21.1517L20.0282 18.1475C19.9008 17.9557 19.833 17.7304 19.8334 17.5V11.6667C19.8334 10.1196 19.2188 8.63587 18.1248 7.54191C17.0309 6.44795 15.5471 5.83337 14.0001 5.83337Z" fill="black"/>
</svg>
