<svg width="195" height="179" viewBox="0 0 195 179" fill="none" xmlns="http://www.w3.org/2000/svg">
<circle cx="88.8303" cy="88.1818" r="88.1818" fill="#CDD1E0"/>
<circle cx="88.1056" cy="88.3321" r="51.7306" fill="#F1F1F1" stroke="#01796F" stroke-width="2"/>
<circle cx="88.11" cy="88.3317" r="36.6647" fill="#DCE8FF" stroke="#01796F" stroke-width="2"/>
<path d="M88.114 60.6411C88.114 60.088 87.6653 59.6378 87.1125 59.6571C80.1924 59.8986 73.5795 62.6365 68.5075 67.3836C63.4356 72.1307 60.2666 78.5482 59.5682 85.4372C59.5125 85.9875 59.932 86.465 60.4839 86.5016C61.0358 86.5381 61.5109 86.1199 61.5681 85.5698C62.2319 79.188 65.1754 73.2457 69.8762 68.846C74.577 64.4462 80.7009 61.9019 87.1126 61.6614C87.6653 61.6406 88.114 61.1942 88.114 60.6411Z" fill="#01796F"/>
<rect x="128.578" y="144.25" width="16.7431" height="51.1437" rx="8.37155" transform="rotate(-45 128.578 144.25)" fill="#F1F1F1" stroke="#01796F" stroke-width="2"/>
<rect x="146.406" y="148.391" width="2.39374" height="20.0708" rx="1.19687" transform="rotate(-45 146.406 148.391)" fill="#5284CF"/>
<rect x="126.508" y="132.078" width="2.45718" height="9.82874" transform="rotate(-45 126.508 132.078)" fill="#01796F"/>
<rect x="152.578" y="82.1455" width="24.5718" height="2.45718" rx="1.22859" fill="#5284CF"/>
<rect x="0.648438" y="102.471" width="24.5718" height="2.45718" rx="1.22859" fill="#5284CF"/>
<rect x="182.07" y="82.1455" width="12.2859" height="2.45718" rx="1.22859" fill="#5284CF"/>
<rect x="158.727" y="91.1602" width="12.2859" height="2.45718" rx="1.22859" fill="#5284CF"/>
<rect x="6.78906" y="111.487" width="12.2859" height="2.45718" rx="1.22859" fill="#5284CF"/>
</svg>
