<svg width="17" height="17" viewBox="0 0 17 17" fill="none" xmlns="http://www.w3.org/2000/svg">
<path d="M15.3564 10.3876L14.269 9.45796C14.3205 9.14253 14.3471 8.82046 14.3471 8.49839C14.3471 8.17632 14.3205 7.85425 14.269 7.53882L15.3564 6.60913C15.4385 6.53892 15.4972 6.4454 15.5247 6.34101C15.5523 6.23663 15.5475 6.12632 15.5108 6.02476L15.4959 5.98159C15.1965 5.14492 14.7483 4.36931 14.1728 3.69224L14.1429 3.65737C14.0731 3.57528 13.98 3.51627 13.876 3.48812C13.772 3.45996 13.6618 3.46399 13.5602 3.49966L12.2105 3.97944C11.7124 3.57104 11.1563 3.24897 10.5553 3.02319L10.2946 1.61206C10.275 1.50588 10.2235 1.4082 10.147 1.33199C10.0704 1.25578 9.97257 1.20465 9.86631 1.1854L9.82149 1.1771C8.95655 1.02104 8.04678 1.02104 7.18184 1.1771L7.13702 1.1854C7.03076 1.20465 6.93288 1.25578 6.85637 1.33199C6.77987 1.4082 6.72836 1.50588 6.70869 1.61206L6.44639 3.02983C5.85021 3.25566 5.29502 3.57756 4.80284 3.98276L3.44317 3.49966C3.34151 3.4637 3.23132 3.45953 3.12723 3.4877C3.02315 3.51588 2.9301 3.57505 2.86045 3.65737L2.83057 3.69224C2.25573 4.36979 1.80754 5.14527 1.50743 5.98159L1.49248 6.02476C1.41778 6.23228 1.4792 6.4647 1.64688 6.60913L2.74756 7.54878C2.6961 7.86089 2.67119 8.17964 2.67119 8.49673C2.67119 8.81548 2.6961 9.13423 2.74756 9.44468L1.64688 10.3843C1.56486 10.4545 1.50616 10.5481 1.47858 10.6524C1.451 10.7568 1.45585 10.8671 1.49248 10.9687L1.50743 11.0119C1.80791 11.8486 2.25284 12.6206 2.83057 13.3012L2.86045 13.3361C2.93027 13.4182 3.02332 13.4772 3.12734 13.5053C3.23137 13.5335 3.34148 13.5295 3.44317 13.4938L4.80284 13.0107C5.29756 13.4174 5.85039 13.7395 6.44639 13.9636L6.70869 15.3814C6.72836 15.4876 6.77987 15.5853 6.85637 15.6615C6.93288 15.7377 7.03076 15.7888 7.13702 15.8081L7.18184 15.8164C8.05473 15.9732 8.9486 15.9732 9.82149 15.8164L9.86631 15.8081C9.97257 15.7888 10.0704 15.7377 10.147 15.6615C10.2235 15.5853 10.275 15.4876 10.2946 15.3814L10.5553 13.9703C11.156 13.7451 11.7153 13.422 12.2105 13.014L13.5602 13.4938C13.6618 13.5298 13.772 13.5339 13.8761 13.5058C13.9802 13.4776 14.0732 13.4184 14.1429 13.3361L14.1728 13.3012C14.7505 12.6189 15.1954 11.8486 15.4959 11.0119L15.5108 10.9687C15.5855 10.7645 15.5241 10.5321 15.3564 10.3876ZM13.0903 7.73472C13.1318 7.9854 13.1534 8.24272 13.1534 8.50005C13.1534 8.75737 13.1318 9.0147 13.0903 9.26538L12.9808 9.9311L14.2209 10.9919C14.0329 11.4251 13.7956 11.8351 13.5137 12.2138L11.9731 11.6676L11.4518 12.0959C11.055 12.4213 10.6134 12.677 10.1353 12.8563L9.50274 13.0937L9.20557 14.7041C8.73669 14.7572 8.26331 14.7572 7.79444 14.7041L7.49727 13.0904L6.86973 12.8497C6.39659 12.6704 5.95664 12.4147 5.56319 12.091L5.0419 11.661L3.49131 12.2122C3.20909 11.832 2.97334 11.4219 2.78409 10.9903L4.0375 9.91948L3.92959 9.25542C3.88975 9.00806 3.86817 8.75239 3.86817 8.50005C3.86817 8.24604 3.88809 7.99204 3.92959 7.74468L4.0375 7.08062L2.78409 6.00981C2.97168 5.57651 3.20909 5.16812 3.49131 4.78794L5.0419 5.33911L5.56319 4.90913C5.95664 4.5854 6.39659 4.32974 6.86973 4.15044L7.49893 3.91304L7.7961 2.29937C8.2626 2.24624 8.73907 2.24624 9.20723 2.29937L9.5044 3.90972L10.1369 4.14712C10.6134 4.32642 11.0566 4.58208 11.4534 4.90747L11.9747 5.33579L13.5153 4.7896C13.7976 5.16978 14.0333 5.57983 14.2226 6.01147L12.9824 7.07231L13.0903 7.73472ZM8.50332 5.41216C6.88965 5.41216 5.58145 6.72036 5.58145 8.33403C5.58145 9.94771 6.88965 11.2559 8.50332 11.2559C10.117 11.2559 11.4252 9.94771 11.4252 8.33403C11.4252 6.72036 10.117 5.41216 8.50332 5.41216ZM9.81817 9.64888C9.64571 9.82183 9.44077 9.95897 9.21511 10.0524C8.98946 10.1459 8.74756 10.1938 8.50332 10.1934C8.00694 10.1934 7.54043 9.99917 7.18848 9.64888C7.01553 9.47642 6.87839 9.27148 6.78493 9.04582C6.69148 8.82017 6.64357 8.57827 6.64395 8.33403C6.64395 7.83765 6.83819 7.37114 7.18848 7.01919C7.54043 6.66724 8.00694 6.47466 8.50332 6.47466C8.99971 6.47466 9.46621 6.66724 9.81817 7.01919C9.99112 7.19164 10.1283 7.39659 10.2217 7.62224C10.3152 7.84789 10.3631 8.0898 10.3627 8.33403C10.3627 8.83042 10.1685 9.29692 9.81817 9.64888Z" fill="white"/>
</svg>
