<svg width="16" height="17" viewBox="0 0 16 17" fill="none" xmlns="http://www.w3.org/2000/svg">
<path d="M7.5 4.51465C7.5 4.38204 7.44732 4.25486 7.35355 4.1611C7.25979 4.06733 7.13261 4.01465 7 4.01465C6.86739 4.01465 6.74021 4.06733 6.64645 4.1611C6.55268 4.25486 6.5 4.38204 6.5 4.51465V6.51465H4.5C4.36739 6.51465 4.24021 6.56733 4.14645 6.66109C4.05268 6.75486 4 6.88204 4 7.01465C4 7.14726 4.05268 7.27443 4.14645 7.3682C4.24021 7.46197 4.36739 7.51465 4.5 7.51465H6.5V9.51465C6.5 9.64726 6.55268 9.77443 6.64645 9.8682C6.74021 9.96197 6.86739 10.0146 7 10.0146C7.13261 10.0146 7.25979 9.96197 7.35355 9.8682C7.44732 9.77443 7.5 9.64726 7.5 9.51465V7.51465H9.5C9.63261 7.51465 9.75979 7.46197 9.85355 7.3682C9.94732 7.27443 10 7.14726 10 7.01465C10 6.88204 9.94732 6.75486 9.85355 6.66109C9.75979 6.56733 9.63261 6.51465 9.5 6.51465H7.5V4.51465ZM2.5 0.0146484C1.83696 0.0146484 1.20107 0.278041 0.732233 0.746881C0.263392 1.21572 0 1.85161 0 2.51465V11.5146C0 12.1777 0.263392 12.8136 0.732233 13.2824C1.20107 13.7513 1.83696 14.0146 2.5 14.0146H11.5C12.163 14.0146 12.7989 13.7513 13.2678 13.2824C13.7366 12.8136 14 12.1777 14 11.5146V2.51465C14 1.85161 13.7366 1.21572 13.2678 0.746881C12.7989 0.278041 12.163 0.0146484 11.5 0.0146484H2.5ZM1 2.51465C1 2.11682 1.15804 1.73529 1.43934 1.45399C1.72064 1.17268 2.10218 1.01465 2.5 1.01465H11.5C11.8978 1.01465 12.2794 1.17268 12.5607 1.45399C12.842 1.73529 13 2.11682 13 2.51465V11.5146C13 11.9125 12.842 12.294 12.5607 12.5753C12.2794 12.8566 11.8978 13.0146 11.5 13.0146H2.5C2.10218 13.0146 1.72064 12.8566 1.43934 12.5753C1.15804 12.294 1 11.9125 1 11.5146V2.51465ZM5.5 16.0146C4.58371 16.016 3.70367 15.6568 3.05 15.0146H12.5C13.163 15.0146 13.7989 14.7513 14.2678 14.2824C14.7366 13.8136 15 13.1777 15 12.5146V3.06465C15.619 3.69665 16 4.56065 16 5.51465V12.5146C16 13.4429 15.6313 14.3331 14.9749 14.9895C14.3185 15.6459 13.4283 16.0146 12.5 16.0146H5.5Z" fill="#FCFDFF"/>
</svg>
