<svg width="21" height="21" viewBox="0 0 21 21" fill="none" xmlns="http://www.w3.org/2000/svg">
<path d="M17.9673 3.64792C16.0218 1.75606 13.3324 0.729004 10.5858 0.729004C4.74937 0.729004 0.0572569 5.21547 0.114432 10.6749C0.114432 12.4047 0.629416 14.0804 1.48778 15.5939L0 20.729L5.55039 19.3776C7.09535 20.1885 8.8119 20.5669 10.5286 20.5669C16.3079 20.5669 21 16.0803 21 10.621C21 7.97228 19.9127 5.48576 17.9673 3.64792ZM10.5858 18.8912C9.04085 18.8912 7.4959 18.5129 6.17981 17.7562L5.83651 17.594L2.51775 18.4048L3.37602 15.3237L3.14716 14.9994C0.629416 11.1616 1.83107 6.08035 5.95095 3.70193C10.0708 1.32359 15.3923 2.45875 17.9101 6.35063C20.4278 10.2425 19.2261 15.2696 15.1063 17.648C13.7901 18.4588 12.188 18.8912 10.5858 18.8912Z" fill="#003A91"/>
<path d="M8.83984 13.5103H5.54688V11.1548C5.54688 10.2017 5.62891 9.45166 5.79297 8.90479C5.96484 8.3501 6.27734 7.854 6.73047 7.4165C7.18359 6.979 7.76172 6.63525 8.46484 6.38525L9.10938 7.74463C8.45312 7.96338 7.98047 8.26807 7.69141 8.65869C7.41016 9.04932 7.26172 9.56885 7.24609 10.2173H8.83984V13.5103ZM14.3359 13.5103H11.043V11.1548C11.043 10.1938 11.125 9.43994 11.2891 8.89307C11.4609 8.34619 11.7734 7.854 12.2266 7.4165C12.6875 6.979 13.2656 6.63525 13.9609 6.38525L14.6055 7.74463C13.9492 7.96338 13.4766 8.26807 13.1875 8.65869C12.9062 9.04932 12.7578 9.56885 12.7422 10.2173H14.3359V13.5103Z" fill="#003A91"/>
</svg>
