<svg width="86" height="58" viewBox="0 0 86 58" fill="none" xmlns="http://www.w3.org/2000/svg">
<rect width="86" height="58" rx="4" fill="#386BF6"/>
<path d="M22.5676 39.4336H24.9934C26.0637 39.4336 26.8684 39.5938 27.4074 39.9141C27.9465 40.2344 28.216 40.7793 28.216 41.5488C28.216 41.8809 28.1516 42.1797 28.0227 42.4453C27.8977 42.707 27.7141 42.9238 27.4719 43.0957C27.2297 43.2676 26.9309 43.3867 26.5754 43.4531V43.5117C26.9504 43.5703 27.2824 43.6777 27.5715 43.834C27.8605 43.9902 28.0871 44.209 28.2512 44.4902C28.4152 44.7715 28.4973 45.1289 28.4973 45.5625C28.4973 46.0898 28.3742 46.5352 28.1281 46.8984C27.8859 47.2617 27.5422 47.5371 27.0969 47.7246C26.6516 47.9082 26.1242 48 25.5148 48H22.5676V39.4336ZM23.5637 43.1074H25.2043C25.9504 43.1074 26.466 42.9844 26.7512 42.7383C27.0402 42.4922 27.1848 42.1328 27.1848 41.6602C27.1848 41.1719 27.0129 40.8203 26.6691 40.6055C26.3293 40.3906 25.7863 40.2832 25.0402 40.2832H23.5637V43.1074ZM23.5637 43.9453V47.1504H25.3449C26.1066 47.1504 26.6457 47.002 26.9621 46.7051C27.2785 46.4043 27.4367 46 27.4367 45.4922C27.4367 45.168 27.3645 44.8906 27.2199 44.6602C27.0793 44.4297 26.8488 44.2539 26.5285 44.1328C26.2121 44.0078 25.7883 43.9453 25.257 43.9453H23.5637ZM32.7312 41.4727C33.4969 41.4727 34.0652 41.6445 34.4363 41.9883C34.8074 42.332 34.993 42.8809 34.993 43.6348V48H34.284L34.0965 47.0508H34.0496C33.8699 47.2852 33.6824 47.4824 33.4871 47.6426C33.2918 47.7988 33.0652 47.918 32.8074 48C32.5535 48.0781 32.241 48.1172 31.8699 48.1172C31.4793 48.1172 31.1316 48.0488 30.827 47.9121C30.5262 47.7754 30.2879 47.5684 30.1121 47.291C29.9402 47.0137 29.8543 46.6621 29.8543 46.2363C29.8543 45.5957 30.1082 45.1035 30.616 44.7598C31.1238 44.416 31.8973 44.2285 32.9363 44.1973L34.0437 44.1504V43.7578C34.0437 43.2031 33.9246 42.8145 33.6863 42.5918C33.448 42.3691 33.1121 42.2578 32.6785 42.2578C32.3426 42.2578 32.0223 42.3066 31.7176 42.4043C31.4129 42.502 31.1238 42.6172 30.8504 42.75L30.5516 42.0117C30.8406 41.8633 31.1727 41.7363 31.5477 41.6309C31.9227 41.5254 32.3172 41.4727 32.7312 41.4727ZM34.032 44.8359L33.0535 44.877C32.2527 44.9082 31.6883 45.0391 31.3602 45.2695C31.032 45.5 30.868 45.8262 30.868 46.248C30.868 46.6152 30.9793 46.8867 31.202 47.0625C31.4246 47.2383 31.7195 47.3262 32.0867 47.3262C32.657 47.3262 33.1238 47.168 33.4871 46.8516C33.8504 46.5352 34.032 46.0605 34.032 45.4277V44.8359ZM38.9398 50.8828C38.0961 50.8828 37.4457 50.7246 36.9887 50.4082C36.5316 50.0957 36.3031 49.6562 36.3031 49.0898C36.3031 48.6875 36.4301 48.3438 36.684 48.0586C36.9418 47.7734 37.2973 47.584 37.7504 47.4902C37.5824 47.4121 37.4379 47.2949 37.3168 47.1387C37.1996 46.9824 37.141 46.8027 37.141 46.5996C37.141 46.3652 37.2055 46.1602 37.3344 45.9844C37.4672 45.8047 37.6684 45.6328 37.9379 45.4688C37.602 45.332 37.3285 45.1016 37.1176 44.7773C36.9105 44.4492 36.807 44.0684 36.807 43.6348C36.807 43.1738 36.9027 42.7812 37.0941 42.457C37.2855 42.1289 37.5629 41.8789 37.9262 41.707C38.2895 41.5352 38.7289 41.4492 39.2445 41.4492C39.3578 41.4492 39.4711 41.4551 39.5844 41.4668C39.7016 41.4746 39.8129 41.4883 39.9184 41.5078C40.0238 41.5234 40.1156 41.543 40.1937 41.5664H42.3969V42.1934L41.2133 42.3398C41.3305 42.4922 41.4281 42.6758 41.5062 42.8906C41.5844 43.1055 41.6234 43.3438 41.6234 43.6055C41.6234 44.2461 41.4066 44.7559 40.973 45.1348C40.5395 45.5098 39.9437 45.6973 39.1859 45.6973C39.0062 45.6973 38.8227 45.6816 38.6352 45.6504C38.4437 45.7559 38.2973 45.873 38.1957 46.002C38.098 46.1309 38.0492 46.2793 38.0492 46.4473C38.0492 46.5723 38.0863 46.6719 38.1605 46.7461C38.2387 46.8203 38.35 46.875 38.4945 46.9102C38.6391 46.9414 38.8129 46.957 39.016 46.957H40.1469C40.8461 46.957 41.3812 47.1035 41.7523 47.3965C42.1273 47.6895 42.3148 48.1172 42.3148 48.6797C42.3148 49.3906 42.0258 49.9355 41.4477 50.3145C40.8695 50.6934 40.0336 50.8828 38.9398 50.8828ZM38.9691 50.1211C39.5004 50.1211 39.9398 50.0664 40.2875 49.957C40.6391 49.8516 40.9008 49.6973 41.0727 49.4941C41.2484 49.2949 41.3363 49.0566 41.3363 48.7793C41.3363 48.5215 41.2777 48.3262 41.1605 48.1934C41.0434 48.0645 40.8715 47.9785 40.6449 47.9355C40.4184 47.8887 40.141 47.8652 39.8129 47.8652H38.6996C38.4105 47.8652 38.1586 47.9102 37.9437 48C37.7289 48.0898 37.5629 48.2227 37.4457 48.3984C37.3324 48.5742 37.2758 48.793 37.2758 49.0547C37.2758 49.4023 37.4223 49.666 37.7152 49.8457C38.0082 50.0293 38.4262 50.1211 38.9691 50.1211ZM39.2211 44.9883C39.6859 44.9883 40.0355 44.8711 40.2699 44.6367C40.5043 44.4023 40.6215 44.0605 40.6215 43.6113C40.6215 43.1309 40.5023 42.7715 40.2641 42.5332C40.0258 42.291 39.6742 42.1699 39.2094 42.1699C38.7641 42.1699 38.4203 42.2949 38.1781 42.5449C37.9398 42.791 37.8207 43.1523 37.8207 43.6289C37.8207 44.0664 37.9418 44.4023 38.184 44.6367C38.4262 44.8711 38.7719 44.9883 39.2211 44.9883ZM44.7852 41.5781V48H43.8125V41.5781H44.7852ZM44.3105 39.1758C44.4707 39.1758 44.6074 39.2285 44.7207 39.334C44.8379 39.4355 44.8965 39.5957 44.8965 39.8145C44.8965 40.0293 44.8379 40.1895 44.7207 40.2949C44.6074 40.4004 44.4707 40.4531 44.3105 40.4531C44.1426 40.4531 44.002 40.4004 43.8887 40.2949C43.7793 40.1895 43.7246 40.0293 43.7246 39.8145C43.7246 39.5957 43.7793 39.4355 43.8887 39.334C44.002 39.2285 44.1426 39.1758 44.3105 39.1758ZM47.9645 38.8828V43.6172C47.9645 43.7734 47.9586 43.9648 47.9469 44.1914C47.9352 44.4141 47.9254 44.6113 47.9176 44.7832H47.9586C48.0406 44.6816 48.1598 44.5312 48.316 44.332C48.4762 44.1328 48.6109 43.9727 48.7203 43.8516L50.8531 41.5781H51.9957L49.4117 44.3203L52.1832 48H51.0113L48.7437 44.959L47.9645 45.6738V48H46.9977V38.8828H47.9645ZM55.8547 41.4727C56.6203 41.4727 57.1887 41.6445 57.5598 41.9883C57.9309 42.332 58.1164 42.8809 58.1164 43.6348V48H57.4074L57.2199 47.0508H57.173C56.9934 47.2852 56.8059 47.4824 56.6105 47.6426C56.4152 47.7988 56.1887 47.918 55.9309 48C55.677 48.0781 55.3645 48.1172 54.9934 48.1172C54.6027 48.1172 54.2551 48.0488 53.9504 47.9121C53.6496 47.7754 53.4113 47.5684 53.2355 47.291C53.0637 47.0137 52.9777 46.6621 52.9777 46.2363C52.9777 45.5957 53.2316 45.1035 53.7395 44.7598C54.2473 44.416 55.0207 44.2285 56.0598 44.1973L57.1672 44.1504V43.7578C57.1672 43.2031 57.048 42.8145 56.8098 42.5918C56.5715 42.3691 56.2355 42.2578 55.802 42.2578C55.466 42.2578 55.1457 42.3066 54.841 42.4043C54.5363 42.502 54.2473 42.6172 53.9738 42.75L53.675 42.0117C53.9641 41.8633 54.2961 41.7363 54.6711 41.6309C55.0461 41.5254 55.4406 41.4727 55.8547 41.4727ZM57.1555 44.8359L56.177 44.877C55.3762 44.9082 54.8117 45.0391 54.4836 45.2695C54.1555 45.5 53.9914 45.8262 53.9914 46.248C53.9914 46.6152 54.1027 46.8867 54.3254 47.0625C54.548 47.2383 54.843 47.3262 55.2102 47.3262C55.7805 47.3262 56.2473 47.168 56.6105 46.8516C56.9738 46.5352 57.1555 46.0605 57.1555 45.4277V44.8359ZM63.3113 41.4609C64.073 41.4609 64.6492 41.6484 65.0398 42.0234C65.4305 42.3945 65.6258 42.9922 65.6258 43.8164V48H64.6648V43.8809C64.6648 43.3457 64.5418 42.9453 64.2957 42.6797C64.0535 42.4141 63.6805 42.2812 63.1766 42.2812C62.4656 42.2812 61.9656 42.4824 61.6766 42.8848C61.3875 43.2871 61.243 43.8711 61.243 44.6367V48H60.2703V41.5781H61.0555L61.202 42.5039H61.2547C61.3914 42.2773 61.5652 42.0879 61.7762 41.9355C61.9871 41.7793 62.2234 41.6621 62.4852 41.584C62.7469 41.502 63.0223 41.4609 63.3113 41.4609Z" fill="white"/>
<path fill-rule="evenodd" clip-rule="evenodd" d="M42.1333 15.8992H40C37.7909 15.8992 36 17.69 36 19.8992V27.9992C36 30.2083 37.7909 31.9992 40 31.9992H48.1C50.3091 31.9992 52.1 30.2083 52.1 27.9992V19.8992C52.1 17.69 50.3091 15.8992 48.1 15.8992H46.7333V17.4325H48.5667C49.6712 17.4325 50.5667 18.3279 50.5667 19.4325V28.4658C50.5667 29.5704 49.6712 30.4658 48.5667 30.4658H39.5333C38.4288 30.4658 37.5333 29.5704 37.5333 28.4658V19.4325C37.5333 18.3279 38.4288 17.4325 39.5333 17.4325H42.1333V15.8992Z" fill="white"/>
<path d="M45.1708 20.5034C45.1714 20.9268 44.8286 21.2705 44.4052 21.2711C43.9818 21.2717 43.6381 20.9289 43.6375 20.5055L43.6271 12.9379C43.6267 12.6617 43.8503 12.4375 44.1264 12.4372L44.6598 12.4364C44.9359 12.4361 45.1601 12.6596 45.1604 12.9357L45.1708 20.5034Z" fill="white"/>
<path d="M43.5678 10.5C43.9527 9.83333 44.915 9.83333 45.2999 10.5L46.2236 12.1C46.6085 12.7667 46.1274 13.6 45.3576 13.6H43.5101C42.7403 13.6 42.2592 12.7667 42.6441 12.1L43.5678 10.5Z" fill="white"/>
</svg>
