<svg width="72" height="72" viewBox="0 0 72 72" fill="none" xmlns="http://www.w3.org/2000/svg">
<rect width="72" height="72" rx="36" fill="#9D9D9D" fill-opacity="0.08"/>
<path d="M40.6 38.0001C40.4 37.9001 39.1 37.3001 38.9 37.2001C38.7 37.1001 38.5 37.1001 38.3 37.3001C38.1 37.5001 37.7 38.1001 37.5 38.3001C37.4 38.5001 37.2 38.5001 37 38.4001C36.3 38.1001 35.6 37.7001 35 37.2001C34.5 36.7001 34 36.1001 33.6 35.5001C33.5 35.3001 33.6 35.1001 33.7 35.0001C33.8 34.9001 33.9 34.7001 34.1 34.6001C34.2 34.5001 34.3 34.3001 34.3 34.2001C34.4 34.1001 34.4 33.9001 34.3 33.8001C34.2 33.7001 33.7 32.5001 33.5 32.0001C33.4 31.3001 33.2 31.3001 33 31.3001C32.9 31.3001 32.7 31.3001 32.5 31.3001C32.3 31.3001 32 31.5001 31.9 31.6001C31.3 32.2001 31 32.9001 31 33.7001C31.1 34.6001 31.4 35.5001 32 36.3001C33.1 37.9001 34.5 39.2001 36.2 40.0001C36.7 40.2001 37.1 40.4001 37.6 40.5001C38.1 40.7001 38.6 40.7001 39.2 40.6001C39.9 40.5001 40.5 40.0001 40.9 39.4001C41.1 39.0001 41.1 38.6001 41 38.2001C41 38.2001 40.8 38.1001 40.6 38.0001ZM43.1 28.9001C39.2 25.0001 32.9 25.0001 29 28.9001C25.8 32.1001 25.2 37.0001 27.4 40.9001L26 46.0001L31.3 44.6001C32.8 45.4001 34.4 45.8001 36 45.8001C41.5 45.8001 45.9 41.4001 45.9 35.9001C46 33.3001 44.9 30.8001 43.1 28.9001ZM40.4 42.9001C39.1 43.7001 37.6 44.2001 36 44.2001C34.5 44.2001 33.1 43.8001 31.8 43.1001L31.5 42.9001L28.4 43.7001L29.2 40.7001L29 40.4001C26.6 36.4001 27.8 31.4001 31.7 28.9001C35.6 26.4001 40.6 27.7001 43 31.5001C45.4 35.4001 44.3 40.5001 40.4 42.9001Z" fill="#003A91"/>
</svg>
