<svg width="72" height="72" viewBox="0 0 72 72" fill="none" xmlns="http://www.w3.org/2000/svg">
<rect width="72" height="72" rx="36" fill="#9D9D9D" fill-opacity="0.08"/>
<path d="M46.9924 27.9502C46.9925 27.7736 46.9458 27.6001 46.8571 27.4474C46.7683 27.2946 46.6407 27.1682 46.4871 27.0808C46.3336 26.9935 46.1597 26.9484 45.983 26.9502C45.8064 26.9519 45.6334 27.0005 45.4816 27.0908C44.8963 27.4392 44.2662 27.706 43.6086 27.8838C42.6696 27.0781 41.472 26.6371 40.2347 26.6416C38.8772 26.6432 37.5735 27.1722 36.5989 28.117C35.6242 29.0618 35.0548 30.3484 35.011 31.7051C32.335 31.2784 29.9097 29.8816 28.1975 27.7813C28.0943 27.6561 27.9626 27.5576 27.8133 27.494C27.6641 27.4304 27.5018 27.4037 27.34 27.416C27.1784 27.4293 27.0224 27.4818 26.8856 27.5689C26.7488 27.656 26.6353 27.7752 26.5549 27.916C26.1424 28.6358 25.9055 29.4428 25.8634 30.2713C25.8214 31.0999 25.9753 31.9267 26.3127 32.6846L26.3107 32.6865C26.1591 32.7799 26.0339 32.9107 25.9473 33.0663C25.8606 33.2218 25.8152 33.3971 25.8156 33.5752C25.8138 33.7221 25.8226 33.869 25.842 34.0146C25.9441 35.2729 26.5018 36.4507 27.4104 37.3271C27.3487 37.4446 27.3111 37.5731 27.2997 37.7052C27.2883 37.8373 27.3033 37.9704 27.3439 38.0967C27.7401 39.3308 28.5824 40.3727 29.7063 41.0185C28.5645 41.46 27.3317 41.614 26.1164 41.4668C25.8915 41.4386 25.6636 41.4876 25.4703 41.6059C25.2769 41.7242 25.1294 41.9047 25.0521 42.1178C24.9748 42.3309 24.9722 42.5639 25.0448 42.7787C25.1173 42.9935 25.2607 43.1772 25.4514 43.2998C27.5415 44.646 29.9751 45.3617 32.4612 45.3613C35.2804 45.393 38.0311 44.4921 40.2854 42.7988C42.5397 41.1054 44.1711 38.7145 44.926 35.998C45.2791 34.8146 45.4593 33.5865 45.4612 32.3516C45.4612 32.2861 45.4612 32.2188 45.4602 32.1514C45.9823 31.5883 46.3868 30.9267 46.6499 30.2053C46.913 29.4839 47.0294 28.7172 46.9924 27.9502ZM43.6857 31.1621C43.5206 31.3575 43.437 31.6089 43.4523 31.8643C43.4621 32.0293 43.4611 32.1953 43.4611 32.3516C43.4591 33.3951 43.3061 34.4329 43.007 35.4326C42.3905 37.744 41.0162 39.7817 39.1041 41.2192C37.192 42.6568 34.8529 43.4111 32.4612 43.3613C31.6021 43.3616 30.7459 43.2606 29.9104 43.0606C30.9758 42.7172 31.972 42.1879 32.8528 41.4971C33.015 41.3693 33.1337 41.1945 33.1927 40.9967C33.2516 40.7988 33.2479 40.5875 33.182 40.3918C33.116 40.1961 32.9912 40.0257 32.8246 39.9038C32.6579 39.7819 32.4576 39.7145 32.2512 39.7109C31.42 39.698 30.6263 39.363 30.0373 38.7764C30.1867 38.7481 30.3352 38.7129 30.4826 38.6709C30.6986 38.6094 30.8877 38.477 31.0193 38.295C31.1509 38.1131 31.2174 37.8921 31.2082 37.6677C31.199 37.4433 31.1145 37.2285 30.9683 37.058C30.8222 36.8874 30.6229 36.7711 30.4025 36.7275C29.9201 36.6323 29.4661 36.427 29.0759 36.1277C28.6856 35.8284 28.3697 35.4432 28.1525 35.002C28.3333 35.0266 28.5152 35.0419 28.6975 35.0479C28.9141 35.0511 29.1261 34.9854 29.3028 34.8603C29.4796 34.7351 29.612 34.5569 29.6809 34.3516C29.7468 34.1443 29.7435 33.9212 29.6712 33.7161C29.5989 33.511 29.4618 33.335 29.2805 33.2148C28.8406 32.9218 28.4803 32.5243 28.2318 32.0578C27.9833 31.5913 27.8544 31.0705 27.8566 30.542C27.8566 30.4756 27.8586 30.4092 27.8625 30.3438C30.1038 32.434 33.0108 33.6662 36.0715 33.8233C36.226 33.8293 36.3799 33.8002 36.5215 33.7382C36.6631 33.6761 36.7887 33.5826 36.8889 33.4649C36.9881 33.346 37.0583 33.2057 37.0941 33.055C37.1298 32.9044 37.1301 32.7475 37.0949 32.5967C37.0377 32.3581 37.0085 32.1136 37.008 31.8682C37.0089 31.0127 37.3491 30.1925 37.954 29.5876C38.5589 28.9827 39.3791 28.6425 40.2346 28.6416C40.6747 28.6404 41.1103 28.7305 41.5139 28.9062C41.9174 29.0818 42.2802 29.3392 42.5793 29.6621C42.6946 29.7862 42.8398 29.8787 43.001 29.9309C43.1622 29.983 43.334 29.993 43.5002 29.96C43.911 29.8801 44.3159 29.7724 44.7121 29.6377C44.4418 30.1907 44.0964 30.7037 43.6857 31.1621Z" fill="#01796F"/>
</svg>
