<svg width="72" height="72" viewBox="0 0 72 72" fill="none" xmlns="http://www.w3.org/2000/svg">
<rect width="72" height="72" rx="36" fill="#9D9D9D" fill-opacity="0.08"/>
<path d="M35.9969 26C34.6837 26 33.3834 26.2587 32.1701 26.7612C30.9568 27.2638 29.8545 28.0003 28.9259 28.9289C27.0505 30.8043 25.9969 33.3478 25.9969 36C25.9882 38.3091 26.7877 40.5485 28.2569 42.33L26.2569 44.33C26.1182 44.4706 26.0242 44.6492 25.9868 44.8432C25.9494 45.0372 25.9704 45.2379 26.0469 45.42C26.13 45.5999 26.2646 45.7511 26.4338 45.8544C26.6029 45.9577 26.7989 46.0083 26.9969 46H35.9969C38.6491 46 41.1926 44.9464 43.068 43.0711C44.9434 41.1957 45.9969 38.6522 45.9969 36C45.9969 33.3478 44.9434 30.8043 43.068 28.9289C41.1926 27.0536 38.6491 26 35.9969 26ZM35.9969 44H29.4069L30.3369 43.07C30.5232 42.8826 30.6277 42.6292 30.6277 42.365C30.6277 42.1008 30.5232 41.8474 30.3369 41.66C29.0275 40.352 28.2121 38.6305 28.0296 36.7888C27.8471 34.947 28.3089 33.099 29.3362 31.5595C30.3634 30.02 31.8927 28.8844 33.6635 28.346C35.4342 27.8076 37.3368 27.8998 39.0472 28.6069C40.7575 29.314 42.1698 30.5923 43.0434 32.2239C43.917 33.8555 44.1978 35.7395 43.8381 37.555C43.4783 39.3705 42.5002 41.005 41.0705 42.1802C39.6407 43.3554 37.8477 43.9985 35.9969 44Z" fill="#003A91"/>
</svg>
