<svg width="72" height="72" viewBox="0 0 72 72" fill="none" xmlns="http://www.w3.org/2000/svg">
<rect width="72" height="72" rx="36" fill="#9D9D9D" fill-opacity="0.08"/>
<path d="M42 40.08C41.24 40.08 40.56 40.38 40.04 40.85L32.91 36.7C32.96 36.47 33 36.24 33 36C33 35.76 32.96 35.53 32.91 35.3L39.96 31.19C40.5 31.69 41.21 32 42 32C43.66 32 45 30.66 45 29C45 27.34 43.66 26 42 26C40.34 26 39 27.34 39 29C39 29.24 39.04 29.47 39.09 29.7L32.04 33.81C31.5 33.31 30.79 33 30 33C28.34 33 27 34.34 27 36C27 37.66 28.34 39 30 39C30.79 39 31.5 38.69 32.04 38.19L39.16 42.35C39.11 42.56 39.08 42.78 39.08 43C39.08 44.61 40.39 45.92 42 45.92C43.61 45.92 44.92 44.61 44.92 43C44.92 41.39 43.61 40.08 42 40.08Z" fill="#01796F"/>
</svg>
