<svg width="50" height="50" viewBox="0 0 50 50" fill="none" xmlns="http://www.w3.org/2000/svg">
<rect x="12" y="10" width="25" height="33" fill="white"/>
<path d="M2.18557e-06 25C1.60592e-06 31.6304 2.63392 37.9893 7.32233 42.6777C12.0107 47.3661 18.3696 50 25 50C31.6304 50 37.9893 47.3661 42.6777 42.6777C47.3661 37.9893 50 31.6304 50 25C50 18.3696 47.3661 12.0107 42.6777 7.32233C37.9893 2.63392 31.6304 -1.60592e-06 25 -2.18557e-06C18.3696 -2.76522e-06 12.0107 2.63392 7.32233 7.32233C2.63393 12.0107 2.76522e-06 18.3696 2.18557e-06 25ZM23.4375 14.0625C23.4375 13.6481 23.6021 13.2507 23.8951 12.9576C24.1882 12.6646 24.5856 12.5 25 12.5C25.4144 12.5 25.8118 12.6646 26.1049 12.9576C26.3979 13.2507 26.5625 13.6481 26.5625 14.0625L26.5625 32.1656L33.2688 25.4562C33.5621 25.1629 33.9601 24.998 34.375 24.998C34.7899 24.998 35.1879 25.1629 35.4813 25.4562C35.7746 25.7496 35.9395 26.1476 35.9395 26.5625C35.9395 26.9774 35.7746 27.3754 35.4813 27.6687L26.1063 37.0437C25.9611 37.1893 25.7887 37.3047 25.5989 37.3835C25.409 37.4622 25.2055 37.5028 25 37.5028C24.7945 37.5028 24.591 37.4622 24.4011 37.3835C24.2113 37.3047 24.0389 37.1893 23.8938 37.0437L14.5188 27.6687C14.2254 27.3754 14.0605 26.9774 14.0605 26.5625C14.0605 26.1476 14.2254 25.7496 14.5188 25.4562C14.8121 25.1629 15.2101 24.998 15.625 24.998C16.0399 24.998 16.4379 25.1629 16.7313 25.4562L23.4375 32.1656L23.4375 14.0625Z" fill="url(#paint0_linear_2199_108507)"/>
<defs>
<linearGradient id="paint0_linear_2199_108507" x1="22.5" y1="-9.98388e-07" x2="23.5" y2="50" gradientUnits="userSpaceOnUse">
<stop stop-color="#015ADF"/>
<stop offset="1" stop-color="#408CFF"/>
</linearGradient>
</defs>
</svg>
