<svg width="27" height="31" viewBox="0 0 27 31" fill="none" xmlns="http://www.w3.org/2000/svg">
<circle r="12" transform="matrix(-1 0 0 1 13.0859 15.1436)" fill="#003A91"/>
<path d="M15.8978 10.2706C15.9847 10.3558 16.0536 10.4571 16.1006 10.5685C16.1477 10.6799 16.1719 10.7994 16.1719 10.92C16.1719 11.0407 16.1477 11.1601 16.1006 11.2716C16.0536 11.383 15.9847 11.4843 15.8978 11.5695L12.2614 15.1437L15.8978 18.7178C16.073 18.8901 16.1715 19.1237 16.1715 19.3673C16.1715 19.6109 16.073 19.8445 15.8978 20.0167C15.7226 20.189 15.4849 20.2857 15.2371 20.2857C14.9892 20.2857 14.7516 20.189 14.5763 20.0167L10.2745 15.7885C10.1876 15.7033 10.1187 15.602 10.0717 15.4906C10.0247 15.3792 10.0004 15.2597 10.0004 15.1391C10.0004 15.0184 10.0247 14.8989 10.0717 14.7875C10.1187 14.6761 10.1876 14.5748 10.2745 14.4896L14.5763 10.2614C14.9325 9.91135 15.5323 9.91135 15.8978 10.2706Z" fill="#FAF9F9"/>
</svg>
