<svg width="62" height="62" viewBox="0 0 62 62" fill="none" xmlns="http://www.w3.org/2000/svg">
<g filter="url(#filter0_d_289_17333)">
<path fill-rule="evenodd" clip-rule="evenodd" d="M8.21408 45.0675C8.04665 44.1638 8.48016 44.0013 8.5909 43.4944C8.74548 42.7869 9.63896 40.5294 9.93414 39.7916L10.8424 37.0794C11.0366 36.6898 10.93 36.7922 11.037 36.4879C11.1935 36.0412 11.2861 35.9803 11.4138 35.4591L11.9959 33.9209C12.0926 33.682 12.0681 33.6083 12.152 33.3483L12.5511 32.2726C12.8198 31.6528 13.1033 30.791 13.3236 30.1383C13.5032 29.6065 13.8853 28.3279 14.0765 27.9757C14.3018 27.9288 14.6363 27.8691 14.8721 27.9073C15.1835 27.9575 15.0777 27.798 15.1892 28.1144C15.2686 28.3385 15.1945 28.3793 15.114 28.5264C15.2319 28.354 15.1767 28.2017 15.1748 27.9477L14.1835 27.9296C14.208 27.2965 14.561 26.8225 15.0327 26.5168C15.5944 26.1528 15.9988 26.0591 16.893 26.1547L16.8847 26.8207C17.0884 26.6404 17.0412 26.6729 17.0669 26.3505C17.3099 26.5293 17.1194 26.2809 17.2165 26.5595C17.3893 25.9937 17.2162 25.595 17.6153 25.2106C17.9872 24.8523 18.3515 24.7835 19.0379 24.8209L19.0806 25.0261L19.2957 25.0515C19.3191 24.9456 19.3085 24.9116 19.3542 24.827C19.51 24.5386 19.3455 24.7317 19.5663 24.6111L19.5428 25.0053C19.6649 24.7661 19.6207 24.3243 19.6713 24.0072C20.4567 23.8885 30.1127 23.9297 30.6626 23.9645L30.7317 24.1383C31.016 24.1168 30.8406 24.1678 30.8863 24.3632C30.8992 24.4173 30.9026 24.613 30.9158 24.7026C30.9619 25.0114 31.0099 24.898 30.9623 25.3406L31.0965 24.1704C31.8633 24.1383 32.7738 23.9255 33.5566 23.8239C35.5529 23.5642 38.3592 22.6749 40.1371 22.0002C41.2014 21.5962 42.9294 20.7825 43.9227 20.1921L45.2429 19.451C45.3816 19.355 45.5063 19.293 45.6851 19.1913C46.0487 18.9842 46.9996 18.3375 47.3896 18.3946C47.782 18.452 47.5541 18.3836 47.6784 18.5484C47.847 18.7325 47.7566 18.9653 47.8961 19.2597C47.9479 19.3686 48.0499 19.5054 48.0681 19.5753C48.1134 19.7514 48.025 20.0149 48.2638 20.8978C48.3428 21.1895 48.4067 21.3071 48.4781 21.6824L49.4336 25.6543C49.5432 25.9642 49.5266 26.149 49.6086 26.4695L50.7769 31.2642C50.9163 31.81 51.032 32.2919 51.1786 32.8411L53.8643 44.0946C54.3156 43.6619 55.4472 41.1133 55.6592 40.4092C55.7193 40.2093 55.7409 40.2576 55.8407 40.0433C55.9019 39.9118 55.9484 39.719 55.9798 39.5958C56.064 39.2666 56.1668 39.0444 56.2632 38.7575C56.369 38.4419 56.3974 38.1392 56.4915 37.8425C56.829 36.7835 57.1272 35.365 57.2912 34.1922C57.4817 32.8297 57.4972 31.3576 57.4723 29.8942C57.4587 29.1141 57.3623 28.6099 57.3268 27.8358C57.2852 26.9235 57.0444 25.8746 56.8963 24.9936C56.7897 24.3598 56.4994 23.8473 56.383 23.266C56.2107 22.4065 55.9952 21.4927 55.5451 20.7477C55.2242 20.2167 55.1146 19.5606 54.7574 19.0579L54.2706 18.1523C53.9989 17.4546 53.5431 16.5744 53.0563 16.0006C52.9614 15.8884 52.9089 15.8007 52.8405 15.6733L50.9492 13.1516C50.7413 12.9362 50.5754 12.8356 50.3853 12.5847C50.1022 12.2113 50.0417 12.2619 49.8244 12.0117C49.7254 11.8976 49.694 11.8072 49.5697 11.6957C49.4419 11.5808 49.3883 11.5695 49.2609 11.4376C48.6244 10.7788 48.7091 10.9289 48.1157 10.3854C48.045 10.3204 48.0318 10.3026 47.9713 10.2459L47.1829 9.61473C47.0574 9.52062 46.9214 9.46733 46.8288 9.39741C46.4565 9.11659 46.0124 8.67666 45.5751 8.4548L44.552 7.78393C44.3471 7.66147 44.2961 7.72157 44.1294 7.6267C43.9268 7.51143 43.8803 7.37763 43.4997 7.20075C43.248 7.08396 43.0141 6.97927 42.742 6.82582C42.6199 6.75703 42.5299 6.72944 42.409 6.66066L39.6654 5.50601C39.1673 5.31325 38.4828 5.11369 37.9249 4.96365L34.2645 4.18582C32.877 4.01423 31.4219 3.98324 29.9535 4.00705C28.8314 4.02519 26.0682 4.29921 25.0405 4.57436C24.7238 4.65902 24.4422 4.75728 24.1735 4.82721C23.977 4.87823 23.8473 4.85669 23.6697 4.9028C23.5393 4.93681 23.4463 5.0211 23.2967 5.07552C22.7706 5.26677 22.1912 5.37146 21.6155 5.59823C20.9288 5.86884 19.7768 6.23092 19.2019 6.59602L17.026 7.75029C16.7501 7.91924 16.6292 8.05946 16.382 8.23218C16.1178 8.41662 16.009 8.36258 15.6968 8.61769C15.0906 9.11319 14.3679 9.55728 13.8221 10.0785C13.4366 10.447 13.0073 10.6662 12.6282 11.0808C12.488 11.2343 12.5072 11.2116 12.3398 11.3571C12.2442 11.4399 12.1293 11.5687 12.0325 11.6258C11.633 11.8613 11.8621 11.6341 11.5873 12.0249C11.4044 12.2853 11.0586 12.4452 10.913 12.6848C10.7993 12.8723 10.8896 12.822 10.6844 13.036C10.5721 13.1531 10.5117 13.1902 10.4073 13.3209L9.64728 14.2666C9.41672 14.5296 9.55581 14.2666 9.39178 14.572C9.35399 14.6419 9.28293 14.8331 9.23228 14.9197L8.74699 15.5671C8.50132 15.9613 8.72016 15.7266 8.30706 16.2584C7.59877 17.1708 7.07039 18.4021 6.49817 19.4101C6.10284 20.1071 5.1829 22.7312 5.00904 23.523C4.93496 23.8617 4.82309 24.0147 4.75884 24.3152C4.55814 25.2499 4.17717 27.2833 4.14277 28.1934C4.12917 28.5611 4.04526 28.8189 4.03241 29.1836C3.96249 31.1456 3.96589 33.5531 4.45874 35.3877C4.62353 36.0007 4.61181 36.607 4.8314 37.2136C4.94365 37.5231 4.9652 37.796 5.06006 38.1146C5.15606 38.4359 5.22636 38.6853 5.31934 39.0017C5.48299 39.5592 5.68217 40.0286 5.91499 40.6053C6.15575 41.2006 6.35758 41.6372 6.58888 42.1984C6.72419 42.5269 6.73969 42.607 6.94945 42.9025C7.08665 43.0957 7.03827 43.0756 7.13313 43.282C7.2401 43.5145 7.23102 43.4075 7.35915 43.6252L7.75298 44.3682C7.9155 44.5769 8.03342 44.9008 8.21408 45.0675V45.0675Z" fill="#E6232A"/>
<path fill-rule="evenodd" clip-rule="evenodd" d="M28.5219 39.143C28.3114 39.2511 27.9168 39.3973 27.7573 39.5338C27.8949 40.2957 29.0643 41.6738 29.7276 42.2403C29.9831 42.4588 30.2741 42.6772 30.5292 42.9286C31.1049 43.4959 30.2371 44.2771 29.6849 44.725C28.7687 45.4684 26.2217 46.6113 25.3309 45.3626C25.1068 45.0485 24.8762 44.7431 24.6967 44.4324L23.1384 41.4598C22.9486 41.0615 22.364 39.5224 22.1905 39.3437C22.1455 38.8251 21.0884 36.5113 21.1908 35.5256L27.9686 35.5237L28.3832 35.9293C28.4841 36.0498 28.5601 36.4248 28.6134 36.6213C28.6996 36.9369 28.9294 37.7782 28.9536 38.0454L28.6879 38.2631C28.6667 38.6981 28.8477 38.8905 28.5219 39.143V39.143ZM14.3177 32.0227C14.1518 31.5968 14.0562 31.5174 14.0747 30.9584L15.1757 30.9554L15.1734 30.3699L14.0702 30.3775L14.0777 29.7463L15.1575 29.7505L15.1507 29.1635L14.0823 29.1469L14.0875 28.5516L15.1137 28.5263C15.1942 28.3793 15.2683 28.3385 15.1889 28.1139C15.0774 27.798 15.1832 27.9575 14.8718 27.9072C14.636 27.869 14.3015 27.9287 14.0762 27.9756C13.885 28.3279 13.5029 29.6065 13.3233 30.1383C13.103 30.791 12.8195 31.6527 12.5508 32.2726L12.1513 33.3482C12.0678 33.6086 12.0923 33.6819 11.9956 33.9208L11.4135 35.4591C11.2858 35.9803 11.1932 36.0411 11.0367 36.4879C10.9298 36.7921 11.0363 36.6897 10.8421 37.0794L9.93385 39.7916C9.63866 40.5293 8.74518 42.7868 8.5906 43.4944C8.47986 44.0012 8.04635 44.1637 8.21378 45.0674C8.53466 45.7866 9.074 46.3411 9.32118 46.6983L11.0908 48.8273C11.437 49.192 11.8977 49.5639 12.222 49.9638C12.9964 50.9196 13.3452 50.9476 13.9798 51.5387C14.4897 52.0142 15.9641 53.0199 16.5998 53.3892L17.3005 53.8159C17.7571 54.1659 18.2617 54.3159 18.7341 54.5869C19.8014 55.1999 22.3829 56.2091 23.5753 56.4808L26.7592 57.1755C28.5242 57.5342 29.612 57.4385 31.5127 57.4529C32.6121 57.4612 34.5741 57.3032 35.5783 57.0598C36.1022 56.9328 37.041 56.8743 37.428 56.7076C38.1714 56.3875 37.3581 56.6456 38.286 56.4321C38.8446 56.3032 41.6369 55.1878 42.293 54.8503L44.1004 53.8888C44.2701 53.7788 44.2837 53.7297 44.4149 53.656C44.5067 53.6042 44.6934 53.5373 44.8083 53.4757C45.263 53.2327 45.5487 52.9432 45.788 52.8294C46.0778 52.6907 46.2237 52.6162 46.4773 52.3713L47.7597 51.3871C48.0292 51.2322 48.0969 51.0659 48.3161 50.8811C48.4321 50.7832 48.5568 50.708 48.643 50.6365L51.3707 47.7588C51.6519 47.2833 51.6689 47.4375 52.1243 46.8203C52.5722 46.2137 53.6241 44.7677 53.8641 44.0945L51.1783 32.841C51.0317 32.2918 50.916 31.8099 50.7766 31.2642L49.6083 26.4695C49.5263 26.149 49.5429 25.9645 49.4333 25.6542L48.4778 21.6823C48.406 21.307 48.3425 21.1895 48.2635 20.8977C48.0247 20.0148 48.1131 19.7514 48.0678 19.5752C48.0496 19.5053 47.9476 19.3685 47.8958 19.2596C47.7563 18.9652 47.8467 18.7324 47.6781 18.5483L47.762 18.5914C47.7216 22.1404 47.7749 25.7041 47.7537 29.2561C47.7431 31.0223 47.742 32.8059 47.756 34.572C47.7628 35.4459 47.7544 36.3204 47.7582 37.1946C47.7628 38.296 48.1842 40.6076 46.7154 39.781C45.7993 39.2654 43.6431 38.0741 42.7847 37.7476L41.1323 37.0745L38.8518 36.3019C36.4786 35.5781 34.2041 35.2622 31.73 35.0513C31.6181 35.0418 31.5013 35.0335 31.4178 35.0199C31.148 34.9761 31.2685 35.0452 31.0947 34.9129C30.8985 34.5312 30.7953 30.9928 30.7934 30.2482C30.7885 28.5607 30.8868 26.985 30.962 25.3405C31.0096 24.8979 30.9616 25.0113 30.9155 24.7025C30.9023 24.613 30.8989 24.4172 30.886 24.3631C30.8403 24.1677 31.0157 24.1167 30.7315 24.1383C30.5867 27.7976 30.3289 28.6737 30.5338 32.5885C30.5425 32.756 30.8108 35.1091 30.6623 35.2168C30.4907 35.3415 22.339 35.2924 20.8805 35.2467C20.3604 35.2304 19.908 35.3427 19.7005 35.1027C19.2591 34.5924 19.2848 28.7334 19.3445 27.411C19.3812 26.5984 19.5255 25.7381 19.5425 25.0053L19.566 24.6111C19.3452 24.7316 19.5097 24.5385 19.3539 24.8269C19.3082 24.9116 19.3188 24.9456 19.2954 25.0514L19.0803 25.0261C18.9756 27.389 18.7813 29.8457 18.9544 32.231C19.0017 32.8871 19.1559 33.9038 19.1207 34.4923C18.5421 34.4877 17.6305 34.4783 17.3678 33.6895C16.9294 32.3731 17.1459 27.9416 17.2162 26.5594C17.1191 26.2809 17.3096 26.5292 17.0666 26.3504C17.0409 26.6728 17.0881 26.6403 16.8844 26.8206C16.6705 30.5306 16.7313 29.597 16.9139 33.1524C16.1587 33.1294 15.8567 33.214 15.249 32.8958C14.6492 32.5817 14.7425 32.4767 14.3177 32.0227V32.0227Z" fill="#A13033"/>
<path fill-rule="evenodd" clip-rule="evenodd" d="M30.9617 25.3407C30.8865 26.9852 30.7882 28.5608 30.7931 30.2484C30.795 30.993 30.8982 34.5314 31.0944 34.9131C31.2682 35.0454 31.1477 34.9762 31.4179 35.0201C31.501 35.0337 31.6178 35.042 31.7297 35.0514C34.2038 35.2623 36.4783 35.5783 38.8515 36.3021L41.132 37.0746L42.7844 37.7477C43.6428 38.0743 45.799 39.2656 46.7152 39.7811C48.1839 40.6077 47.7625 38.2961 47.7579 37.1948C47.7542 36.3206 47.7625 35.446 47.7557 34.5722C47.7417 32.806 47.7428 31.0228 47.7534 29.2563C47.7746 25.7043 47.7213 22.1406 47.7617 18.5916L47.6778 18.5485C47.5535 18.3837 47.7814 18.4521 47.3891 18.3947C46.999 18.3376 46.0481 18.9843 45.6845 19.1914C45.5057 19.2931 45.381 19.355 45.2423 19.451L43.9221 20.1922C42.9288 20.7826 41.2008 21.5963 40.1365 22.0003C38.3586 22.675 35.5523 23.5643 33.556 23.824C32.7732 23.9256 31.8628 24.1384 31.0959 24.1705L30.9617 25.3407V25.3407Z" fill="#F6F6F6"/>
<path fill-rule="evenodd" clip-rule="evenodd" d="M19.5434 25.0053C19.5264 25.7381 19.382 26.5984 19.3454 27.411C19.2857 28.7334 19.2599 34.5924 19.7014 35.1027C19.9089 35.3427 20.3613 35.2304 20.8814 35.2467C22.3399 35.2924 30.4916 35.3412 30.6632 35.2168C30.8117 35.1091 30.5434 32.756 30.5347 32.5885C30.3298 28.6737 30.5876 27.7976 30.7323 24.1383L30.6632 23.9644C30.1132 23.9296 20.4573 23.8884 19.6719 24.0071C19.6213 24.3242 19.6655 24.7661 19.5434 25.0053V25.0053Z" fill="#F6F6F6"/>
<path fill-rule="evenodd" clip-rule="evenodd" d="M22.1903 39.3436C22.3637 39.5224 22.9484 41.0614 23.1382 41.4598L24.6965 44.4324C24.876 44.7431 25.1065 45.0485 25.3307 45.3625C26.2215 46.6113 28.7685 45.468 29.6847 44.7249C30.2369 44.2771 31.1047 43.4958 30.529 42.9285C30.2739 42.6772 29.9829 42.4587 29.7274 42.2403C29.0641 41.6737 27.8947 40.2957 27.7571 39.5338C27.9166 39.3973 28.3112 39.2511 28.5217 39.143C28.8475 38.8905 28.6665 38.6981 28.6877 38.2631L28.9534 38.0454C28.9292 37.7782 28.6994 36.9368 28.6132 36.6213C28.5595 36.4247 28.4839 36.0498 28.383 35.9292L27.9684 35.5237L21.1906 35.5256C21.0882 36.5113 22.1453 38.8247 22.1903 39.3436V39.3436Z" fill="#F6F6F6"/>
<path fill-rule="evenodd" clip-rule="evenodd" d="M17.2173 26.5594C17.147 27.9416 16.9304 32.3731 17.3689 33.6895C17.6315 34.4783 18.5432 34.4877 19.1218 34.4926C19.157 33.9038 19.0028 32.8871 18.9555 32.231C18.7824 29.8457 18.9767 27.389 19.0814 25.0261L19.0387 24.8208C18.3523 24.7834 17.988 24.8522 17.616 25.2105C17.2169 25.5949 17.39 25.9936 17.2173 26.5594V26.5594Z" fill="#F6F6F6"/>
<path fill-rule="evenodd" clip-rule="evenodd" d="M15.1138 28.5263L14.0877 28.5516L14.0824 29.1469L15.1509 29.1635L15.1577 29.7505L14.0779 29.7463L14.0703 30.3775L15.1736 30.3699L15.1758 30.9554L14.0748 30.9584C14.0563 31.5174 14.1519 31.5968 14.3179 32.0227C14.7427 32.4767 14.6493 32.5817 15.2491 32.8958C15.8569 33.214 16.1589 33.1294 16.914 33.1524C16.7315 29.597 16.6706 30.531 16.8845 26.8206L16.8929 26.1546C15.9986 26.059 15.5942 26.1527 15.0326 26.5167C14.5609 26.8225 14.2079 27.2964 14.1833 27.9295L15.1747 27.9476C15.1766 28.2016 15.2318 28.3539 15.1138 28.5263V28.5263Z" fill="#F6F6F6"/>
<path fill-rule="evenodd" clip-rule="evenodd" d="M34.8828 24.6007C38.1011 24.6676 43.3539 24.0417 46.3798 23.2041L46.396 21.3801L43.7553 22.3518C40.6587 23.4483 39.436 23.6282 36.4381 24.2609C35.9169 24.3709 35.13 24.3932 34.8828 24.6007V24.6007Z" fill="#A13033"/>
</g>
<defs>
<filter id="filter0_d_289_17333" x="0" y="0" width="61.4805" height="61.4543" filterUnits="userSpaceOnUse" color-interpolation-filters="sRGB">
<feFlood flood-opacity="0" result="BackgroundImageFix"/>
<feColorMatrix in="SourceAlpha" type="matrix" values="0 0 0 0 0 0 0 0 0 0 0 0 0 0 0 0 0 0 127 0" result="hardAlpha"/>
<feOffset/>
<feGaussianBlur stdDeviation="2"/>
<feComposite in2="hardAlpha" operator="out"/>
<feColorMatrix type="matrix" values="0 0 0 0 0 0 0 0 0 0 0 0 0 0 0 0 0 0 0.59 0"/>
<feBlend mode="normal" in2="BackgroundImageFix" result="effect1_dropShadow_289_17333"/>
<feBlend mode="normal" in="SourceGraphic" in2="effect1_dropShadow_289_17333" result="shape"/>
</filter>
</defs>
</svg>
