<svg width="4" height="8" viewBox="0 0 4 8" fill="none" xmlns="http://www.w3.org/2000/svg">
<path d="M0.663692 3.90808e-05C0.749076 -0.000251154 0.83344 0.0185883 0.910585 0.0551726C0.98773 0.091757 1.0557 0.145157 1.10949 0.211448L3.86998 3.6397C3.95405 3.74193 4 3.87017 4 4.00252C4 4.13486 3.95405 4.2631 3.86998 4.36534L1.01233 7.79359C0.915315 7.91027 0.775912 7.98365 0.624784 7.99758C0.473656 8.01151 0.323183 7.96485 0.206466 7.86787C0.0897501 7.77088 0.0163518 7.63152 0.002418 7.48043C-0.0115158 7.32935 0.0351563 7.17891 0.132167 7.06223L2.68691 3.99966L0.217898 0.937093C0.148009 0.853224 0.103614 0.751096 0.0899664 0.642793C0.0763185 0.53449 0.0939885 0.424543 0.140886 0.325965C0.187784 0.227387 0.261946 0.144303 0.354597 0.0865428C0.447248 0.0287824 0.55451 -0.00123612 0.663692 3.90808e-05Z" fill="#4E4E4E"/>
</svg>
