<svg width="27" height="31" viewBox="0 0 27 31" fill="red" xmlns="http://www.w3.org/2000/svg">
<circle cx="13.0859" cy="15.1436" r="12" fill="#01796F"/>
<path d="M10.2741 10.2706C10.1872 10.3558 10.1183 10.4571 10.0712 10.5685C10.0242 10.6799 10 10.7994 10 10.92C10 11.0407 10.0242 11.1601 10.0712 11.2716C10.1183 11.383 10.1872 11.4843 10.2741 11.5695L13.9105 15.1437L10.2741 18.7178C10.0988 18.8901 10.0004 19.1237 10.0004 19.3673C10.0004 19.6109 10.0988 19.8445 10.2741 20.0167C10.4493 20.189 10.687 20.2857 10.9348 20.2857C11.1826 20.2857 11.4203 20.189 11.5955 20.0167L15.8973 15.7885C15.9842 15.7033 16.0532 15.602 16.1002 15.4906C16.1472 15.3792 16.1714 15.2597 16.1714 15.1391C16.1714 15.0184 16.1472 14.8989 16.1002 14.7875C16.0532 14.6761 15.9842 14.5748 15.8973 14.4896L11.5955 10.2614C11.2394 9.91135 10.6396 9.91135 10.2741 10.2706Z" fill="#FAF9F9"/>
</svg>
