<svg width="29" height="29" viewBox="0 0 29 29" fill="none" xmlns="http://www.w3.org/2000/svg">
<path d="M11.0996 27.7898L16.607 25.4453C16.7075 26.1243 16.5804 26.8175 16.2456 27.4163C15.9109 28.015 15.3874 28.4854 14.7574 28.7536C14.1273 29.0218 13.4263 29.0727 12.7643 28.8983C12.1023 28.7238 11.5168 28.334 11.0996 27.7898ZM19.4983 0.142629C22.7236 1.91031 25.1449 4.17884 26.7374 6.94511C28.33 9.71138 29.0799 12.949 28.9933 16.6333C28.9861 16.9417 28.857 17.2346 28.6345 17.4476C28.412 17.6607 28.1142 17.7763 27.8066 17.7691C27.4991 17.7619 27.2069 17.6325 26.9945 17.4093C26.7822 17.1861 26.6669 16.8874 26.674 16.579C26.7513 13.3041 26.0989 10.4882 24.729 8.10806C23.3591 5.72789 21.2517 3.75398 18.3866 2.18477C18.1166 2.03672 17.9163 1.78716 17.8297 1.49099C17.7432 1.19481 17.7775 0.876287 17.9251 0.605483C18.0727 0.334678 18.3216 0.133777 18.6169 0.0469746C18.9122 -0.0398274 19.2298 -0.00541948 19.4999 0.142629H19.4983ZM5.35094 6.99783C7.47838 6.04512 9.89123 5.95645 12.0825 6.75047C14.2738 7.54448 16.0729 9.15936 17.1018 11.2558L17.2533 11.5814L19.2447 16.0642L21.8701 18.3436C22.0139 18.4676 22.1376 18.6134 22.2814 18.8475L22.3726 19.0243C22.4756 19.2571 22.5318 19.508 22.538 19.7626C22.5443 20.0173 22.5004 20.2706 22.4089 20.5083C22.3175 20.7459 22.1802 20.9631 22.005 21.1474C21.8297 21.3318 21.62 21.4797 21.3877 21.5828L5.41897 28.6675C5.12481 28.7978 4.80289 28.8524 4.48237 28.8264C4.16184 28.8004 3.85285 28.6946 3.5834 28.5186C3.31394 28.3426 3.09253 28.102 2.93922 27.8185C2.78592 27.535 2.70557 27.2176 2.70545 26.8951L2.70391 23.2621L0.783577 18.9328C0.300405 17.8487 0.0352439 16.6797 0.00328065 15.4927C-0.0286826 14.3056 0.17318 13.1239 0.597307 12.0153C1.02143 10.9066 1.65949 9.89277 2.47493 9.03179C3.29037 8.17081 4.26718 7.47963 5.34939 6.99783H5.35094ZM19.1319 5.72634C20.627 6.54351 21.8253 7.73282 22.7128 9.27567C23.6003 10.8185 24.0286 12.4544 23.9868 14.1601C23.9832 14.3128 23.9495 14.4633 23.8879 14.603C23.8262 14.7427 23.7378 14.8688 23.6275 14.9742C23.5172 15.0796 23.3873 15.1622 23.2452 15.2173C23.1032 15.2723 22.9516 15.2988 22.7994 15.2951C22.6471 15.2914 22.497 15.2577 22.3577 15.1959C22.2184 15.1341 22.0926 15.0453 21.9875 14.9347C21.8824 14.8242 21.8001 14.6939 21.7452 14.5514C21.6903 14.4089 21.6639 14.257 21.6676 14.1042C21.6985 12.8296 21.3815 11.6155 20.7043 10.4386C20.0271 9.26016 19.1365 8.37632 18.0217 7.76848C17.7517 7.62084 17.5512 7.37168 17.4644 7.0758C17.3775 6.77991 17.4114 6.46155 17.5586 6.19075C17.7059 5.91994 17.9543 5.71888 18.2494 5.63178C18.5444 5.54469 18.8618 5.5787 19.1319 5.72634Z" fill="#DD291B"/>
</svg>
