<svg width="106" height="85" viewBox="0 0 106 85" fill="none" xmlns="http://www.w3.org/2000/svg">
<path d="M0 10C0 4.47715 4.47715 0 10 0H106V85H10C4.47715 85 0 80.5229 0 75V10Z" fill="black" fill-opacity="0.31"/>
<path d="M10 23C10 19.6863 12.6863 17 16 17V67C12.6863 67 10 64.3137 10 61V23Z" fill="red" />
<g filter="url(#filter0_d_192_16013)">
<path fill-rule="evenodd" clip-rule="evenodd" d="M38.2141 57.0675C38.0466 56.1638 38.4802 56.0013 38.5909 55.4944C38.7455 54.7869 39.639 52.5294 39.9341 51.7916L40.8424 49.0794C41.0366 48.6898 40.93 48.7922 41.037 48.4879C41.1935 48.0412 41.2861 47.9803 41.4138 47.4591L41.9959 45.9209C42.0926 45.682 42.0681 45.6083 42.152 45.3483L42.5511 44.2726C42.8198 43.6528 43.1033 42.791 43.3236 42.1383C43.5032 41.6065 43.8853 40.3279 44.0765 39.9757C44.3018 39.9288 44.6363 39.8691 44.8721 39.9073C45.1835 39.9575 45.0777 39.798 45.1892 40.1144C45.2686 40.3385 45.1945 40.3793 45.114 40.5264C45.2319 40.354 45.1767 40.2017 45.1748 39.9477L44.1835 39.9296C44.208 39.2965 44.561 38.8225 45.0327 38.5168C45.5944 38.1528 45.9988 38.0591 46.893 38.1547L46.8847 38.8207C47.0884 38.6404 47.0412 38.6729 47.0669 38.3505C47.3099 38.5293 47.1194 38.2809 47.2165 38.5595C47.3893 37.9937 47.2162 37.595 47.6153 37.2106C47.9872 36.8523 48.3515 36.7835 49.0379 36.8209L49.0806 37.0261L49.2957 37.0515C49.3191 36.9456 49.3085 36.9116 49.3542 36.827C49.51 36.5386 49.3455 36.7317 49.5663 36.6111L49.5428 37.0053C49.6649 36.7661 49.6207 36.3243 49.6713 36.0072C50.4567 35.8885 60.1127 35.9297 60.6626 35.9645L60.7317 36.1383C61.016 36.1168 60.8406 36.1678 60.8863 36.3632C60.8992 36.4173 60.9026 36.613 60.9158 36.7026C60.9619 37.0114 61.0099 36.898 60.9623 37.3406L61.0965 36.1704C61.8633 36.1383 62.7738 35.9255 63.5566 35.8239C65.5529 35.5642 68.3592 34.6749 70.1371 34.0002C71.2014 33.5962 72.9294 32.7825 73.9227 32.1921L75.2429 31.451C75.3816 31.355 75.5063 31.293 75.6851 31.1913C76.0487 30.9842 76.9996 30.3375 77.3896 30.3946C77.782 30.452 77.5541 30.3836 77.6784 30.5484C77.847 30.7325 77.7566 30.9653 77.8961 31.2597C77.9479 31.3686 78.0499 31.5054 78.0681 31.5753C78.1134 31.7514 78.025 32.0149 78.2638 32.8978C78.3428 33.1895 78.4067 33.3071 78.4781 33.6824L79.4336 37.6543C79.5432 37.9642 79.5266 38.149 79.6086 38.4695L80.7769 43.2642C80.9163 43.81 81.032 44.2919 81.1786 44.8411L83.8643 56.0946C84.3156 55.6619 85.4472 53.1133 85.6592 52.4092C85.7193 52.2093 85.7409 52.2576 85.8407 52.0433C85.9019 51.9118 85.9484 51.719 85.9798 51.5958C86.064 51.2666 86.1668 51.0444 86.2632 50.7575C86.369 50.4419 86.3974 50.1392 86.4915 49.8425C86.829 48.7835 87.1272 47.365 87.2912 46.1922C87.4817 44.8297 87.4972 43.3576 87.4723 41.8942C87.4587 41.1141 87.3623 40.6099 87.3268 39.8358C87.2852 38.9235 87.0444 37.8746 86.8963 36.9936C86.7897 36.3598 86.4994 35.8473 86.383 35.266C86.2107 34.4065 85.9952 33.4927 85.5451 32.7477C85.2242 32.2167 85.1146 31.5606 84.7575 31.0579L84.2706 30.1523C83.9989 29.4546 83.5431 28.5744 83.0563 28.0006C82.9614 27.8884 82.9089 27.8007 82.8405 27.6733L80.9492 25.1516C80.7413 24.9362 80.5754 24.8356 80.3853 24.5847C80.1022 24.2113 80.0417 24.2619 79.8244 24.0117C79.7254 23.8976 79.694 23.8072 79.5697 23.6957C79.4419 23.5808 79.3883 23.5695 79.2609 23.4376C78.6244 22.7788 78.7091 22.9289 78.1157 22.3854C78.045 22.3204 78.0318 22.3026 77.9713 22.2459L77.1829 21.6147C77.0574 21.5206 76.9214 21.4673 76.8288 21.3974C76.4565 21.1166 76.0124 20.6767 75.5751 20.4548L74.552 19.7839C74.3471 19.6615 74.2961 19.7216 74.1294 19.6267C73.9268 19.5114 73.8803 19.3776 73.4997 19.2007C73.248 19.084 73.0141 18.9793 72.742 18.8258C72.6199 18.757 72.5299 18.7294 72.409 18.6607L69.6654 17.506C69.1673 17.3133 68.4828 17.1137 67.9249 16.9636L64.2645 16.1858C62.877 16.0142 61.4219 15.9832 59.9535 16.007C58.8314 16.0252 56.0682 16.2992 55.0405 16.5744C54.7238 16.659 54.4422 16.7573 54.1735 16.8272C53.977 16.8782 53.8473 16.8567 53.6697 16.9028C53.5393 16.9368 53.4463 17.0211 53.2967 17.0755C52.7706 17.2668 52.1912 17.3715 51.6155 17.5982C50.9288 17.8688 49.7768 18.2309 49.2019 18.596L47.026 19.7503C46.7501 19.9192 46.6292 20.0595 46.382 20.2322C46.1178 20.4166 46.009 20.3626 45.6968 20.6177C45.0906 21.1132 44.3679 21.5573 43.8221 22.0785C43.4366 22.447 43.0073 22.6662 42.6282 23.0808C42.488 23.2343 42.5072 23.2116 42.3398 23.3571C42.2442 23.4399 42.1293 23.5687 42.0325 23.6258C41.633 23.8613 41.8621 23.6341 41.5873 24.0249C41.4044 24.2853 41.0586 24.4452 40.913 24.6848C40.7993 24.8723 40.8896 24.822 40.6844 25.036C40.5721 25.1531 40.5117 25.1902 40.4073 25.3209L39.6473 26.2666C39.4167 26.5296 39.5558 26.2666 39.3918 26.572C39.354 26.6419 39.2829 26.8331 39.2323 26.9197L38.747 27.5671C38.5013 27.9613 38.7202 27.7266 38.3071 28.2584C37.5988 29.1708 37.0704 30.4021 36.4982 31.4101C36.1028 32.1071 35.1829 34.7312 35.009 35.523C34.935 35.8617 34.8231 36.0147 34.7588 36.3152C34.5581 37.2499 34.1772 39.2833 34.1428 40.1934C34.1292 40.5611 34.0453 40.8189 34.0324 41.1836C33.9625 43.1456 33.9659 45.5531 34.4587 47.3877C34.6235 48.0007 34.6118 48.607 34.8314 49.2136C34.9437 49.5231 34.9652 49.796 35.0601 50.1146C35.1561 50.4359 35.2264 50.6853 35.3193 51.0017C35.483 51.5592 35.6822 52.0286 35.915 52.6053C36.1557 53.2006 36.3576 53.6372 36.5889 54.1984C36.7242 54.5269 36.7397 54.607 36.9495 54.9025C37.0866 55.0957 37.0383 55.0756 37.1331 55.282C37.2401 55.5145 37.231 55.4075 37.3592 55.6252L37.753 56.3682C37.9155 56.5769 38.0334 56.9008 38.2141 57.0675Z" fill="#E6232A"/>
<path fill-rule="evenodd" clip-rule="evenodd" d="M58.5219 51.143C58.3114 51.2511 57.9168 51.3973 57.7573 51.5338C57.8949 52.2957 59.0643 53.6738 59.7276 54.2403C59.9831 54.4588 60.2741 54.6772 60.5292 54.9286C61.1049 55.4959 60.2371 56.2771 59.6849 56.725C58.7687 57.4684 56.2217 58.6113 55.3309 57.3626C55.1068 57.0485 54.8762 56.7431 54.6967 56.4324L53.1384 53.4598C52.9486 53.0615 52.364 51.5224 52.1905 51.3437C52.1455 50.8251 51.0884 48.5113 51.1908 47.5256L57.9686 47.5237L58.3832 47.9293C58.4841 48.0498 58.5601 48.4248 58.6134 48.6213C58.6996 48.9369 58.9294 49.7782 58.9536 50.0454L58.6879 50.2631C58.6667 50.6981 58.8477 50.8905 58.5219 51.143ZM44.3177 44.0227C44.1518 43.5968 44.0562 43.5174 44.0747 42.9584L45.1757 42.9554L45.1734 42.3699L44.0702 42.3775L44.0777 41.7463L45.1575 41.7505L45.1507 41.1635L44.0823 41.1469L44.0875 40.5516L45.1137 40.5263C45.1942 40.3793 45.2683 40.3385 45.1889 40.1139C45.0774 39.798 45.1832 39.9575 44.8718 39.9072C44.636 39.869 44.3015 39.9287 44.0762 39.9756C43.885 40.3279 43.5029 41.6065 43.3233 42.1383C43.103 42.791 42.8195 43.6527 42.5508 44.2726L42.1513 45.3482C42.0678 45.6086 42.0923 45.6819 41.9956 45.9208L41.4135 47.4591C41.2858 47.9803 41.1932 48.0411 41.0367 48.4879C40.9298 48.7921 41.0363 48.6897 40.8421 49.0794L39.9338 51.7916C39.6387 52.5293 38.7452 54.7868 38.5906 55.4944C38.4799 56.0012 38.0463 56.1637 38.2138 57.0674C38.5347 57.7866 39.074 58.3411 39.3212 58.6983L41.0908 60.8273C41.437 61.192 41.8977 61.5639 42.222 61.9638C42.9964 62.9196 43.3452 62.9476 43.9798 63.5387C44.4897 64.0142 45.9641 65.0199 46.5998 65.3892L47.3005 65.8159C47.7571 66.1659 48.2617 66.3159 48.7341 66.5869C49.8014 67.1999 52.3829 68.2091 53.5753 68.4808L56.7592 69.1755C58.5242 69.5342 59.612 69.4385 61.5127 69.4529C62.6121 69.4612 64.5741 69.3032 65.5783 69.0598C66.1022 68.9328 67.041 68.8743 67.428 68.7076C68.1714 68.3875 67.3581 68.6456 68.286 68.4321C68.8446 68.3032 71.6369 67.1878 72.293 66.8503L74.1004 65.8888C74.2701 65.7788 74.2837 65.7297 74.4149 65.656C74.5067 65.6042 74.6934 65.5373 74.8083 65.4757C75.263 65.2327 75.5487 64.9432 75.788 64.8294C76.0778 64.6907 76.2237 64.6162 76.4773 64.3713L77.7597 63.3871C78.0292 63.2322 78.0969 63.0659 78.3161 62.8811C78.4321 62.7832 78.5568 62.708 78.643 62.6365L81.3707 59.7588C81.6519 59.2833 81.6689 59.4375 82.1243 58.8203C82.5722 58.2137 83.6241 56.7677 83.8641 56.0945L81.1783 44.841C81.0317 44.2918 80.916 43.8099 80.7766 43.2642L79.6083 38.4695C79.5263 38.149 79.5429 37.9645 79.4333 37.6542L78.4778 33.6823C78.406 33.307 78.3425 33.1895 78.2635 32.8977C78.0247 32.0148 78.1131 31.7514 78.0678 31.5752C78.0496 31.5053 77.9476 31.3685 77.8958 31.2596C77.7563 30.9652 77.8467 30.7324 77.6781 30.5483L77.762 30.5914C77.7216 34.1404 77.7749 37.7041 77.7537 41.2561C77.7431 43.0223 77.742 44.8059 77.756 46.572C77.7628 47.4459 77.7544 48.3204 77.7582 49.1946C77.7628 50.296 78.1842 52.6076 76.7155 51.781C75.7993 51.2654 73.6431 50.0741 72.7847 49.7476L71.1323 49.0745L68.8518 48.3019C66.4786 47.5781 64.2041 47.2622 61.73 47.0513C61.6181 47.0418 61.5013 47.0335 61.4178 47.0199C61.148 46.9761 61.2685 47.0452 61.0947 46.9129C60.8985 46.5312 60.7953 42.9928 60.7934 42.2482C60.7885 40.5607 60.8868 38.985 60.962 37.3405C61.0096 36.8979 60.9616 37.0113 60.9155 36.7025C60.9023 36.613 60.8989 36.4172 60.886 36.3631C60.8403 36.1677 61.0157 36.1167 60.7315 36.1383C60.5867 39.7976 60.3289 40.6737 60.5338 44.5885C60.5425 44.756 60.8108 47.1091 60.6623 47.2168C60.4907 47.3415 52.339 47.2924 50.8805 47.2467C50.3604 47.2304 49.908 47.3427 49.7005 47.1027C49.2591 46.5924 49.2848 40.7334 49.3445 39.411C49.3812 38.5984 49.5255 37.7381 49.5425 37.0053L49.566 36.6111C49.3452 36.7316 49.5097 36.5385 49.3539 36.8269C49.3082 36.9116 49.3188 36.9456 49.2954 37.0514L49.0803 37.0261C48.9756 39.389 48.7813 41.8457 48.9544 44.231C49.0017 44.8871 49.1559 45.9038 49.1207 46.4923C48.5421 46.4877 47.6305 46.4783 47.3678 45.6895C46.9294 44.3731 47.1459 39.9416 47.2162 38.5594C47.1191 38.2809 47.3096 38.5292 47.0666 38.3504C47.0409 38.6728 47.0881 38.6403 46.8844 38.8206C46.6705 42.5306 46.7313 41.597 46.9139 45.1524C46.1587 45.1294 45.8567 45.214 45.249 44.8958C44.6492 44.5817 44.7425 44.4767 44.3177 44.0227Z" fill="#A13033"/>
<path fill-rule="evenodd" clip-rule="evenodd" d="M60.9617 37.3407C60.8865 38.9852 60.7882 40.5608 60.7931 42.2484C60.795 42.993 60.8982 46.5314 61.0944 46.9131C61.2682 47.0454 61.1477 46.9762 61.4179 47.0201C61.501 47.0337 61.6178 47.042 61.7297 47.0514C64.2038 47.2623 66.4783 47.5783 68.8515 48.3021L71.132 49.0746L72.7844 49.7477C73.6428 50.0743 75.799 51.2656 76.7152 51.7811C78.1839 52.6077 77.7625 50.2961 77.7579 49.1948C77.7542 48.3206 77.7625 47.446 77.7557 46.5722C77.7417 44.806 77.7428 43.0228 77.7534 41.2563C77.7746 37.7043 77.7213 34.1406 77.7617 30.5916L77.6778 30.5485C77.5535 30.3837 77.7814 30.4521 77.3891 30.3947C76.999 30.3376 76.0481 30.9843 75.6845 31.1914C75.5057 31.2931 75.381 31.355 75.2423 31.451L73.9221 32.1922C72.9288 32.7826 71.2008 33.5963 70.1365 34.0003C68.3586 34.675 65.5523 35.5643 63.556 35.824C62.7732 35.9256 61.8628 36.1384 61.0959 36.1705L60.9617 37.3407Z" fill="#F6F6F6"/>
<path fill-rule="evenodd" clip-rule="evenodd" d="M49.5434 37.0053C49.5264 37.7381 49.382 38.5984 49.3454 39.411C49.2857 40.7334 49.2599 46.5924 49.7014 47.1027C49.9089 47.3427 50.3613 47.2304 50.8814 47.2467C52.3399 47.2924 60.4916 47.3412 60.6632 47.2168C60.8117 47.1091 60.5434 44.756 60.5347 44.5885C60.3298 40.6737 60.5876 39.7976 60.7323 36.1383L60.6632 35.9644C60.1132 35.9296 50.4573 35.8884 49.6719 36.0071C49.6213 36.3242 49.6655 36.7661 49.5434 37.0053Z" fill="#F6F6F6"/>
<path fill-rule="evenodd" clip-rule="evenodd" d="M52.1903 51.3436C52.3637 51.5224 52.9484 53.0614 53.1382 53.4598L54.6965 56.4324C54.876 56.7431 55.1065 57.0485 55.3307 57.3625C56.2215 58.6113 58.7685 57.468 59.6847 56.7249C60.2369 56.2771 61.1047 55.4958 60.529 54.9285C60.2739 54.6772 59.9829 54.4587 59.7274 54.2403C59.0641 53.6737 57.8947 52.2957 57.7571 51.5338C57.9166 51.3973 58.3112 51.2511 58.5217 51.143C58.8475 50.8905 58.6665 50.6981 58.6877 50.2631L58.9534 50.0454C58.9292 49.7782 58.6994 48.9368 58.6132 48.6213C58.5595 48.4247 58.4839 48.0498 58.383 47.9292L57.9684 47.5237L51.1906 47.5256C51.0882 48.5113 52.1453 50.8247 52.1903 51.3436Z" fill="#F6F6F6"/>
<path fill-rule="evenodd" clip-rule="evenodd" d="M47.2173 38.5594C47.147 39.9416 46.9304 44.3731 47.3689 45.6895C47.6315 46.4783 48.5432 46.4877 49.1218 46.4926C49.157 45.9038 49.0028 44.8871 48.9555 44.231C48.7824 41.8457 48.9767 39.389 49.0814 37.0261L49.0387 36.8208C48.3523 36.7834 47.988 36.8522 47.616 37.2105C47.2169 37.5949 47.39 37.9936 47.2173 38.5594Z" fill="#F6F6F6"/>
<path fill-rule="evenodd" clip-rule="evenodd" d="M45.1138 40.5263L44.0877 40.5516L44.0824 41.1469L45.1509 41.1635L45.1577 41.7505L44.0779 41.7463L44.0703 42.3775L45.1736 42.3699L45.1758 42.9554L44.0748 42.9584C44.0563 43.5174 44.1519 43.5968 44.3179 44.0227C44.7427 44.4767 44.6493 44.5817 45.2491 44.8958C45.8569 45.214 46.1589 45.1294 46.914 45.1524C46.7315 41.597 46.6706 42.531 46.8845 38.8206L46.8929 38.1546C45.9986 38.059 45.5942 38.1527 45.0326 38.5167C44.5609 38.8225 44.2079 39.2964 44.1833 39.9295L45.1747 39.9476C45.1766 40.2016 45.2318 40.3539 45.1138 40.5263Z" fill="#F6F6F6"/>
<path fill-rule="evenodd" clip-rule="evenodd" d="M64.8809 36.6007C68.0991 36.6676 73.3519 36.0417 76.3778 35.2041L76.3941 33.3801L73.7533 34.3518C70.6567 35.4483 69.4341 35.6282 66.4361 36.2609C65.9149 36.3709 65.128 36.3932 64.8809 36.6007Z" fill="#A13033"/>
</g>
<defs>
<filter id="filter0_d_192_16013" x="30" y="12" width="61.4824" height="61.4543" filterUnits="userSpaceOnUse" color-interpolation-filters="sRGB">
<feFlood flood-opacity="0" result="BackgroundImageFix"/>
<feColorMatrix in="SourceAlpha" type="matrix" values="0 0 0 0 0 0 0 0 0 0 0 0 0 0 0 0 0 0 127 0" result="hardAlpha"/>
<feOffset/>
<feGaussianBlur stdDeviation="2"/>
<feComposite in2="hardAlpha" operator="out"/>
<feColorMatrix type="matrix" values="0 0 0 0 0 0 0 0 0 0 0 0 0 0 0 0 0 0 0.59 0"/>
<feBlend mode="normal" in2="BackgroundImageFix" result="effect1_dropShadow_192_16013"/>
<feBlend mode="normal" in="SourceGraphic" in2="effect1_dropShadow_192_16013" result="shape"/>
</filter>
</defs>
</svg>
