<svg width="86" height="58" viewBox="0 0 86 58" fill="none" xmlns="http://www.w3.org/2000/svg">
<rect width="86" height="58" rx="4" fill="#386BF6"/>
<path d="M28.0781 46.7207C28.0781 47.2285 27.9512 47.6621 27.6973 48.0215C27.4473 48.377 27.0957 48.6484 26.6426 48.8359C26.1895 49.0234 25.6562 49.1172 25.043 49.1172C24.7188 49.1172 24.4121 49.1016 24.123 49.0703C23.834 49.0391 23.5684 48.9941 23.3262 48.9355C23.084 48.877 22.8711 48.8047 22.6875 48.7188V47.7637C22.9805 47.8848 23.3379 47.998 23.7598 48.1035C24.1816 48.2051 24.623 48.2559 25.084 48.2559C25.5137 48.2559 25.877 48.1992 26.1738 48.0859C26.4707 47.9688 26.6953 47.8027 26.8477 47.5879C27.0039 47.3691 27.082 47.1074 27.082 46.8027C27.082 46.5098 27.0176 46.2656 26.8887 46.0703C26.7598 45.8711 26.5449 45.6914 26.2441 45.5312C25.9473 45.3672 25.541 45.1934 25.0254 45.0098C24.6621 44.8809 24.3418 44.7402 24.0645 44.5879C23.7871 44.4316 23.5547 44.2559 23.3672 44.0605C23.1797 43.8652 23.0371 43.6387 22.9395 43.3809C22.8457 43.123 22.7988 42.8281 22.7988 42.4961C22.7988 42.0391 22.9141 41.6484 23.1445 41.3242C23.3789 40.9961 23.7012 40.7461 24.1113 40.5742C24.5254 40.3984 25 40.3105 25.5352 40.3105C25.9922 40.3105 26.4141 40.3535 26.8008 40.4395C27.1914 40.5254 27.5488 40.6406 27.873 40.7852L27.5625 41.6406C27.2539 41.5117 26.9258 41.4043 26.5781 41.3184C26.2344 41.2324 25.8789 41.1895 25.5117 41.1895C25.1445 41.1895 24.834 41.2441 24.5801 41.3535C24.3301 41.459 24.1387 41.6094 24.0059 41.8047C23.873 42 23.8066 42.2324 23.8066 42.502C23.8066 42.8027 23.8691 43.0527 23.9941 43.252C24.123 43.4512 24.3262 43.6289 24.6035 43.7852C24.8848 43.9375 25.2559 44.0977 25.7168 44.2656C26.2207 44.4492 26.6484 44.6445 27 44.8516C27.3516 45.0547 27.6191 45.3047 27.8027 45.6016C27.9863 45.8945 28.0781 46.2676 28.0781 46.7207ZM30.8063 42.5781V49H29.8336V42.5781H30.8063ZM30.3316 40.1758C30.4918 40.1758 30.6285 40.2285 30.7418 40.334C30.859 40.4355 30.9176 40.5957 30.9176 40.8145C30.9176 41.0293 30.859 41.1895 30.7418 41.2949C30.6285 41.4004 30.4918 41.4531 30.3316 41.4531C30.1637 41.4531 30.023 41.4004 29.9098 41.2949C29.8004 41.1895 29.7457 41.0293 29.7457 40.8145C29.7457 40.5957 29.8004 40.4355 29.9098 40.334C30.023 40.2285 30.1637 40.1758 30.3316 40.1758ZM39.9914 42.4609C40.6984 42.4609 41.2316 42.6465 41.591 43.0176C41.9504 43.3848 42.1301 43.9766 42.1301 44.793V49H41.1691V44.8398C41.1691 44.3203 41.0559 43.9316 40.8293 43.6738C40.6066 43.4121 40.2746 43.2812 39.8332 43.2812C39.2121 43.2812 38.7609 43.4609 38.4797 43.8203C38.1984 44.1797 38.0578 44.709 38.0578 45.4082V49H37.091V44.8398C37.091 44.4922 37.0402 44.2031 36.9387 43.9727C36.841 43.7422 36.6926 43.5703 36.4934 43.457C36.298 43.3398 36.05 43.2812 35.7492 43.2812C35.3234 43.2812 34.9816 43.3691 34.7238 43.5449C34.466 43.7207 34.2785 43.9824 34.1613 44.3301C34.048 44.6738 33.9914 45.0977 33.9914 45.6016V49H33.0188V42.5781H33.8039L33.9504 43.4863H34.0031C34.132 43.2637 34.2941 43.0762 34.4895 42.9238C34.6848 42.7715 34.9035 42.6562 35.1457 42.5781C35.3879 42.5 35.6457 42.4609 35.9191 42.4609C36.4074 42.4609 36.8156 42.5527 37.1438 42.7363C37.4758 42.916 37.716 43.1914 37.8645 43.5625H37.9172C38.1281 43.1914 38.4172 42.916 38.7844 42.7363C39.1516 42.5527 39.5539 42.4609 39.9914 42.4609ZM47.2957 42.4609C48.0965 42.4609 48.7352 42.7363 49.2117 43.2871C49.6883 43.8379 49.9266 44.666 49.9266 45.7715C49.9266 46.502 49.8172 47.1152 49.5984 47.6113C49.3797 48.1074 49.0711 48.4824 48.6727 48.7363C48.2781 48.9902 47.8113 49.1172 47.2723 49.1172C46.9324 49.1172 46.6336 49.0723 46.3758 48.9824C46.118 48.8926 45.8973 48.7715 45.7137 48.6191C45.5301 48.4668 45.3777 48.3008 45.2566 48.1211H45.1863C45.198 48.2734 45.2117 48.457 45.2273 48.6719C45.2469 48.8867 45.2566 49.0742 45.2566 49.2344V51.8711H44.2781V42.5781H45.0809L45.2098 43.5273H45.2566C45.3816 43.332 45.534 43.1543 45.7137 42.9941C45.8934 42.8301 46.1121 42.7012 46.3699 42.6074C46.6316 42.5098 46.9402 42.4609 47.2957 42.4609ZM47.1258 43.2812C46.6805 43.2812 46.3211 43.3672 46.0477 43.5391C45.7781 43.7109 45.5809 43.9688 45.4559 44.3125C45.3309 44.6523 45.2645 45.0801 45.2566 45.5957V45.7832C45.2566 46.3262 45.3152 46.7852 45.4324 47.1602C45.5535 47.5352 45.7508 47.8203 46.0242 48.0156C46.3016 48.2109 46.6727 48.3086 47.1375 48.3086C47.5359 48.3086 47.868 48.2012 48.1336 47.9863C48.3992 47.7715 48.5965 47.4727 48.7254 47.0898C48.8582 46.7031 48.9246 46.2598 48.9246 45.7598C48.9246 45.002 48.7762 44.4004 48.4793 43.9551C48.1863 43.5059 47.7352 43.2812 47.1258 43.2812ZM54.1781 42.4727C54.9438 42.4727 55.5121 42.6445 55.8832 42.9883C56.2543 43.332 56.4398 43.8809 56.4398 44.6348V49H55.7309L55.5434 48.0508H55.4965C55.3168 48.2852 55.1293 48.4824 54.934 48.6426C54.7387 48.7988 54.5121 48.918 54.2543 49C54.0004 49.0781 53.6879 49.1172 53.3168 49.1172C52.9262 49.1172 52.5785 49.0488 52.2738 48.9121C51.973 48.7754 51.7348 48.5684 51.559 48.291C51.3871 48.0137 51.3012 47.6621 51.3012 47.2363C51.3012 46.5957 51.5551 46.1035 52.0629 45.7598C52.5707 45.416 53.3441 45.2285 54.3832 45.1973L55.4906 45.1504V44.7578C55.4906 44.2031 55.3715 43.8145 55.1332 43.5918C54.8949 43.3691 54.559 43.2578 54.1254 43.2578C53.7895 43.2578 53.4691 43.3066 53.1645 43.4043C52.8598 43.502 52.5707 43.6172 52.2973 43.75L51.9984 43.0117C52.2875 42.8633 52.6195 42.7363 52.9945 42.6309C53.3695 42.5254 53.7641 42.4727 54.1781 42.4727ZM55.4789 45.8359L54.5004 45.877C53.6996 45.9082 53.1352 46.0391 52.807 46.2695C52.4789 46.5 52.3148 46.8262 52.3148 47.248C52.3148 47.6152 52.4262 47.8867 52.6488 48.0625C52.8715 48.2383 53.1664 48.3262 53.5336 48.3262C54.1039 48.3262 54.5707 48.168 54.934 47.8516C55.2973 47.5352 55.4789 47.0605 55.4789 46.4277V45.8359ZM61.6348 42.4609C62.3965 42.4609 62.9727 42.6484 63.3633 43.0234C63.7539 43.3945 63.9492 43.9922 63.9492 44.8164V49H62.9883V44.8809C62.9883 44.3457 62.8652 43.9453 62.6191 43.6797C62.377 43.4141 62.0039 43.2812 61.5 43.2812C60.7891 43.2812 60.2891 43.4824 60 43.8848C59.7109 44.2871 59.5664 44.8711 59.5664 45.6367V49H58.5938V42.5781H59.3789L59.5254 43.5039H59.5781C59.7148 43.2773 59.8887 43.0879 60.0996 42.9355C60.3105 42.7793 60.5469 42.6621 60.8086 42.584C61.0703 42.502 61.3457 42.4609 61.6348 42.4609Z" fill="white"/>
<rect x="33" y="12" width="21" height="21" rx="4" fill="white"/>
<rect x="43.3672" y="16.8467" width="1.04754" height="11.523" rx="0.523772" fill="#386BF6"/>
<rect width="1.07823" height="10.4919" rx="0.539117" transform="matrix(-0.00786296 0.999969 -0.999961 -0.00877674 49.1543 22.1772)" fill="#386BF6"/>
</svg>
