<svg width="36" height="44" viewBox="0 0 36 44" fill="none" xmlns="http://www.w3.org/2000/svg">
<path fill-rule="evenodd" clip-rule="evenodd" d="M30.7693 7.22969C27.4234 3.91128 22.8493 2.02104 18.0634 2.00004C8.13172 1.97904 0.0423527 9.85502 0 19.6212C0.169411 24.3048 1.79999 28.7994 4.6588 32.5378C7.91996 36.8434 11.9435 40.5398 16.4964 43.4802C17.3223 44.1733 18.5293 44.1733 19.3552 43.4802C22.4258 41.5479 25.2422 39.2587 27.7834 36.6753C32.2728 32.0968 35.8728 26.237 35.9998 19.8733V19.7682C36.021 15.0847 34.1363 10.5691 30.7693 7.22969Z" fill="#A50000"/>
<path d="M17.4062 27.6406C17.9167 27.6406 18.349 27.8177 18.7031 28.1719C19.0573 28.526 19.2344 28.9583 19.2344 29.4688C19.2344 29.9688 19.0573 30.3958 18.7031 30.75C18.349 31.1042 17.9167 31.2812 17.4062 31.2812C16.9062 31.2812 16.474 31.1042 16.1094 30.75C15.7552 30.3958 15.5781 29.9688 15.5781 29.4688C15.5781 28.9583 15.7552 28.526 16.1094 28.1719C16.474 27.8177 16.9062 27.6406 17.4062 27.6406ZM19.0781 13.2969L18.1719 25.5312H16.6406L15.75 13.3125C15.7188 12.9583 15.6927 12.625 15.6719 12.3125C15.651 12 15.6406 11.7135 15.6406 11.4531C15.6406 10.6927 15.7865 10.1198 16.0781 9.73438C16.3802 9.33854 16.8229 9.14062 17.4062 9.14062C17.9792 9.14062 18.4167 9.33854 18.7188 9.73438C19.0208 10.1198 19.1719 10.6927 19.1719 11.4531C19.1719 11.6198 19.1615 11.8542 19.1406 12.1562C19.1302 12.4583 19.1094 12.8385 19.0781 13.2969Z" fill="white"/>
</svg>
