<svg width="36" height="43" viewBox="0 0 36 43" fill="none" xmlns="http://www.w3.org/2000/svg">
<path fill-rule="evenodd" clip-rule="evenodd" d="M30.7693 5.8293C27.4234 2.51089 22.8493 0.620654 18.0634 0.599651C8.13172 0.578649 0.0423527 8.45463 0 18.2208C0.169411 22.9044 1.79999 27.399 4.6588 31.1374C7.91996 35.443 11.9435 39.1394 16.4964 42.0798C17.3223 42.7729 18.5293 42.7729 19.3552 42.0798C22.4258 40.1476 25.2422 37.8583 27.7834 35.275C32.2728 30.6964 35.8728 24.8367 35.9998 18.4729V18.3679C36.021 13.6843 34.1363 9.16871 30.7693 5.8293Z" fill="#D3563A"/>
<path d="M25.0102 15.5152L13.977 10.6759C13.7563 10.5794 13.5061 10.5743 13.2815 10.6615C13.1705 10.7053 13.0693 10.7705 12.9838 10.8535C12.8982 10.9364 12.8299 11.0354 12.7829 11.1448L10.0732 17.4449C9.9788 17.6642 9.97575 17.912 10.0647 18.1336C10.1536 18.3552 10.3272 18.5325 10.5474 18.6266L16.8313 21.3095L15.7113 24.0996H11.8065V21.3995H10V28.5996H11.8065V25.8996H15.7113C16.4546 25.8996 17.1131 25.455 17.3877 24.7674L18.4915 22.0187L21.5797 23.3372C21.7989 23.4311 22.0464 23.4347 22.2682 23.3474C22.4901 23.26 22.6683 23.0888 22.7639 22.871L25.4736 16.6997C25.5695 16.4813 25.5745 16.234 25.4877 16.012C25.4008 15.79 25.2291 15.6113 25.0102 15.5152ZM26.1953 23.5343L24.5171 22.8665L26.3218 18.3665L28 19.0334L26.1953 23.5343Z" fill="white"/>
</svg>
