<svg width="36" height="43" viewBox="0 0 36 43" fill="none" xmlns="http://www.w3.org/2000/svg">
<path fill-rule="evenodd" clip-rule="evenodd" d="M30.7693 5.8293C27.4234 2.51089 22.8493 0.620654 18.0634 0.599651C8.13172 0.578649 0.0423527 8.45463 0 18.2208C0.169411 22.9044 1.79999 27.399 4.6588 31.1374C7.91996 35.443 11.9435 39.1394 16.4964 42.0798C17.3223 42.7729 18.5293 42.7729 19.3552 42.0798C22.4258 40.1476 25.2422 37.8583 27.7834 35.275C32.2728 30.6964 35.8728 24.8367 35.9998 18.4729V18.3679C36.021 13.6843 34.1363 9.16871 30.7693 5.8293Z" fill="#4BABF7"/>
<path d="M10.6111 24.0697C10.6111 24.3618 10.2502 24.5996 9.80597 24.5996C9.35973 24.5996 9 24.3618 9 24.0697V13.13C9 12.8363 9.35973 12.5996 9.80597 12.5996C10.2502 12.5996 10.6111 12.836 10.6111 13.13V24.0697ZM27.2139 24.2147C27.2139 24.4283 26.8906 24.5996 26.4905 24.5996C26.0912 24.5996 25.7676 24.4283 25.7676 24.2147V16.2705C25.7676 16.058 26.0912 15.8848 26.4905 15.8848C26.8906 15.8848 27.2139 16.0583 27.2139 16.2705V24.2147Z" fill="white"/>
<path d="M25.6314 18.2434C26.0295 18.2434 26.3517 19.1379 26.3517 20.2418C26.3517 21.3454 26.0295 22.2399 25.6314 22.2399H10.7443C10.347 22.2399 10.0234 21.3454 10.0234 20.2418C10.0234 19.1379 10.347 18.2434 10.7443 18.2434H25.6314ZM14.4918 15.4899C14.7488 16.3167 14.3197 17.1618 13.533 17.3781C12.7478 17.5957 11.9037 17.1027 11.6468 16.2764C11.3909 15.4517 11.8212 14.605 12.6067 14.3855C13.3924 14.1674 14.236 14.6615 14.4918 15.4872M14.7565 17.296C14.7565 17.296 17.9098 12.112 24.8601 17.296H14.7565Z" fill="white"/>
</svg>
