<svg width="36" height="42" viewBox="0 0 36 42" fill="none" xmlns="http://www.w3.org/2000/svg">
<path fill-rule="evenodd" clip-rule="evenodd" d="M30.7693 5.22969C27.4234 1.91128 22.8493 0.0210445 18.0634 4.19076e-05C8.13172 -0.0209607 0.0423527 7.85502 0 17.6212C0.169411 22.3048 1.79999 26.7994 4.6588 30.5378C7.91996 34.8434 11.9435 38.5398 16.4964 41.4802C17.3223 42.1733 18.5293 42.1733 19.3552 41.4802C22.4258 39.5479 25.2422 37.2587 27.7834 34.6753C32.2728 30.0968 35.8728 24.237 35.9998 17.8733V17.7682C36.021 13.0847 34.1363 8.56911 30.7693 5.22969Z" fill="#D3A53A"/>
<path d="M26.0102 13.9156L14.977 9.07627C14.7563 8.97983 14.5061 8.97465 14.2815 9.06187C14.1705 9.10568 14.0693 9.17094 13.9838 9.25388C13.8982 9.33683 13.8299 9.43583 13.7829 9.54517L11.0732 15.8453C10.9788 16.0646 10.9758 16.3123 11.0647 16.534C11.1536 16.7556 11.3272 16.9329 11.5474 17.027L17.8313 19.7099L16.7113 22.4999H12.8065V19.7999H11V27H12.8065V24.3H16.7113C17.4546 24.3 18.1131 23.8554 18.3877 23.1678L19.4915 20.4191L22.5797 21.7376C22.7989 21.8315 23.0464 21.8351 23.2682 21.7478C23.4901 21.6604 23.6683 21.4892 23.7639 21.2714L26.4736 15.1C26.5695 14.8817 26.5745 14.6344 26.4877 14.4124C26.4008 14.1903 26.2291 14.0117 26.0102 13.9156ZM27.1953 21.9347L25.5171 21.2669L27.3218 16.7669L29 17.4338L27.1953 21.9347Z" fill="white"/>
</svg>
