<svg width="36" height="42" viewBox="0 0 36 42" fill="none" xmlns="http://www.w3.org/2000/svg">
<path fill-rule="evenodd" clip-rule="evenodd" d="M30.7693 5.22969C27.4234 1.91128 22.8493 0.0210445 18.0634 4.19076e-05C8.13172 -0.0209607 0.0423527 7.85502 0 17.6212C0.169411 22.3048 1.79999 26.7994 4.6588 30.5378C7.91996 34.8434 11.9435 38.5398 16.4964 41.4802C17.3223 42.1733 18.5293 42.1733 19.3552 41.4802C22.4258 39.548 25.2422 37.2587 27.7834 34.6753C32.2728 30.0968 35.8728 24.2371 35.9998 17.8733V17.7682C36.021 13.0847 34.1363 8.56911 30.7693 5.22969Z" fill="#CE1A0C"/>
<path fill-rule="evenodd" clip-rule="evenodd" d="M13.7187 27.513C12.5042 27.5552 11.9868 27.4847 12.2308 28.6932C13.2028 29.1289 21.3882 28.8925 23.1042 28.8925C23.6864 28.8925 23.7432 28.8839 24.1699 28.6932C24.4134 27.4846 23.8968 27.5552 22.7344 27.513L22.6769 13.4116H13.7423L13.7187 27.513ZM17.928 16.9884C15.3776 17.3982 16.1054 21.0702 18.6208 20.5971C20.7247 20.2014 20.3702 16.596 17.928 16.9884Z" fill="white"/>
<path fill-rule="evenodd" clip-rule="evenodd" d="M13.7246 12.0314H22.661C22.5444 8.63305 19.7924 8.03214 19.495 7.70346C19.0857 7.25092 19.4091 6.40893 18.2029 6.40918C17.0672 6.40939 17.3225 7.11507 16.977 7.61611C16.6155 8.14029 13.8855 8.53309 13.7246 12.0314Z" fill="white"/>
<path fill-rule="evenodd" clip-rule="evenodd" d="M10.3176 17.0597C9.59764 17.2886 9.75278 20.2767 10.1782 20.7783C10.7263 21.0259 11.5822 20.9219 12.2496 20.9165C12.5614 20.4115 12.4197 17.4809 12.3641 16.9334C11.8097 16.8469 10.7137 16.739 10.3176 17.0597Z" fill="white"/>
<path fill-rule="evenodd" clip-rule="evenodd" d="M24.1565 20.9166C24.8241 20.9219 25.6806 21.0262 26.228 20.7774C26.6906 20.2343 26.7811 17.3633 26.0885 17.0597C25.7814 16.7041 24.5821 16.8492 24.042 16.9334L23.9988 20.0159C23.9985 20.0775 23.9935 20.4271 23.9979 20.4634C24.0825 21.1756 24.0106 20.6802 24.1565 20.9166Z" fill="white"/>
</svg>
