<svg width="36" height="42" viewBox="0 0 36 42" fill="none" xmlns="http://www.w3.org/2000/svg">
<path fill-rule="evenodd" clip-rule="evenodd" d="M30.7693 5.22969C27.4234 1.91128 22.8493 0.0210445 18.0634 4.19076e-05C8.13172 -0.0209607 0.0423527 7.85502 0 17.6212C0.169411 22.3048 1.79999 26.7994 4.6588 30.5378C7.91996 34.8434 11.9435 38.5398 16.4964 41.4802C17.3223 42.1733 18.5293 42.1733 19.3552 41.4802C22.4258 39.5479 25.2422 37.2587 27.7834 34.6753C32.2728 30.0968 35.8728 24.237 35.9998 17.8733V17.7682C36.021 13.0847 34.1363 8.56911 30.7693 5.22969Z" fill="#FD9800"/>
<path d="M20.6294 27.1224L20.6149 19.3142C17.3232 17.3862 18.3736 9.95925 21.6637 10.0002C25.6637 10.0476 26.1381 18.3715 22.698 19.2847L22.9513 27.1617C23.0013 28.9735 20.6197 29.142 20.6197 27.1241H20.6294V27.1224Z" fill="#F5F5F5"/>
<path d="M16.4276 18.3327C17.2796 17.7419 17.7072 16.9694 17.6345 15.2051V10.6668C17.6345 10.0334 16.4921 9.95652 16.4357 10.6668L16.3921 14.3476C16.3921 14.634 16.163 14.8647 15.8822 14.8647C15.5998 14.8647 15.3723 14.6323 15.3723 14.3476L15.4159 10.5392C15.4159 9.85832 14.3171 9.79122 14.3058 10.5392C14.3058 11.598 14.2622 13.2919 14.2622 14.3476C14.3025 14.593 14.138 14.8238 13.8959 14.8631C13.6539 14.904 13.4264 14.7371 13.3877 14.4916C13.3796 14.4441 13.3796 14.395 13.3877 14.3459L13.4312 10.5653C13.4022 10.2249 13.1069 9.97288 12.7713 10.0023C12.6664 10.0122 12.5647 10.0498 12.4776 10.1104C12.0758 10.3706 12.1565 10.8943 12.1388 11.3378L12 15.6814C12.021 16.9432 12.3469 17.9694 13.3231 18.408C13.5103 18.4833 13.7055 18.5357 13.9056 18.5618L13.5764 27.4503C13.5603 28.064 14.0379 28.5747 14.643 28.591C14.6478 28.591 14.6527 28.591 14.6575 28.591H14.7915C15.474 28.5796 16.0178 28.01 16.0081 27.3177C16.0081 27.3145 16.0081 27.3112 16.0081 27.3079L15.716 18.5586C15.9661 18.5324 16.2082 18.4555 16.4308 18.3344L16.4276 18.3327Z" fill="#F5F5F5"/>
</svg>
