<svg width="36" height="48" viewBox="0 0 36 48" fill="none" xmlns="http://www.w3.org/2000/svg">
<path d="M18 0C7.97143 0 0 7.44 0 16.8C0 29.28 18 48 18 48C18 48 36 29.28 36 16.8C36 7.44 28.0286 0 18 0ZM24.4286 26.4L18 22.8L11.5714 26.4L13.3714 19.68L7.71429 15.12L15.1714 14.64L18 8.16L20.8286 14.4L28.2857 15.12L22.6286 19.68L24.4286 26.4Z" fill="#285437"/>
<ellipse cx="19.0859" cy="18.4194" rx="15.75" ry="15.0698" fill="#285437"/>
<path d="M17.0489 12.927C17.3483 12.0057 18.6517 12.0057 18.9511 12.9271L20.0206 16.2188C20.1545 16.6309 20.5385 16.9098 20.9717 16.9098L24.4329 16.9098C25.4016 16.9098 25.8044 18.1494 25.0207 18.7188L22.2205 20.7533C21.87 21.0079 21.7234 21.4593 21.8572 21.8713L22.9268 25.1631C23.2261 26.0844 22.1717 26.8506 21.388 26.2812L18.5878 24.2467C18.2373 23.9921 17.7627 23.9921 17.4122 24.2467L14.612 26.2812C13.8283 26.8506 12.7739 26.0844 13.0732 25.1631L14.1428 21.8713C14.2766 21.4593 14.13 21.0079 13.7795 20.7533L10.9793 18.7188C10.1956 18.1494 10.5984 16.9098 11.5671 16.9098L15.0283 16.9098C15.4615 16.9098 15.8455 16.6309 15.9794 16.2188L17.0489 12.927Z" fill="white"/>
</svg>
