<svg width="36" height="43" viewBox="0 0 36 43" fill="none" xmlns="http://www.w3.org/2000/svg">
<path fill-rule="evenodd" clip-rule="evenodd" d="M30.7693 5.8293C27.4234 2.51089 22.8493 0.620654 18.0634 0.599651C8.13172 0.578649 0.0423527 8.45463 0 18.2208C0.169411 22.9044 1.79999 27.399 4.6588 31.1374C7.91996 35.443 11.9435 39.1394 16.4964 42.0798C17.3223 42.7729 18.5293 42.7729 19.3552 42.0798C22.4258 40.1476 25.2422 37.8583 27.7834 35.275C32.2728 30.6964 35.8728 24.8367 35.9998 18.4729V18.3679C36.021 13.6843 34.1363 9.16871 30.7693 5.8293Z" fill="#FF452D"/>
<rect x="16" y="8.59961" width="4" height="22" rx="2" fill="white"/>
<rect width="4.22221" height="20.0315" rx="2" transform="matrix(-0.00786296 0.999969 -0.999961 -0.00877674 28.0625 17.7754)" fill="white"/>
</svg>
