<svg width="36" height="43" viewBox="0 0 36 43" fill="none" xmlns="http://www.w3.org/2000/svg">
<path fill-rule="evenodd" clip-rule="evenodd" d="M30.7693 5.60784C27.4234 2.28123 22.8493 0.386331 18.0634 0.365276C8.13172 0.344222 0.0423527 8.23965 0 18.03C0.169411 22.7251 1.79999 27.2308 4.6588 30.9785C7.91996 35.2946 11.9435 39.0002 16.4964 41.9478C17.3223 42.6426 18.5293 42.6426 19.3552 41.9478C22.4258 40.0108 25.2422 37.7159 27.7834 35.1262C32.2728 30.5363 35.8728 24.6621 35.9998 18.2826V18.1774C36.021 13.4822 34.1363 8.9555 30.7693 5.60784Z" fill="#DD291B"/>
<path d="M25.3364 14.3927L25.3455 14.3833L22.4455 11.3637C22.3171 11.2316 22.144 11.1576 21.9636 11.1576C21.7832 11.1576 21.6101 11.2316 21.4818 11.3637C21.2182 11.6382 21.2182 12.0925 21.4818 12.367L22.9182 13.8627C21.9636 14.2413 21.3182 15.2541 21.4818 16.4279C21.6273 17.4692 22.4818 18.3116 23.4818 18.4252C23.9091 18.4725 24.2818 18.3968 24.6364 18.2359V25.0608C24.6364 25.5814 24.2273 26.0074 23.7273 26.0074C23.2273 26.0074 22.8182 25.5814 22.8182 25.0608V20.8012C22.8182 19.7599 22 18.908 21 18.908H20.0909V12.2819C20.0909 11.2406 19.2727 10.3887 18.2727 10.3887H12.8182C11.8182 10.3887 11 11.2406 11 12.2819V26.4807C11 27.0013 11.4091 27.4273 11.9091 27.4273H19.1818C19.6818 27.4273 20.0909 27.0013 20.0909 26.4807V20.3279H21.4545V24.9283C21.4545 26.1683 22.3091 27.2948 23.4909 27.4178C23.8078 27.4523 24.1282 27.417 24.4312 27.3143C24.7342 27.2115 25.0131 27.0435 25.2497 26.8213C25.4863 26.599 25.6754 26.3274 25.8046 26.0241C25.9339 25.7208 26.0005 25.3926 26 25.0608V16.0682C26 15.4151 25.7455 14.8187 25.3364 14.3927ZM18.2727 17.0148H12.8182V13.2284C12.8182 12.7078 13.2273 12.2819 13.7273 12.2819H17.3636C17.8636 12.2819 18.2727 12.7078 18.2727 13.2284V17.0148ZM23.7273 17.0148C23.2273 17.0148 22.8182 16.5888 22.8182 16.0682C22.8182 15.5476 23.2273 15.1216 23.7273 15.1216C24.2273 15.1216 24.6364 15.5476 24.6364 16.0682C24.6364 16.5888 24.2273 17.0148 23.7273 17.0148Z" fill="white"/>
</svg>
