<svg width="41" height="30" viewBox="0 0 51 40" fill="none" xmlns="http://www.w3.org/2000/svg">
<path d="M49.4266 6.24516C49.0887 5.03994 48.4306 3.9488 47.5222 3.08772C46.5881 2.20017 45.4432 1.56528 44.1957 1.24298C39.5266 0.0123283 20.8207 0.0123286 20.8207 0.0123286C13.0224 -0.0763962 14.226 0.313838 6.47552 1.18083C5.22794 1.52694 4.08523 2.17601 3.14903 3.07032C2.22914 3.9554 1.56285 5.04683 1.21479 6.24267C0.378669 10.747 -0.0275736 15.3205 0.00153442 19.9017C-0.0282996 24.4787 0.376946 29.0508 1.21479 33.5607C1.55539 34.7516 2.2192 35.8381 3.14157 36.7157C4.06394 37.5933 5.21255 38.2273 6.47552 38.5629C11.2067 39.7911 20.8207 39.7911 20.8207 39.7911C28.6289 39.8799 36.4352 39.4897 44.1957 38.6226C45.4432 38.3003 46.5881 37.6654 47.5222 36.7778C48.4303 35.9169 49.0876 34.8256 49.4241 33.6204C50.282 29.1178 50.6992 24.5424 50.6696 19.9589C50.7342 15.356 50.3175 10.759 49.4266 6.24267V6.24516ZM19.8737 28.4143V11.3915L35.4372 19.9042L19.8737 28.4143Z" fill="#003A91"/>
</svg>
