<svg width="30" height="30" viewBox="0 0 39 39" fill="none" xmlns="http://www.w3.org/2000/svg">
<path d="M19.4948 12.9972C15.9142 12.9972 12.9921 15.9193 12.9921 19.5C12.9921 23.0807 15.9142 26.0028 19.4948 26.0028C23.0754 26.0028 25.9974 23.0807 25.9974 19.5C25.9974 15.9193 23.0754 12.9972 19.4948 12.9972ZM38.9978 19.5C38.9978 16.8072 39.0222 14.1388 38.871 11.4508C38.7198 8.3287 38.0075 5.55783 35.7245 3.27479C33.4367 0.986866 30.6707 0.279514 27.5487 0.128287C24.8559 -0.0229405 22.1875 0.00145102 19.4996 0.00145102C16.8069 0.00145102 14.1385 -0.0229405 11.4506 0.128287C8.32855 0.279514 5.55773 0.991745 3.27473 3.27479C0.986848 5.56271 0.279509 8.3287 0.128284 11.4508C-0.0229401 14.1436 0.00145099 16.8121 0.00145099 19.5C0.00145099 22.1879 -0.0229401 24.8612 0.128284 27.5492C0.279509 30.6713 0.991727 33.4422 3.27473 35.7252C5.56261 38.0131 8.32855 38.7205 11.4506 38.8717C14.1434 39.0229 16.8117 38.9986 19.4996 38.9986C22.1924 38.9986 24.8608 39.0229 27.5487 38.8717C30.6707 38.7205 33.4416 38.0083 35.7245 35.7252C38.0124 33.4373 38.7198 30.6713 38.871 27.5492C39.0271 24.8612 38.9978 22.1928 38.9978 19.5ZM19.4948 29.5054C13.958 29.5054 9.48956 25.0369 9.48956 19.5C9.48956 13.9631 13.958 9.49461 19.4948 9.49461C25.0315 9.49461 29.5 13.9631 29.5 19.5C29.5 25.0369 25.0315 29.5054 19.4948 29.5054ZM29.9097 11.4215C28.617 11.4215 27.5731 10.3776 27.5731 9.08484C27.5731 7.79209 28.617 6.74813 29.9097 6.74813C31.2025 6.74813 32.2464 7.79209 32.2464 9.08484C32.2468 9.39181 32.1866 9.69584 32.0693 9.97951C31.952 10.2632 31.7799 10.5209 31.5629 10.738C31.3458 10.9551 31.0881 11.1272 30.8044 11.2445C30.5207 11.3617 30.2167 11.4219 29.9097 11.4215Z" fill="#003A91"/>
</svg>
