<svg width="38" height="29" viewBox="0 0 48 39" fill="none" xmlns="http://www.w3.org/2000/svg">
<path d="M48 4.62611C46.2348 5.40786 44.3386 5.93608 42.3451 6.17483C44.402 4.94471 45.9409 3.00866 46.6745 0.727914C44.742 1.87517 42.627 2.68271 40.4214 3.11543C38.9382 1.53262 36.9736 0.483513 34.8327 0.13098C32.6918 -0.221552 30.4943 0.142215 28.5815 1.16581C26.6686 2.1894 25.1474 3.81554 24.254 5.79178C23.3606 7.76801 23.145 9.98376 23.6406 12.095C19.7249 11.8985 15.8942 10.8813 12.3973 9.10937C8.90032 7.33744 5.81522 4.85041 3.3422 1.80969C2.49661 3.26755 2.01039 4.95783 2.01039 6.75797C2.00945 8.37851 2.40874 9.97423 3.17283 11.4036C3.93691 12.8329 5.04218 14.0516 6.39056 14.9516C4.8268 14.9019 3.29754 14.4795 1.93006 13.7198V13.8466C1.9299 16.1194 2.71653 18.3224 4.15647 20.0816C5.59641 21.8408 7.60096 23.0479 9.83 23.498C8.37935 23.8904 6.85846 23.9482 5.38219 23.6671C6.01109 25.6227 7.23614 27.3329 8.88583 28.5581C10.5355 29.7834 12.5273 30.4624 14.5822 30.5C11.0938 33.237 6.78563 34.7217 2.35074 34.7151C1.56515 34.7153 0.780219 34.6695 0 34.5778C4.50167 37.4707 9.74193 39.0059 15.0938 39C33.2106 39 43.1146 24.003 43.1146 10.9963C43.1146 10.5738 43.104 10.147 43.085 9.72441C45.0115 8.33199 46.6743 6.60774 47.9958 4.63245L48 4.62611Z" fill="#01796F"/>
</svg>
