<svg width="26" height="26" viewBox="0 0 26 26" fill="none" xmlns="http://www.w3.org/2000/svg">
<path d="M2.59749 26C1.95206 26 1.32974 25.7591 0.85179 25.3241C0.373845 24.8892 0.0745136 24.2914 0.0121216 23.6472L0 23.3972V4.29726C3.09944e-05 3.6498 0.240562 3.02556 0.674688 2.54628C1.10881 2.067 1.70541 1.76703 2.34813 1.70487L2.59749 1.69098H10.39C11.0354 1.69097 11.6577 1.93191 12.1357 2.36686C12.6136 2.8018 12.9129 3.39959 12.9753 4.04375L12.9875 4.29552V4.73656L16.7781 0.796757C17.2248 0.332154 17.8277 0.0504105 18.4698 0.00613895C19.1119 -0.0381326 19.7476 0.158221 20.2535 0.55714L20.4544 0.732512L25.2286 5.46409C25.687 5.91846 25.9605 6.5275 25.996 7.17284C26.0316 7.81818 25.8265 8.45371 25.4208 8.95591L25.2424 9.15732L21.2406 12.9773H21.6458C22.2915 12.9773 22.914 13.2185 23.392 13.6538C23.87 14.0891 24.1691 14.6873 24.2311 15.3318L24.2433 15.5819V23.3955C24.2433 24.0426 24.003 24.6667 23.5692 25.1459C23.1354 25.6251 22.5393 25.9253 21.8969 25.9878L21.6458 26H2.59749ZM11.2558 14.7137H1.73166V23.3955C1.73122 23.5731 1.7851 23.7465 1.88605 23.8924C1.98699 24.0384 2.13014 24.1497 2.29618 24.2116L2.44164 24.2515L2.59749 24.2654H11.2558V14.7154V14.7137ZM21.6458 14.7137H12.9875V24.2636H21.6458C21.8484 24.2637 22.0447 24.1925 22.2003 24.0624C22.356 23.9323 22.4613 23.7516 22.4977 23.5517L22.5116 23.3955V15.5819C22.5113 15.379 22.4401 15.1826 22.3104 15.0268C22.1807 14.8711 22.0007 14.7658 21.8016 14.7293L21.6458 14.7154V14.7137ZM12.9875 9.86923V12.9773H16.0871L12.9875 9.86923ZM10.39 3.42734H2.59749C2.39459 3.42735 2.19814 3.4988 2.04243 3.62923C1.88672 3.75966 1.78163 3.94079 1.74551 4.14098L1.73166 4.29726V12.979H11.2558V4.29726C11.2559 4.11996 11.2018 3.94688 11.1009 3.8013C11 3.65571 10.857 3.5446 10.6913 3.4829L10.5458 3.4447L10.39 3.42908V3.42734ZM19.2595 1.99311C19.1139 1.84844 18.9221 1.7599 18.7178 1.74306C18.5135 1.72623 18.3098 1.78218 18.1426 1.90108L18.0249 2.00526L13.4948 6.716C13.3581 6.85817 13.2739 7.04282 13.2559 7.23949C13.238 7.43615 13.2874 7.63307 13.3961 7.79775L13.5052 7.93319L18.0352 12.4738C18.174 12.6131 18.3558 12.701 18.5508 12.7231C18.7459 12.7451 18.9427 12.7001 19.1089 12.5953L19.2439 12.4894L24.0199 7.92798C24.1622 7.78347 24.2496 7.59347 24.2667 7.39106C24.2837 7.18865 24.2295 6.98664 24.1134 6.82018L24.0112 6.70038L19.2595 1.99311Z" fill="white"/>
</svg>
