<svg width="26" height="26" viewBox="0 0 26 26" fill="none" xmlns="http://www.w3.org/2000/svg">
<path d="M19 4H23.5C23.8978 4 24.2794 4.15804 24.5607 4.43934C24.842 4.72064 25 5.10218 25 5.5V22C25 22.7956 24.6839 23.5587 24.1213 24.1213C23.5587 24.6839 22.7956 25 22 25C21.2044 25 20.4413 24.6839 19.8787 24.1213C19.3161 23.5587 19 22.7956 19 22V2.5C19 2.10218 18.842 1.72064 18.5607 1.43934C18.2794 1.15804 17.8978 1 17.5 1H2.5C2.10218 1 1.72064 1.15804 1.43934 1.43934C1.15804 1.72064 1 2.10218 1 2.5V20.5C1 21.6935 1.47411 22.8381 2.31802 23.682C3.16193 24.5259 4.30653 25 5.5 25H22M7 7H13M7 13H13M7 19H13" stroke="white" stroke-width="2" stroke-linecap="round" stroke-linejoin="round"/>
</svg>
