<svg width="25" height="25" viewBox="0 0 25 25" fill="none" xmlns="http://www.w3.org/2000/svg">
<path fill-rule="evenodd" clip-rule="evenodd" d="M3.7569 16.672V24.9997H15.6401V20.4775H18.6213C18.8074 20.4775 18.9852 20.4407 19.147 20.3748L17.4942 19.0887H14.2512V23.6108H5.14508V16.1123L4.75619 15.7088C3.61732 14.5248 1.38887 11.7575 1.38887 8.31587C1.38887 7.18394 1.81595 5.44993 3.10135 4.01731C4.23536 2.75274 6.13812 1.61109 9.30752 1.41804V6.31381C8.75951 6.41767 8.24156 6.64246 7.79141 6.97183C7.34127 7.30119 6.97027 7.72682 6.70544 8.21771C6.44061 8.7086 6.28862 9.25239 6.26055 9.80945C6.23247 10.3665 6.32902 10.9228 6.54316 11.4379C6.7573 11.9529 7.08363 12.4137 7.49838 12.7866C7.91314 13.1596 8.40586 13.4353 8.94066 13.5937C9.47546 13.7521 10.0389 13.7893 10.5898 13.7024C11.1408 13.6155 11.6654 13.4068 12.1255 13.0915L21.8963 20.6768C21.8361 21.024 21.895 21.3813 22.0635 21.6908C22.2319 22.0003 22.5001 22.2437 22.8243 22.3816C23.1486 22.5195 23.5099 22.5438 23.8497 22.4504C24.1894 22.3571 24.4877 22.1516 24.696 21.8674C24.9043 21.5833 25.0104 21.237 24.9971 20.8849C24.9839 20.5328 24.852 20.1955 24.6229 19.9278C24.3938 19.6601 24.0809 19.4777 23.7351 19.4102C23.3892 19.3427 23.0307 19.3941 22.7178 19.556L13.111 12.0971C13.4586 11.5819 13.6728 10.9884 13.7343 10.3699C13.7957 9.75142 13.7026 9.12736 13.4632 8.5538C13.2238 7.98024 12.8456 7.47515 12.3627 7.08392C11.8797 6.69269 11.3072 6.42758 10.6964 6.31242V1.39373C12.4623 1.42637 13.6859 1.66317 14.6116 2.01039C15.5922 2.37844 16.3192 2.89858 17.0519 3.57773L17.1505 3.6694C17.8685 4.33467 18.0824 4.53328 18.2039 4.85689L21.1435 12.6832H18.6213V14.6887L20.0102 15.7686V14.0721H21.1435C21.3679 14.0724 21.5891 14.0182 21.788 13.9143C21.9869 13.8103 22.1577 13.6597 22.2856 13.4752C22.4135 13.2908 22.4947 13.0781 22.5223 12.8553C22.55 12.6326 22.5231 12.4065 22.4442 12.1964L19.5039 4.368C19.2616 3.72218 18.7928 3.29163 18.2026 2.74997C18.1337 2.68671 18.0649 2.62328 17.9963 2.55969C16.354 1.0361 14.4852 0 10.2763 0C2.08747 0 0 5.46868 0 8.31587C0 12.3207 2.55761 15.4276 3.7569 16.672ZM10.002 12.361C10.312 12.361 10.6191 12.3 10.9055 12.1814C11.192 12.0628 11.4523 11.8889 11.6716 11.6697C11.8909 11.4504 12.0648 11.1902 12.1835 10.9037C12.3022 10.6173 12.3633 10.3103 12.3634 10.0002C12.3634 9.69016 12.3024 9.38313 12.1838 9.09665C12.0652 8.81017 11.8913 8.54987 11.6721 8.33059C11.4529 8.11131 11.1926 7.93735 10.9062 7.81866C10.6197 7.69996 10.3127 7.63884 10.0027 7.6388C9.37646 7.6388 8.77591 7.88755 8.33312 8.33034C7.89033 8.77313 7.64157 9.37368 7.64157 9.99988C7.64157 10.6261 7.89033 11.2266 8.33312 11.6694C8.77591 12.1122 9.37646 12.361 10.0027 12.361H10.002Z" fill="white"/>
</svg>
