<svg width="26" height="26" viewBox="0 0 26 26" fill="none" xmlns="http://www.w3.org/2000/svg">
<path d="M23.6667 1H2.33333C1.59695 1 1 1.59695 1 2.33333V5C1 5.73638 1.59695 6.33333 2.33333 6.33333H23.6667C24.403 6.33333 25 5.73638 25 5V2.33333C25 1.59695 24.403 1 23.6667 1Z" stroke="white" stroke-width="1.5" stroke-linecap="round" stroke-linejoin="round"/>
<path d="M13 21C15.9455 21 18.3334 18.6122 18.3334 15.6667C18.3334 12.7211 15.9455 10.3333 13 10.3333C10.0545 10.3333 7.66669 12.7211 7.66669 15.6667C7.66669 18.6122 10.0545 21 13 21Z" stroke="white" stroke-width="1.5" stroke-linecap="round" stroke-linejoin="round"/>
<path d="M22.3334 6.33333V15.6667C22.3334 18.142 21.35 20.516 19.5997 22.2663C17.8493 24.0167 15.4754 25 13 25C10.5247 25 8.1507 24.0167 6.40036 22.2663C4.65002 20.516 3.66669 18.142 3.66669 15.6667V6.33333M13 15.6667H13.0134" stroke="white" stroke-width="1.5" stroke-linecap="round" stroke-linejoin="round"/>
</svg>
