<svg width="24" height="26" viewBox="0 0 24 26" fill="none" xmlns="http://www.w3.org/2000/svg">
<path d="M12 20.8C10.7556 20.8 9.56667 20.9898 8.43333 21.3694C7.3 21.7481 6.26667 22.3167 5.33333 23.075V23.4H18.6667V23.075C17.7333 22.3167 16.7 21.7481 15.5667 21.3694C14.4333 20.9898 13.2444 20.8 12 20.8ZM2.66667 21.905C3.86667 20.7567 5.26133 19.8519 6.85067 19.1906C8.43911 18.5302 10.1556 18.2 12 18.2C13.8444 18.2 15.5613 18.5302 17.1507 19.1906C18.7391 19.8519 20.1333 20.7567 21.3333 21.905V5.2H2.66667V21.905ZM12 15.6C10.7111 15.6 9.61111 15.1558 8.7 14.2675C7.78889 13.3792 7.33333 12.3067 7.33333 11.05C7.33333 9.79333 7.78889 8.72083 8.7 7.8325C9.61111 6.94417 10.7111 6.5 12 6.5C13.2889 6.5 14.3889 6.94417 15.3 7.8325C16.2111 8.72083 16.6667 9.79333 16.6667 11.05C16.6667 12.3067 16.2111 13.3792 15.3 14.2675C14.3889 15.1558 13.2889 15.6 12 15.6ZM12 13C12.5556 13 13.0276 12.8102 13.416 12.4306C13.8053 12.0519 14 11.5917 14 11.05C14 10.5083 13.8053 10.0481 13.416 9.6694C13.0276 9.2898 12.5556 9.1 12 9.1C11.4444 9.1 10.9724 9.2898 10.584 9.6694C10.1947 10.0481 10 10.5083 10 11.05C10 11.5917 10.1947 12.0519 10.584 12.4306C10.9724 12.8102 11.4444 13 12 13ZM2.66667 26C1.93333 26 1.30533 25.7456 0.782667 25.2369C0.260889 24.7273 0 24.115 0 23.4V5.2C0 4.485 0.260889 3.87313 0.782667 3.3644C1.30533 2.8548 1.93333 2.6 2.66667 2.6H4V0H6.66667V2.6H17.3333V0H20V2.6H21.3333C22.0667 2.6 22.6947 2.8548 23.2173 3.3644C23.7391 3.87313 24 4.485 24 5.2V23.4C24 24.115 23.7391 24.7273 23.2173 25.2369C22.6947 25.7456 22.0667 26 21.3333 26H2.66667ZM12 23.4H18.6667H5.33333H12Z" fill="white"/>
</svg>
