<svg width="27" height="26" viewBox="0 0 27 26" fill="none" xmlns="http://www.w3.org/2000/svg">
<path d="M19.0976 13C19.0976 12.116 19.0185 11.258 18.9132 10.4H23.3649C23.5756 11.232 23.7073 12.103 23.7073 13C23.7073 13.481 23.6678 13.949 23.602 14.404C24.5107 14.534 25.3537 14.82 26.1307 15.236C26.2624 14.508 26.3415 13.767 26.3415 13C26.3415 5.85 20.4146 0 13.1707 0C5.88732 0 0 5.85 0 13C0 20.15 5.92683 26 13.1707 26C13.9478 26 14.6985 25.922 15.4361 25.792C14.8105 24.6596 14.4844 23.3898 14.4878 22.1C14.4878 21.723 14.5273 21.359 14.58 20.995C14.1585 21.814 13.6976 22.607 13.1707 23.348C12.0776 21.788 11.1951 20.059 10.6551 18.2H15.5546C16.3457 16.8433 17.5351 15.7553 18.9659 15.08C19.0449 14.391 19.0976 13.702 19.0976 13ZM13.1707 2.639C14.2639 4.199 15.1463 5.941 15.6863 7.8H10.6551C11.1951 5.941 12.0776 4.199 13.1707 2.639ZM2.97659 15.6C2.76585 14.768 2.63415 13.897 2.63415 13C2.63415 12.103 2.76585 11.232 2.97659 10.4H7.42829C7.32293 11.258 7.2439 12.116 7.2439 13C7.2439 13.884 7.32293 14.742 7.42829 15.6H2.97659ZM4.05659 18.2H7.90244C8.36341 19.825 8.9561 21.385 9.74634 22.828C7.34746 22.0112 5.32736 20.368 4.05659 18.2ZM7.90244 7.8H4.05659C5.31947 5.62538 7.34241 3.97993 9.74634 3.172C8.9561 4.615 8.36341 6.175 7.90244 7.8ZM16.2527 15.6H10.0888C9.95707 14.742 9.87805 13.884 9.87805 13C9.87805 12.116 9.95707 11.245 10.0888 10.4H16.2527C16.3712 11.245 16.4634 12.116 16.4634 13C16.4634 13.884 16.3712 14.742 16.2527 15.6ZM16.582 3.172C19.0054 3.991 21.0205 5.642 22.2849 7.8H18.3995C17.9873 6.18989 17.3769 4.63566 16.582 3.172ZM27 19.825L20.7439 26L17.122 22.1L18.6498 20.592L20.7439 22.659L25.4722 17.992L27 19.825Z" fill="white"/>
</svg>
