<svg width="11" height="18" viewBox="0 0 11 18" fill="none" xmlns="http://www.w3.org/2000/svg">
<path d="M0.488526 0.474541C0.333665 0.62368 0.210805 0.800828 0.126977 0.995845C0.0431491 1.19086 0 1.39992 0 1.61105C0 1.82218 0.0431491 2.03124 0.126977 2.22625C0.210805 2.42127 0.333665 2.59842 0.488526 2.74756L6.97003 9.00238L0.488526 15.2572C0.176181 15.5586 0.000707339 15.9674 0.000707339 16.3937C0.000707339 16.82 0.176181 17.2288 0.488526 17.5302C0.80087 17.8316 1.2245 18.001 1.66622 18.001C2.10794 18.001 2.53157 17.8316 2.84392 17.5302L10.5115 10.1308C10.6663 9.98169 10.7892 9.80454 10.873 9.60952C10.9569 9.41451 11 9.20545 11 8.99432C11 8.78319 10.9569 8.57413 10.873 8.37912C10.7892 8.1841 10.6663 8.00695 10.5115 7.85781L2.84392 0.45842C2.20913 -0.154166 1.14002 -0.154165 0.488526 0.474541Z" fill="#003A91"/>
</svg>
