<svg width="13" height="15" viewBox="0 0 13 15" fill="none" xmlns="http://www.w3.org/2000/svg">
<path d="M3.49099 8.70789C3.49262 8.70845 3.49528 8.7092 3.49922 8.70987L3.49925 8.70988C3.49892 8.70982 3.50023 8.7099 3.50332 8.7101C3.5038 8.71014 3.50433 8.71017 3.5049 8.71021L3.50658 8.7156M3.49099 8.70789C3.49088 8.70746 3.49081 8.70708 3.49079 8.70682C3.49075 8.70647 3.4908 8.70684 3.4907 8.70779M3.49099 8.70789C3.49108 8.70823 3.4912 8.7086 3.49136 8.70896C3.49167 8.7097 3.49177 8.7096 3.49118 8.70892C3.491 8.70873 3.49082 8.70854 3.49063 8.70836M3.49099 8.70789C3.49089 8.70785 3.49079 8.70782 3.4907 8.70779M3.4907 8.70779C3.48914 8.70723 3.48866 8.7069 3.48899 8.70708C3.48935 8.70728 3.49 8.70776 3.49063 8.70836M3.4907 8.70779C3.49068 8.70796 3.49066 8.70815 3.49063 8.70836M3.49063 8.70836C3.4903 8.7107 3.4892 8.71534 3.48542 8.72113C3.48527 8.72136 3.48513 8.72158 3.48498 8.72179M3.48498 8.72179C3.46686 8.72653 3.45335 8.72896 3.44834 8.72985C3.43856 8.73159 3.43117 8.73256 3.42782 8.73299C3.42112 8.73383 3.41771 8.73405 3.42 8.73386C3.42397 8.73355 3.43392 8.73289 3.45194 8.73202C3.4644 8.73141 3.47901 8.73079 3.49574 8.73015C3.49575 8.73015 3.49576 8.73015 3.49577 8.73015C3.52623 8.72899 3.56372 8.72776 3.60812 8.7265C3.66755 8.72482 3.7375 8.72312 3.81661 8.72143C3.79187 8.7209 3.76815 8.72036 3.74551 8.71978C3.59755 8.71603 3.5248 8.71149 3.50494 8.71021L3.50662 8.71559C3.50661 8.71559 3.50659 8.7156 3.50658 8.7156M3.48498 8.72179C3.48229 8.72574 3.48012 8.72735 3.48067 8.72694C3.48121 8.72654 3.48608 8.72299 3.49771 8.71863C3.49773 8.71863 3.49774 8.71862 3.49775 8.71862C3.50035 8.71765 3.50328 8.71663 3.50658 8.7156M3.48498 8.72179C3.48903 8.72073 3.49331 8.71955 3.49778 8.71825C3.49779 8.71825 3.4978 8.71825 3.49781 8.71824C3.50066 8.71742 3.50359 8.71654 3.50658 8.7156M8.48134 8.71231C8.47131 8.71154 8.45383 8.71031 8.42676 8.70894C8.37824 8.70649 8.31346 8.70424 8.23323 8.70225C8.20796 8.70163 8.18138 8.70103 8.15358 8.70047C8.24957 8.69844 8.33341 8.69639 8.40294 8.69437C8.43745 8.69336 8.46781 8.69238 8.49394 8.69143M8.48134 8.71231C8.48124 8.7155 8.48085 8.71843 8.48029 8.72087C8.47986 8.72274 8.47945 8.72384 8.47929 8.72423C8.47914 8.72459 8.47921 8.72436 8.47965 8.72361C8.48076 8.72175 8.48358 8.71783 8.48865 8.71368C8.48895 8.71344 8.48924 8.71321 8.48954 8.71298M8.48134 8.71231C8.48139 8.71077 8.48137 8.70916 8.48126 8.70752C8.48093 8.70254 8.47996 8.6993 8.47952 8.69816C8.47944 8.69794 8.4794 8.69787 8.47943 8.69792C8.47952 8.69811 8.4804 8.69998 8.48278 8.70284C8.48509 8.70561 8.48793 8.70826 8.49094 8.71046L8.49394 8.69143M8.48134 8.71231C8.4848 8.71258 8.48737 8.7128 8.48914 8.71294C8.48928 8.71295 8.48941 8.71297 8.48954 8.71298M8.48954 8.71298C8.49284 8.71325 8.49296 8.71326 8.49061 8.71288M8.48954 8.71298C8.48992 8.71268 8.4903 8.71239 8.49068 8.71211L8.49056 8.71288C8.49057 8.71288 8.49059 8.71288 8.49061 8.71288M8.49061 8.71288C8.49203 8.71311 8.49323 8.71334 8.49421 8.71355C8.49644 8.71402 8.49757 8.7144 8.49777 8.71447L8.49781 8.71448C8.49781 8.71448 8.49677 8.71409 8.495 8.71309C8.49398 8.71252 8.49297 8.71188 8.49197 8.71119M8.49061 8.71288L8.49074 8.71207C8.49115 8.71177 8.49156 8.71147 8.49197 8.71119M8.49197 8.71119C8.49328 8.7103 8.49455 8.70952 8.49576 8.70886L8.49841 8.70755L8.49919 8.70723L8.4994 8.70715L8.49941 8.70714C8.49943 8.70714 8.49945 8.70713 8.49947 8.70713C8.52996 8.69711 8.55422 8.69257 8.56138 8.69124C8.57174 8.68932 8.57959 8.68825 8.58317 8.68778C8.59033 8.68685 8.59409 8.68659 8.5919 8.68677C8.58817 8.68708 8.57835 8.68776 8.56023 8.68866C8.5425 8.68954 8.5204 8.69047 8.49399 8.69143M8.49197 8.71119C8.49164 8.71096 8.49131 8.71073 8.49098 8.71049L8.49399 8.69143M8.49399 8.69143L8.56845 8.21898L8.49394 8.69143M8.49399 8.69143C8.49397 8.69143 8.49396 8.69143 8.49394 8.69143M10.2124 13.7139H10.3561L10.4779 13.6375C10.5288 13.6056 10.5755 13.5806 10.6281 13.5533C10.6343 13.5501 10.6408 13.5467 10.6476 13.5432C10.6939 13.5193 10.755 13.4877 10.8132 13.4523C10.9727 13.3554 11.1139 13.2296 11.2508 13.0211L11.2508 13.0211C11.3929 12.8048 11.4482 12.5742 11.4717 12.3737C11.4921 12.2006 11.491 12.0204 11.4902 11.875C11.4901 11.858 11.49 11.8415 11.4899 11.8255C11.4892 11.607 11.4916 11.1969 11.4946 10.6839C11.4985 10.0214 11.5034 9.18715 11.5038 8.37238C11.5041 7.65539 11.5009 6.95819 11.49 6.42327C11.4846 6.1565 11.4773 5.92523 11.4672 5.75029C11.4621 5.66351 11.4561 5.58419 11.4484 5.51862C11.4446 5.48612 11.4397 5.4507 11.4329 5.41627C11.4282 5.39216 11.4154 5.32849 11.3838 5.26167C11.2464 4.97082 10.9796 4.83893 10.7791 4.7764C10.5723 4.71189 10.3425 4.69093 10.1387 4.68478C9.92991 4.67848 9.71479 4.6872 9.52827 4.69646C9.48807 4.69846 9.44972 4.70044 9.41312 4.70233C9.27063 4.7097 9.15461 4.7157 9.05928 4.71576C9.02555 4.71578 8.99314 4.71582 8.96196 4.71586C8.56644 4.71633 8.37028 4.71657 8.2089 4.67922C8.0832 4.65013 7.96459 4.59375 7.76465 4.38695L7.76464 4.38695C7.59517 4.21167 7.50463 3.9488 7.47676 3.51618C7.45871 3.23618 7.46763 2.95322 7.47776 2.63168C7.48421 2.42682 7.49116 2.2063 7.49194 1.9609C7.4924 1.81885 7.49116 1.68987 7.47988 1.58159C7.46824 1.46988 7.44217 1.33479 7.36315 1.20341C7.28401 1.07185 7.17999 0.992108 7.11267 0.944202C7.08419 0.923936 7.05238 0.902718 7.02538 0.884713C7.02099 0.881784 7.01672 0.878939 7.01262 0.876198C6.98052 0.854744 6.94802 0.832808 6.91203 0.807084L6.7816 0.713867H6.62129H1.77355H1.62983L1.50804 0.790188C1.46707 0.815862 1.43432 0.833914 1.39201 0.85723C1.36131 0.874148 1.32558 0.893838 1.27804 0.921222C1.1838 0.975505 1.06621 1.04842 0.953484 1.14993C0.704925 1.37377 0.535706 1.68593 0.501458 2.13336L0.499992 2.15252L0.5 2.17174L0.504375 12.3078L0.504387 12.3347L0.50728 12.3614C0.554459 12.7972 0.738914 13.0946 0.981402 13.3031C1.09234 13.3984 1.20636 13.4675 1.29667 13.5186C1.34015 13.5432 1.37327 13.5612 1.40125 13.5765C1.44239 13.5989 1.47243 13.6152 1.50801 13.6375L1.77355 13.2139V13.7139H10.2124ZM3.7794 10.7278C3.87752 10.7245 3.98946 10.7212 4.1129 10.7181C4.57138 10.7066 5.17674 10.6974 5.79342 10.692C6.41 10.6866 7.03556 10.6849 7.53433 10.6881C7.85693 10.6901 8.10908 10.6943 8.272 10.6995C8.15909 10.7029 8.02404 10.7062 7.87153 10.7093C7.41802 10.7187 6.81822 10.7268 6.2063 10.7319C5.59436 10.737 4.97215 10.739 4.4737 10.7365C4.18248 10.7351 3.94593 10.732 3.7794 10.7278ZM8.59751 10.6856C8.60818 10.684 8.61078 10.6842 8.60076 10.6853C8.60017 10.6853 8.59911 10.6854 8.59751 10.6856ZM3.29058 6.26155L3.48793 6.71014C3.48792 6.71014 3.4879 6.71013 3.48788 6.71012L3.29058 6.26155ZM4.47024 6.73987C4.16242 6.73831 3.91698 6.73487 3.75147 6.73031C3.85611 6.72664 3.97768 6.72311 4.1131 6.71977C4.57029 6.70849 5.17378 6.69966 5.78901 6.69447C6.40412 6.68928 7.02867 6.68775 7.52784 6.691C7.84213 6.69306 8.09135 6.69707 8.25711 6.7021C8.14664 6.70543 8.01582 6.70869 7.86883 6.71182C7.4145 6.72151 6.81399 6.7298 6.2018 6.73502C5.58959 6.74025 4.96761 6.7424 4.47024 6.73987ZM8.59604 6.68731C8.60642 6.68575 8.60894 6.68592 8.59929 6.68699C8.59873 6.68705 8.59767 6.68716 8.59604 6.68731Z" stroke="#003A91"/>
<path d="M8.18558 0.713867H8.34462H8.60547V1.21387L8.86867 0.788749C8.8808 0.796261 8.89252 0.803504 8.9038 0.81048C8.95576 0.842604 8.99858 0.869078 9.03101 0.890185C9.07348 0.917833 9.12075 0.950577 9.16898 0.995596C9.20597 1.03012 9.23842 1.06792 9.25603 1.08845C9.25817 1.09094 9.2601 1.09318 9.26178 1.09512C9.28189 1.11837 9.30867 1.14905 9.35295 1.19601L11.1935 3.02059C11.1937 3.02081 11.194 3.02103 11.1942 3.02125C11.492 3.31501 11.5794 3.72671 11.4299 4.08784C11.2836 4.44106 10.9428 4.67172 10.5428 4.70439L8.18558 0.713867ZM8.18558 0.713867L8.05577 0.805741M8.18558 0.713867L8.05577 0.805741M8.05577 0.805741C7.80321 0.98449 7.59271 1.18482 7.51792 1.52103C7.48759 1.65737 7.48483 1.79519 7.48541 1.91323C7.48566 1.96487 7.48674 2.02104 7.48784 2.07779C7.48805 2.08842 7.48826 2.09906 7.48846 2.1097C7.48977 2.17891 7.49098 2.25275 7.49107 2.33442L7.49107 2.33445M8.05577 0.805741L7.49107 2.33445M7.49107 2.33445C7.49112 2.3774 7.48989 2.44144 7.48849 2.51472M7.49107 2.33445L7.48849 2.51472M7.48849 2.51472C7.48607 2.64074 7.48312 2.79411 7.48526 2.91473M7.48849 2.51472L7.48526 2.91473M7.48526 2.91473C7.48916 3.13491 7.50735 3.39343 7.57805 3.64338M7.48526 2.91473L7.57805 3.64338M7.57805 3.64338C7.64986 3.89723 7.78282 4.16641 8.03198 4.37437M7.57805 3.64338L8.03198 4.37437M8.03198 4.37437C8.28406 4.58477 8.60693 4.69235 8.98388 4.70757L8.03198 4.37437ZM8.98391 4.70757C9.38801 4.7239 10.1167 4.7392 10.5428 4.70439L8.98391 4.70757Z" stroke="#003A91"/>
</svg>

