<svg width="16" height="17" viewBox="0 0 16 17" fill="none" xmlns="http://www.w3.org/2000/svg">
<path d="M7.5 4.71387C7.5 4.58126 7.44732 4.45408 7.35355 4.36031C7.25979 4.26655 7.13261 4.21387 7 4.21387C6.86739 4.21387 6.74021 4.26655 6.64645 4.36031C6.55268 4.45408 6.5 4.58126 6.5 4.71387V6.71387H4.5C4.36739 6.71387 4.24021 6.76655 4.14645 6.86031C4.05268 6.95408 4 7.08126 4 7.21387C4 7.34648 4.05268 7.47365 4.14645 7.56742C4.24021 7.66119 4.36739 7.71387 4.5 7.71387H6.5V9.71387C6.5 9.84648 6.55268 9.97365 6.64645 10.0674C6.74021 10.1612 6.86739 10.2139 7 10.2139C7.13261 10.2139 7.25979 10.1612 7.35355 10.0674C7.44732 9.97365 7.5 9.84648 7.5 9.71387V7.71387H9.5C9.63261 7.71387 9.75979 7.66119 9.85355 7.56742C9.94732 7.47365 10 7.34648 10 7.21387C10 7.08126 9.94732 6.95408 9.85355 6.86031C9.75979 6.76655 9.63261 6.71387 9.5 6.71387H7.5V4.71387ZM2.5 0.213867C1.83696 0.213867 1.20107 0.477259 0.732233 0.9461C0.263392 1.41494 0 2.05083 0 2.71387V11.7139C0 12.3769 0.263392 13.0128 0.732233 13.4816C1.20107 13.9505 1.83696 14.2139 2.5 14.2139H11.5C12.163 14.2139 12.7989 13.9505 13.2678 13.4816C13.7366 13.0128 14 12.3769 14 11.7139V2.71387C14 2.05083 13.7366 1.41494 13.2678 0.9461C12.7989 0.477259 12.163 0.213867 11.5 0.213867H2.5ZM1 2.71387C1 2.31604 1.15804 1.93451 1.43934 1.65321C1.72064 1.3719 2.10218 1.21387 2.5 1.21387H11.5C11.8978 1.21387 12.2794 1.3719 12.5607 1.65321C12.842 1.93451 13 2.31604 13 2.71387V11.7139C13 12.1117 12.842 12.4932 12.5607 12.7745C12.2794 13.0558 11.8978 13.2139 11.5 13.2139H2.5C2.10218 13.2139 1.72064 13.0558 1.43934 12.7745C1.15804 12.4932 1 12.1117 1 11.7139V2.71387ZM5.5 16.2139C4.58371 16.2152 3.70367 15.856 3.05 15.2139H12.5C13.163 15.2139 13.7989 14.9505 14.2678 14.4816C14.7366 14.0128 15 13.3769 15 12.7139V3.26387C15.619 3.89587 16 4.75987 16 5.71387V12.7139C16 13.6421 15.6313 14.5324 14.9749 15.1887C14.3185 15.8451 13.4283 16.2139 12.5 16.2139H5.5Z" fill="#FCFDFF"/>
</svg>
