<svg width="19" height="19" viewBox="0 0 19 19" fill="none" xmlns="http://www.w3.org/2000/svg">
<path d="M4.15625 0C4.31372 0 4.46474 0.0625556 4.57609 0.173905C4.68744 0.285255 4.75 0.436278 4.75 0.59375V1.1875H14.25V0.59375C14.25 0.436278 14.3126 0.285255 14.4239 0.173905C14.5353 0.0625556 14.6863 0 14.8438 0C15.0012 0 15.1522 0.0625556 15.2636 0.173905C15.3749 0.285255 15.4375 0.436278 15.4375 0.59375V1.1875H16.625C17.2549 1.1875 17.859 1.43772 18.3044 1.88312C18.7498 2.32852 19 2.93261 19 3.5625V16.625C19 17.2549 18.7498 17.859 18.3044 18.3044C17.859 18.7498 17.2549 19 16.625 19H2.375C1.74511 19 1.14102 18.7498 0.695621 18.3044C0.250223 17.859 0 17.2549 0 16.625V3.5625C0 2.93261 0.250223 2.32852 0.695621 1.88312C1.14102 1.43772 1.74511 1.1875 2.375 1.1875H3.5625V0.59375C3.5625 0.436278 3.62506 0.285255 3.73641 0.173905C3.84776 0.0625556 3.99878 0 4.15625 0V0ZM1.1875 4.75V16.625C1.1875 16.9399 1.31261 17.242 1.53531 17.4647C1.75801 17.6874 2.06006 17.8125 2.375 17.8125H16.625C16.9399 17.8125 17.242 17.6874 17.4647 17.4647C17.6874 17.242 17.8125 16.9399 17.8125 16.625V4.75H1.1875Z" fill="#003A91"/>
</svg>
