<svg width="13" height="20" viewBox="0 0 13 20" fill="none" xmlns="http://www.w3.org/2000/svg">
<path d="M11.4969 18.5361C11.6521 18.3873 11.7753 18.2104 11.8596 18.0156C11.9438 17.8208 11.9874 17.6118 11.9879 17.4007C11.9883 17.1895 11.9456 16.9804 11.8622 16.7852C11.7788 16.59 11.6563 16.4126 11.5018 16.2631L5.03386 9.99426L11.5289 3.75349C11.8419 3.45275 12.0183 3.04432 12.0192 2.61804C12.0201 2.19177 11.8455 1.78258 11.5338 1.48048C11.2221 1.17838 10.7989 1.00813 10.3572 1.00717C9.91544 1.00622 9.49144 1.17463 9.17844 1.47538L1.49487 8.85814C1.33969 9.00694 1.21645 9.18382 1.13219 9.37866C1.04795 9.57349 1.00434 9.78245 1.00389 9.99358C1.00343 10.2047 1.04612 10.4139 1.12953 10.6091C1.21293 10.8043 1.33541 10.9817 1.48995 11.1311L9.14145 18.5471C9.77491 19.1611 10.844 19.1634 11.4969 18.5361Z" fill="#003A91"/>
</svg>
