<svg width="16" height="16" viewBox="0 0 16 16" fill="none" xmlns="http://www.w3.org/2000/svg">
<path d="M8.00047 12L4.95547 7.7C4.45706 7.11153 4.1361 6.39358 4.02995 5.62975C3.92381 4.86591 4.03685 4.08764 4.35593 3.38558C4.675 2.68351 5.18697 2.08654 5.8322 1.6642C6.47744 1.24185 7.22939 1.01151 8.00047 1C9.06935 1.01056 10.0905 1.4443 10.8402 2.20621C11.5899 2.96812 12.0071 3.9961 12.0005 5.065C12.0009 5.99747 11.6834 6.90222 11.1005 7.63L8.00047 12ZM8.00047 2C7.1964 2.00923 6.42886 2.33719 5.86638 2.91185C5.3039 3.48652 4.99247 4.26091 5.00047 5.065C5.00382 5.79891 5.26786 6.50775 5.74547 7.065L8.00047 10.26L10.3155 7C10.7555 6.45072 10.9969 5.7688 11.0005 5.065C11.0085 4.26091 10.697 3.48652 10.1346 2.91185C9.57209 2.33719 8.80455 2.00923 8.00047 2Z" fill="#FCFDFF"/>
<path d="M8 5.5C8.55228 5.5 9 5.05228 9 4.5C9 3.94772 8.55228 3.5 8 3.5C7.44772 3.5 7 3.94772 7 4.5C7 5.05228 7.44772 5.5 8 5.5Z" fill="#FCFDFF"/>
<path d="M14 6H13V7H14V14H2V7H3V6H2C1.73478 6 1.48043 6.10536 1.29289 6.29289C1.10536 6.48043 1 6.73478 1 7V14C1 14.2652 1.10536 14.5196 1.29289 14.7071C1.48043 14.8946 1.73478 15 2 15H14C14.2652 15 14.5196 14.8946 14.7071 14.7071C14.8946 14.5196 15 14.2652 15 14V7C15 6.73478 14.8946 6.48043 14.7071 6.29289C14.5196 6.10536 14.2652 6 14 6Z" fill="#FCFDFF"/>
<path d="M8.00047 12L4.95547 7.7C4.45706 7.11153 4.1361 6.39358 4.02995 5.62975C3.92381 4.86591 4.03685 4.08764 4.35593 3.38558C4.675 2.68351 5.18697 2.08654 5.8322 1.6642C6.47744 1.24185 7.22939 1.01151 8.00047 1C9.06935 1.01056 10.0905 1.4443 10.8402 2.20621C11.5899 2.96812 12.0071 3.9961 12.0005 5.065C12.0009 5.99747 11.6834 6.90222 11.1005 7.63L8.00047 12ZM8.00047 2C7.1964 2.00923 6.42886 2.33719 5.86638 2.91185C5.3039 3.48652 4.99247 4.26091 5.00047 5.065C5.00382 5.79891 5.26786 6.50775 5.74547 7.065L8.00047 10.26L10.3155 7C10.7555 6.45072 10.9969 5.7688 11.0005 5.065C11.0085 4.26091 10.697 3.48652 10.1346 2.91185C9.57209 2.33719 8.80455 2.00923 8.00047 2Z" fill="#FCFDFF"/>
<path d="M8 5.5C8.55228 5.5 9 5.05228 9 4.5C9 3.94772 8.55228 3.5 8 3.5C7.44772 3.5 7 3.94772 7 4.5C7 5.05228 7.44772 5.5 8 5.5Z" fill="#FCFDFF"/>
<path d="M14 6H13V7H14V14H2V7H3V6H2C1.73478 6 1.48043 6.10536 1.29289 6.29289C1.10536 6.48043 1 6.73478 1 7V14C1 14.2652 1.10536 14.5196 1.29289 14.7071C1.48043 14.8946 1.73478 15 2 15H14C14.2652 15 14.5196 14.8946 14.7071 14.7071C14.8946 14.5196 15 14.2652 15 14V7C15 6.73478 14.8946 6.48043 14.7071 6.29289C14.5196 6.10536 14.2652 6 14 6Z" fill="#FCFDFF"/>
</svg>
