<svg width="17" height="15" viewBox="0 0 17 15" fill="none" xmlns="http://www.w3.org/2000/svg">
<path d="M6.625 6.21502C6.96972 6.21502 7.31106 6.15311 7.62954 6.03282C7.94802 5.91253 8.2374 5.73621 8.48116 5.51394C8.72491 5.29167 8.91827 5.0278 9.05018 4.73739C9.1821 4.44698 9.25 4.13572 9.25 3.82138C9.25 3.50704 9.1821 3.19578 9.05018 2.90537C8.91827 2.61496 8.72491 2.35109 8.48116 2.12882C8.2374 1.90655 7.94802 1.73023 7.62954 1.60994C7.31106 1.48965 6.96972 1.42773 6.625 1.42773C5.92881 1.42773 5.26113 1.67992 4.76885 2.12882C4.27656 2.57771 4 3.18654 4 3.82138C4 4.45621 4.27656 5.06504 4.76885 5.51394C5.26113 5.96284 5.92881 6.21502 6.625 6.21502V6.21502ZM1 13.3276V13.7379H12.25V13.3276C12.25 11.7956 12.25 11.0297 11.923 10.4442C11.6354 9.92954 11.1765 9.51106 10.612 9.24879C9.97 8.95062 9.13 8.95062 7.45 8.95062H5.8C4.12 8.95062 3.28 8.95062 2.638 9.24879C2.07354 9.51106 1.61462 9.92954 1.327 10.4442C1 11.0297 1 11.7956 1 13.3276Z" stroke="#FCFDFF" stroke-linecap="round" stroke-linejoin="round"/>
<path d="M13.75 3.82227V7.92566M11.5 5.87396H16" stroke="#FCFDFF" stroke-linecap="round" stroke-linejoin="round"/>
</svg>
