<svg width="15" height="15" viewBox="0 0 15 15" fill="none" xmlns="http://www.w3.org/2000/svg">
<path d="M10.5397 2.84136L12.1594 4.46031M11.5813 1.41512L7.20161 5.79477C6.97531 6.02075 6.82098 6.30866 6.75806 6.62222L6.35352 8.64725L8.37854 8.24194C8.69208 8.17923 8.97962 8.02551 9.20599 7.79915L13.5856 3.4195C13.7173 3.28789 13.8216 3.13165 13.8929 2.95969C13.9641 2.78773 14.0008 2.60343 14.0008 2.41731C14.0008 2.23119 13.9641 2.04688 13.8929 1.87493C13.8216 1.70297 13.7173 1.54673 13.5856 1.41512C13.454 1.28351 13.2978 1.17911 13.1258 1.10789C12.9539 1.03666 12.7696 1 12.5835 1C12.3973 1 12.213 1.03666 12.0411 1.10789C11.8691 1.17911 11.7129 1.28351 11.5813 1.41512V1.41512Z" stroke="#B1B2B3" stroke-width="1.5" stroke-linecap="round" stroke-linejoin="round"/>
<path d="M12.4711 10.1767V12.4709C12.4711 12.8765 12.3099 13.2656 12.0231 13.5524C11.7363 13.8392 11.3472 14.0004 10.9416 14.0004H2.52948C2.12383 14.0004 1.73481 13.8392 1.44797 13.5524C1.16114 13.2656 1 12.8765 1 12.4709V4.05877C1 3.65313 1.16114 3.2641 1.44797 2.97727C1.73481 2.69044 2.12383 2.5293 2.52948 2.5293H4.82369" stroke="#B1B2B3" stroke-width="1.5" stroke-linecap="round" stroke-linejoin="round"/>
</svg>
