<svg width="19" height="19" viewBox="0 0 19 19" fill="none" xmlns="http://www.w3.org/2000/svg">
<path d="M9.5 0C12.0196 0 14.4359 1.00089 16.2175 2.78249C17.9991 4.56408 19 6.98044 19 9.5C19 12.0196 17.9991 14.4359 16.2175 16.2175C14.4359 17.9991 12.0196 19 9.5 19C6.98044 19 4.56408 17.9991 2.78249 16.2175C1.00089 14.4359 0 12.0196 0 9.5C0 6.98044 1.00089 4.56408 2.78249 2.78249C4.56408 1.00089 6.98044 0 9.5 0V0ZM9.5 8.34779L7.29329 6.14107C7.14049 5.98828 6.93326 5.90244 6.71718 5.90244C6.5011 5.90244 6.29386 5.98828 6.14107 6.14107C5.98828 6.29386 5.90244 6.5011 5.90244 6.71718C5.90244 6.93326 5.98828 7.14049 6.14107 7.29329L8.34779 9.5L6.14107 11.7067C6.06542 11.7824 6.0054 11.8722 5.96446 11.971C5.92351 12.0699 5.90244 12.1758 5.90244 12.2828C5.90244 12.3898 5.92351 12.4958 5.96446 12.5946C6.0054 12.6935 6.06542 12.7833 6.14107 12.8589C6.21673 12.9346 6.30654 12.9946 6.40539 13.0355C6.50424 13.0765 6.61019 13.0976 6.71718 13.0976C6.82417 13.0976 6.93012 13.0765 7.02897 13.0355C7.12781 12.9946 7.21763 12.9346 7.29329 12.8589L9.5 10.6522L11.7067 12.8589C11.7824 12.9346 11.8722 12.9946 11.971 13.0355C12.0699 13.0765 12.1758 13.0976 12.2828 13.0976C12.3898 13.0976 12.4958 13.0765 12.5946 13.0355C12.6935 12.9946 12.7833 12.9346 12.8589 12.8589C12.9346 12.7833 12.9946 12.6935 13.0355 12.5946C13.0765 12.4958 13.0976 12.3898 13.0976 12.2828C13.0976 12.1758 13.0765 12.0699 13.0355 11.971C12.9946 11.8722 12.9346 11.7824 12.8589 11.7067L10.6522 9.5L12.8589 7.29329C12.9346 7.21763 12.9946 7.12781 13.0355 7.02897C13.0765 6.93012 13.0976 6.82417 13.0976 6.71718C13.0976 6.61019 13.0765 6.50424 13.0355 6.40539C12.9946 6.30654 12.9346 6.21673 12.8589 6.14107C12.7833 6.06542 12.6935 6.0054 12.5946 5.96446C12.4958 5.92351 12.3898 5.90244 12.2828 5.90244C12.1758 5.90244 12.0699 5.92351 11.971 5.96446C11.8722 6.0054 11.7824 6.06542 11.7067 6.14107L9.5 8.34779Z" fill="#DD291B"/>
</svg>
