<svg width="17" height="17" viewBox="0 0 17 17" fill="none" xmlns="http://www.w3.org/2000/svg">
<path d="M14.1917 4.83053L10.1117 1.97595C8.99958 1.19678 7.2925 1.23928 6.22292 2.06803L2.67417 4.83762C1.96583 5.39012 1.40625 6.52345 1.40625 7.41595V12.3035C1.40625 14.1097 2.8725 15.583 4.67875 15.583H12.3146C14.1208 15.583 15.5871 14.1168 15.5871 12.3105V7.50804C15.5871 6.55178 14.9708 5.37595 14.1917 4.83053ZM9.02792 12.7497C9.02792 13.0401 8.78708 13.281 8.49667 13.281C8.20625 13.281 7.96542 13.0401 7.96542 12.7497V10.6247C7.96542 10.3343 8.20625 10.0935 8.49667 10.0935C8.78708 10.0935 9.02792 10.3343 9.02792 10.6247V12.7497Z" fill="#01796F"/>
</svg>
