<svg width="20" height="9" viewBox="0 0 20 9" fill="none" xmlns="http://www.w3.org/2000/svg">
<path d="M1 4C3.92035 1.73613 11.6088 -1.43329 19 4" stroke="#4E4E4E"/>
<path fill-rule="evenodd" clip-rule="evenodd" d="M13.9754 3.31917C13.9916 3.46567 14 3.61455 14 3.76538C14 5.97452 12.2091 7.76538 10 7.76538C7.79086 7.76538 6 5.97452 6 3.76538C6 3.50362 6.02514 3.24773 6.07315 3C5.70099 3.10015 5.34863 3.21086 5.01888 3.32786C5.00638 3.47204 5 3.61797 5 3.76538C5 6.52681 7.23858 8.76538 10 8.76538C12.7614 8.76538 15 6.52681 15 3.76538L15 3.74691C14.6578 3.58711 14.316 3.44495 13.9754 3.31917Z" fill="#4E4E4E"/>
</svg>
