<svg width="20" height="13" viewBox="0 0 20 13" fill="none" xmlns="http://www.w3.org/2000/svg">
<path d="M1 6C3.92035 3.73613 11.6088 0.56671 19 6" stroke="#4E4E4E"/>
<path fill-rule="evenodd" clip-rule="evenodd" d="M13.9754 5.31917C13.9916 5.46567 14 5.61455 14 5.76538C14 7.97452 12.2091 9.76538 10 9.76538C7.79086 9.76538 6 7.97452 6 5.76538C6 5.50362 6.02514 5.24773 6.07315 5C5.70099 5.10015 5.34863 5.21086 5.01888 5.32786C5.00638 5.47204 5 5.61797 5 5.76538C5 8.52681 7.23858 10.7654 10 10.7654C12.7614 10.7654 15 8.52681 15 5.76538L15 5.74691C14.6578 5.58711 14.316 5.44495 13.9754 5.31917Z" fill="#4E4E4E"/>
<rect x="14.2773" y="0.750977" width="1" height="14" transform="rotate(39.9619 14.2773 0.750977)" fill="#4E4E4E"/>
</svg>
