<svg width="24" height="28" viewBox="0 0 24 28" fill="none" xmlns="http://www.w3.org/2000/svg">
<path d="M11.903 2.19355C9.41752 4.67097 6.20718 3.09677 4.91268 2C5.10693 4.51613 3.16512 5.87097 2 6.45161C4.13591 8.3871 4.52434 9.74194 3.16512 12.8387C1.8059 15.9355 1.61127 17.4839 2.97072 20C4.61771 23.0483 8.99034 23.4839 9.96121 23.871C10.7379 24.1806 11.5145 25.0323 11.9029 26C12.2912 25.2258 13.3398 23.7548 15.9806 23.2903C19.2816 22.7097 21.0291 20.5806 21.6117 18.6452C22.1942 16.7097 22 15.5484 20.6408 12.4516C19.2816 9.35484 20.4466 8 22 6.45161C19.4757 5.48387 19.0873 3.54839 19.0873 2C15.5922 4.70968 12.8738 2.96774 11.903 2.19355Z" stroke="#79A3DC" stroke-width="1.5"/>
</svg>
