<svg width="20" height="24" viewBox="0 0 20 24" fill="none" xmlns="http://www.w3.org/2000/svg">
<path d="M9.90295 0.193548C7.41752 2.67097 4.20718 1.09677 2.91268 0C3.10693 2.51613 1.16512 3.87097 0 4.45161C2.13591 6.3871 2.52434 7.74194 1.16512 10.8387C-0.194101 13.9355 -0.388727 15.4839 0.970716 18C2.61771 21.0483 6.99034 21.4839 7.96121 21.871C8.73791 22.1806 9.51453 23.0323 9.90288 24C10.2912 23.2258 11.3398 21.7548 13.9806 21.2903C17.2816 20.7097 19.0291 18.5806 19.6117 16.6452C20.1942 14.7097 20 13.5484 18.6408 10.4516C17.2816 7.35484 18.4466 6 20 4.45161C17.4757 3.48387 17.0873 1.54839 17.0873 0C13.5922 2.70968 10.8738 0.967742 9.90295 0.193548Z" fill="#386BF6"/>
</svg>
